<svg width="108" height="108" viewBox="0 0 108 108" fill="none" xmlns="http://www.w3.org/2000/svg">
<g filter="url(#filter0_d_337_87)">
<path d="M54 0C5.73611 0 4 1.73611 4 50C4 98.2639 5.73611 100 54 100C102.264 100 104 98.2639 104 50C104 1.73611 102.264 0 54 0Z" fill="white"/>
<g clip-path="url(#clip0_337_87)">
<g filter="url(#filter1_d_337_87)">
<path d="M33.7977 27.9525C35.3191 27.9525 36.5524 26.7192 36.5524 25.1978C36.5524 23.6764 35.3191 22.4431 33.7977 22.4431C32.2763 22.4431 31.043 23.6764 31.043 25.1978C31.043 26.7192 32.2763 27.9525 33.7977 27.9525Z" fill="#4F5D75"/>
</g>
<g filter="url(#filter2_d_337_87)">
<path d="M31.9617 27.9526H35.6347C36.3653 27.9526 37.066 28.2429 37.5826 28.7595C38.0992 29.2761 38.3894 29.9768 38.3894 30.7073V37.135H29.207V30.7073C29.207 29.9768 29.4973 29.2761 30.0139 28.7595C30.5305 28.2429 31.2311 27.9526 31.9617 27.9526Z" fill="#4F5D75"/>
</g>
<g filter="url(#filter3_d_337_87)">
<path d="M54.0008 27.9525C55.5222 27.9525 56.7555 26.7192 56.7555 25.1978C56.7555 23.6764 55.5222 22.4431 54.0008 22.4431C52.4794 22.4431 51.2461 23.6764 51.2461 25.1978C51.2461 26.7192 52.4794 27.9525 54.0008 27.9525Z" fill="#4F5D75"/>
</g>
<g filter="url(#filter4_d_337_87)">
<path d="M52.1649 27.9526H55.8378C56.5684 27.9526 57.2691 28.2429 57.7857 28.7595C58.3023 29.2761 58.5925 29.9768 58.5925 30.7073V37.135H49.4102V30.7073C49.4102 29.9768 49.7004 29.2761 50.217 28.7595C50.7336 28.2429 51.4343 27.9526 52.1649 27.9526Z" fill="#4F5D75"/>
</g>
<g filter="url(#filter5_d_337_87)">
<path d="M74.2 27.9525C75.7214 27.9525 76.9547 26.7192 76.9547 25.1978C76.9547 23.6764 75.7214 22.4431 74.2 22.4431C72.6786 22.4431 71.4453 23.6764 71.4453 25.1978C71.4453 26.7192 72.6786 27.9525 74.2 27.9525Z" fill="#4F5D75"/>
</g>
<g filter="url(#filter6_d_337_87)">
<path d="M72.3641 27.9526H76.037C76.7676 27.9526 77.4683 28.2429 77.9849 28.7595C78.5015 29.2761 78.7917 29.9768 78.7917 30.7073V37.135H69.6094V30.7073C69.6094 29.9768 69.8996 29.2761 70.4162 28.7595C70.9328 28.2429 71.6335 27.9526 72.3641 27.9526Z" fill="#4F5D75"/>
</g>
<path d="M54.0003 27.9526L53.082 32.5438L54.0003 33.4621L54.9185 32.5438L54.0003 27.9526Z" fill="#E6EEF3"/>
<path d="M44.8172 51.8267C46.3386 51.8267 47.5719 50.5934 47.5719 49.072C47.5719 47.5506 46.3386 46.3173 44.8172 46.3173C43.2958 46.3173 42.0625 47.5506 42.0625 49.072C42.0625 50.5934 43.2958 51.8267 44.8172 51.8267Z" fill="#4F5D75"/>
<g filter="url(#filter7_d_337_87)">
<path d="M47.5725 61.0091L49.4089 60.0909V54.5815C49.4089 53.8509 49.1187 53.1502 48.6021 52.6336C48.0855 52.117 47.3848 51.8268 46.6542 51.8268H42.9813C42.2507 51.8268 41.55 52.117 41.0334 52.6336C40.5168 53.1502 40.2266 53.8509 40.2266 54.5815V60.0909L42.063 61.0091L42.9813 70.1915H46.6542L47.5725 61.0091Z" fill="#4F5D75"/>
</g>
<g filter="url(#filter8_d_337_87)">
<path d="M52.69 53.305C53.6759 52.418 54.4186 51.2937 54.8478 50.0389C54.0485 48.5583 53.8174 46.8369 54.1978 45.1979C54.5782 43.5589 55.5441 42.1153 56.9138 41.1382C58.2836 40.1611 59.963 39.7179 61.6365 39.8917C63.31 40.0655 64.8625 40.8444 66.0022 42.0822C67.1419 43.3199 67.7904 44.9312 67.8259 46.6133C67.8614 48.2955 67.2814 49.9327 66.1949 51.2174C65.1084 52.5021 63.5902 53.3458 61.9255 53.5901C60.2608 53.8343 58.5642 53.4623 57.1544 52.5438C55.7874 53.238 54.2799 53.6108 52.7469 53.6338C52.6184 53.6411 52.5789 53.3877 52.69 53.305Z" fill="#F9F9FA"/>
<path d="M53.6235 53.0796C54.3771 52.2475 54.9557 51.2685 55.3209 50.2007L55.3917 49.9938L55.2878 49.8013C54.5464 48.428 54.332 46.8312 54.6849 45.3109C55.0377 43.7907 55.9336 42.4516 57.2042 41.5453C58.4747 40.639 60.0325 40.2278 61.5848 40.389C63.1372 40.5502 64.5772 41.2728 65.6344 42.4209C66.6916 43.5689 67.2931 45.0636 67.326 46.6239C67.359 48.1842 66.821 49.7029 65.8132 50.8945C64.8053 52.0862 63.3971 52.8688 61.8529 53.0954C60.3088 53.3219 58.735 52.9768 57.4274 52.1249L57.1855 51.9673L56.9281 52.098C55.8929 52.6237 54.7729 52.9555 53.6235 53.0796Z" stroke="#4F5D75"/>
</g>
<g filter="url(#filter9_d_337_87)">
<path d="M59.8678 51.0526C59.6691 51.0526 59.4758 50.9882 59.3168 50.869L56.6641 48.8883L57.7659 47.4192L59.5877 48.78L62.8475 43.1062L64.4397 44.0244L60.6648 50.5963C60.6001 50.7089 60.5122 50.8065 60.4069 50.8826C60.3016 50.9588 60.1814 51.0117 60.0542 51.0379C59.9927 51.0492 59.9303 51.0541 59.8678 51.0526Z" fill="#4F5D75"/>
</g>
<path d="M30.1276 70.1915C31.3954 70.1915 32.4232 69.1638 32.4232 67.8959C32.4232 66.6281 31.3954 65.6003 30.1276 65.6003C28.8598 65.6003 27.832 66.6281 27.832 67.8959C27.832 69.1638 28.8598 70.1915 30.1276 70.1915Z" fill="#4F5D75"/>
<g filter="url(#filter10_d_337_87)">
<path d="M31.9625 70.1914H28.2896C27.8025 70.1914 27.3354 70.3849 26.991 70.7293C26.6466 71.0737 26.4531 71.5408 26.4531 72.0279V77.5373H33.799V72.0279C33.799 71.5408 33.6055 71.0737 33.2611 70.7293C32.9167 70.3849 32.4496 70.1914 31.9625 70.1914Z" fill="#4F5D75"/>
</g>
<path d="M77.8737 70.1915C79.1415 70.1915 80.1693 69.1638 80.1693 67.8959C80.1693 66.6281 79.1415 65.6003 77.8737 65.6003C76.6059 65.6003 75.5781 66.6281 75.5781 67.8959C75.5781 69.1638 76.6059 70.1915 77.8737 70.1915Z" fill="#4F5D75"/>
<path d="M79.7125 70.1914H76.0396C75.5525 70.1914 75.0854 70.3849 74.741 70.7293C74.3966 71.0737 74.2031 71.5408 74.2031 72.0279V77.5373H81.549V72.0279C81.549 71.5408 81.3555 71.0737 81.0111 70.7293C80.6667 70.3849 80.1996 70.1914 79.7125 70.1914Z" fill="black"/>
<path d="M66.8542 70.1915C68.122 70.1915 69.1498 69.1638 69.1498 67.8959C69.1498 66.6281 68.122 65.6003 66.8542 65.6003C65.5864 65.6003 64.5586 66.6281 64.5586 67.8959C64.5586 69.1638 65.5864 70.1915 66.8542 70.1915Z" fill="#4F5D75"/>
<g filter="url(#filter11_d_337_87)">
<path d="M68.693 70.1914H65.0201C64.533 70.1914 64.0659 70.3849 63.7215 70.7293C63.3771 71.0737 63.1836 71.5408 63.1836 72.0279V77.5373H70.5295V72.0279C70.5295 71.5408 70.336 71.0737 69.9916 70.7293C69.6472 70.3849 69.1801 70.1914 68.693 70.1914ZM79.7119 70.1914H76.0389C75.5518 70.1914 75.0847 70.3849 74.7403 70.7293C74.3959 71.0737 74.2024 71.5408 74.2024 72.0279V77.5373H81.5483V72.0279C81.5483 71.5408 81.3548 71.0737 81.0104 70.7293C80.666 70.3849 80.1989 70.1914 79.7119 70.1914Z" fill="#4F5D75"/>
</g>
<g filter="url(#filter12_d_337_87)">
<path d="M81.5473 36.2167H26.4531V38.0531H81.5473V36.2167Z" fill="#4F5D75"/>
</g>
<g filter="url(#filter13_d_337_87)">
<path d="M48.4904 72.028H41.1445V73.8644H48.4904V72.028Z" fill="#4F5D75"/>
</g>
</g>
</g>
<defs>
<filter id="filter0_d_337_87" x="0" y="0" width="108" height="108" filterUnits="userSpaceOnUse" color-interpolation-filters="sRGB">
<feFlood flood-opacity="0" result="BackgroundImageFix"/>
<feColorMatrix in="SourceAlpha" type="matrix" values="0 0 0 0 0 0 0 0 0 0 0 0 0 0 0 0 0 0 127 0" result="hardAlpha"/>
<feOffset dy="4"/>
<feGaussianBlur stdDeviation="2"/>
<feComposite in2="hardAlpha" operator="out"/>
<feColorMatrix type="matrix" values="0 0 0 0 0 0 0 0 0 0 0 0 0 0 0 0 0 0 0.25 0"/>
<feBlend mode="normal" in2="BackgroundImageFix" result="effect1_dropShadow_337_87"/>
<feBlend mode="normal" in="SourceGraphic" in2="effect1_dropShadow_337_87" result="shape"/>
</filter>
<filter id="filter1_d_337_87" x="27.043" y="22.4431" width="13.5078" height="13.5094" filterUnits="userSpaceOnUse" color-interpolation-filters="sRGB">
<feFlood flood-opacity="0" result="BackgroundImageFix"/>
<feColorMatrix in="SourceAlpha" type="matrix" values="0 0 0 0 0 0 0 0 0 0 0 0 0 0 0 0 0 0 127 0" result="hardAlpha"/>
<feOffset dy="4"/>
<feGaussianBlur stdDeviation="2"/>
<feComposite in2="hardAlpha" operator="out"/>
<feColorMatrix type="matrix" values="0 0 0 0 0 0 0 0 0 0 0 0 0 0 0 0 0 0 0.25 0"/>
<feBlend mode="normal" in2="BackgroundImageFix" result="effect1_dropShadow_337_87"/>
<feBlend mode="normal" in="SourceGraphic" in2="effect1_dropShadow_337_87" result="shape"/>
</filter>
<filter id="filter2_d_337_87" x="25.207" y="27.9526" width="17.1836" height="17.1824" filterUnits="userSpaceOnUse" color-interpolation-filters="sRGB">
<feFlood flood-opacity="0" result="BackgroundImageFix"/>
<feColorMatrix in="SourceAlpha" type="matrix" values="0 0 0 0 0 0 0 0 0 0 0 0 0 0 0 0 0 0 127 0" result="hardAlpha"/>
<feOffset dy="4"/>
<feGaussianBlur stdDeviation="2"/>
<feComposite in2="hardAlpha" operator="out"/>
<feColorMatrix type="matrix" values="0 0 0 0 0 0 0 0 0 0 0 0 0 0 0 0 0 0 0.25 0"/>
<feBlend mode="normal" in2="BackgroundImageFix" result="effect1_dropShadow_337_87"/>
<feBlend mode="normal" in="SourceGraphic" in2="effect1_dropShadow_337_87" result="shape"/>
</filter>
<filter id="filter3_d_337_87" x="47.2461" y="22.4431" width="13.5078" height="13.5094" filterUnits="userSpaceOnUse" color-interpolation-filters="sRGB">
<feFlood flood-opacity="0" result="BackgroundImageFix"/>
<feColorMatrix in="SourceAlpha" type="matrix" values="0 0 0 0 0 0 0 0 0 0 0 0 0 0 0 0 0 0 127 0" result="hardAlpha"/>
<feOffset dy="4"/>
<feGaussianBlur stdDeviation="2"/>
<feComposite in2="hardAlpha" operator="out"/>
<feColorMatrix type="matrix" values="0 0 0 0 0 0 0 0 0 0 0 0 0 0 0 0 0 0 0.25 0"/>
<feBlend mode="normal" in2="BackgroundImageFix" result="effect1_dropShadow_337_87"/>
<feBlend mode="normal" in="SourceGraphic" in2="effect1_dropShadow_337_87" result="shape"/>
</filter>
<filter id="filter4_d_337_87" x="45.4102" y="27.9526" width="17.1836" height="17.1824" filterUnits="userSpaceOnUse" color-interpolation-filters="sRGB">
<feFlood flood-opacity="0" result="BackgroundImageFix"/>
<feColorMatrix in="SourceAlpha" type="matrix" values="0 0 0 0 0 0 0 0 0 0 0 0 0 0 0 0 0 0 127 0" result="hardAlpha"/>
<feOffset dy="4"/>
<feGaussianBlur stdDeviation="2"/>
<feComposite in2="hardAlpha" operator="out"/>
<feColorMatrix type="matrix" values="0 0 0 0 0 0 0 0 0 0 0 0 0 0 0 0 0 0 0.25 0"/>
<feBlend mode="normal" in2="BackgroundImageFix" result="effect1_dropShadow_337_87"/>
<feBlend mode="normal" in="SourceGraphic" in2="effect1_dropShadow_337_87" result="shape"/>
</filter>
<filter id="filter5_d_337_87" x="67.4453" y="22.4431" width="13.5078" height="13.5094" filterUnits="userSpaceOnUse" color-interpolation-filters="sRGB">
<feFlood flood-opacity="0" result="BackgroundImageFix"/>
<feColorMatrix in="SourceAlpha" type="matrix" values="0 0 0 0 0 0 0 0 0 0 0 0 0 0 0 0 0 0 127 0" result="hardAlpha"/>
<feOffset dy="4"/>
<feGaussianBlur stdDeviation="2"/>
<feComposite in2="hardAlpha" operator="out"/>
<feColorMatrix type="matrix" values="0 0 0 0 0 0 0 0 0 0 0 0 0 0 0 0 0 0 0.25 0"/>
<feBlend mode="normal" in2="BackgroundImageFix" result="effect1_dropShadow_337_87"/>
<feBlend mode="normal" in="SourceGraphic" in2="effect1_dropShadow_337_87" result="shape"/>
</filter>
<filter id="filter6_d_337_87" x="65.6094" y="27.9526" width="17.1836" height="17.1824" filterUnits="userSpaceOnUse" color-interpolation-filters="sRGB">
<feFlood flood-opacity="0" result="BackgroundImageFix"/>
<feColorMatrix in="SourceAlpha" type="matrix" values="0 0 0 0 0 0 0 0 0 0 0 0 0 0 0 0 0 0 127 0" result="hardAlpha"/>
<feOffset dy="4"/>
<feGaussianBlur stdDeviation="2"/>
<feComposite in2="hardAlpha" operator="out"/>
<feColorMatrix type="matrix" values="0 0 0 0 0 0 0 0 0 0 0 0 0 0 0 0 0 0 0.25 0"/>
<feBlend mode="normal" in2="BackgroundImageFix" result="effect1_dropShadow_337_87"/>
<feBlend mode="normal" in="SourceGraphic" in2="effect1_dropShadow_337_87" result="shape"/>
</filter>
<filter id="filter7_d_337_87" x="36.2266" y="51.8268" width="17.1836" height="26.3647" filterUnits="userSpaceOnUse" color-interpolation-filters="sRGB">
<feFlood flood-opacity="0" result="BackgroundImageFix"/>
<feColorMatrix in="SourceAlpha" type="matrix" values="0 0 0 0 0 0 0 0 0 0 0 0 0 0 0 0 0 0 127 0" result="hardAlpha"/>
<feOffset dy="4"/>
<feGaussianBlur stdDeviation="2"/>
<feComposite in2="hardAlpha" operator="out"/>
<feColorMatrix type="matrix" values="0 0 0 0 0 0 0 0 0 0 0 0 0 0 0 0 0 0 0.25 0"/>
<feBlend mode="normal" in2="BackgroundImageFix" result="effect1_dropShadow_337_87"/>
<feBlend mode="normal" in="SourceGraphic" in2="effect1_dropShadow_337_87" result="shape"/>
</filter>
<filter id="filter8_d_337_87" x="48.625" y="39.8547" width="23.2031" height="21.8085" filterUnits="userSpaceOnUse" color-interpolation-filters="sRGB">
<feFlood flood-opacity="0" result="BackgroundImageFix"/>
<feColorMatrix in="SourceAlpha" type="matrix" values="0 0 0 0 0 0 0 0 0 0 0 0 0 0 0 0 0 0 127 0" result="hardAlpha"/>
<feOffset dy="4"/>
<feGaussianBlur stdDeviation="2"/>
<feComposite in2="hardAlpha" operator="out"/>
<feColorMatrix type="matrix" values="0 0 0 0 0 0 0 0 0 0 0 0 0 0 0 0 0 0 0.25 0"/>
<feBlend mode="normal" in2="BackgroundImageFix" result="effect1_dropShadow_337_87"/>
<feBlend mode="normal" in="SourceGraphic" in2="effect1_dropShadow_337_87" result="shape"/>
</filter>
<filter id="filter9_d_337_87" x="52.6641" y="43.1062" width="15.7773" height="15.9467" filterUnits="userSpaceOnUse" color-interpolation-filters="sRGB">
<feFlood flood-opacity="0" result="BackgroundImageFix"/>
<feColorMatrix in="SourceAlpha" type="matrix" values="0 0 0 0 0 0 0 0 0 0 0 0 0 0 0 0 0 0 127 0" result="hardAlpha"/>
<feOffset dy="4"/>
<feGaussianBlur stdDeviation="2"/>
<feComposite in2="hardAlpha" operator="out"/>
<feColorMatrix type="matrix" values="0 0 0 0 0 0 0 0 0 0 0 0 0 0 0 0 0 0 0.25 0"/>
<feBlend mode="normal" in2="BackgroundImageFix" result="effect1_dropShadow_337_87"/>
<feBlend mode="normal" in="SourceGraphic" in2="effect1_dropShadow_337_87" result="shape"/>
</filter>
<filter id="filter10_d_337_87" x="22.4531" y="70.1914" width="15.3477" height="15.3459" filterUnits="userSpaceOnUse" color-interpolation-filters="sRGB">
<feFlood flood-opacity="0" result="BackgroundImageFix"/>
<feColorMatrix in="SourceAlpha" type="matrix" values="0 0 0 0 0 0 0 0 0 0 0 0 0 0 0 0 0 0 127 0" result="hardAlpha"/>
<feOffset dy="4"/>
<feGaussianBlur stdDeviation="2"/>
<feComposite in2="hardAlpha" operator="out"/>
<feColorMatrix type="matrix" values="0 0 0 0 0 0 0 0 0 0 0 0 0 0 0 0 0 0 0.25 0"/>
<feBlend mode="normal" in2="BackgroundImageFix" result="effect1_dropShadow_337_87"/>
<feBlend mode="normal" in="SourceGraphic" in2="effect1_dropShadow_337_87" result="shape"/>
</filter>
<filter id="filter11_d_337_87" x="59.1836" y="70.1914" width="26.3633" height="15.3459" filterUnits="userSpaceOnUse" color-interpolation-filters="sRGB">
<feFlood flood-opacity="0" result="BackgroundImageFix"/>
<feColorMatrix in="SourceAlpha" type="matrix" values="0 0 0 0 0 0 0 0 0 0 0 0 0 0 0 0 0 0 127 0" result="hardAlpha"/>
<feOffset dy="4"/>
<feGaussianBlur stdDeviation="2"/>
<feComposite in2="hardAlpha" operator="out"/>
<feColorMatrix type="matrix" values="0 0 0 0 0 0 0 0 0 0 0 0 0 0 0 0 0 0 0.25 0"/>
<feBlend mode="normal" in2="BackgroundImageFix" result="effect1_dropShadow_337_87"/>
<feBlend mode="normal" in="SourceGraphic" in2="effect1_dropShadow_337_87" result="shape"/>
</filter>
<filter id="filter12_d_337_87" x="22.4531" y="36.2167" width="63.0938" height="9.83643" filterUnits="userSpaceOnUse" color-interpolation-filters="sRGB">
<feFlood flood-opacity="0" result="BackgroundImageFix"/>
<feColorMatrix in="SourceAlpha" type="matrix" values="0 0 0 0 0 0 0 0 0 0 0 0 0 0 0 0 0 0 127 0" result="hardAlpha"/>
<feOffset dy="4"/>
<feGaussianBlur stdDeviation="2"/>
<feComposite in2="hardAlpha" operator="out"/>
<feColorMatrix type="matrix" values="0 0 0 0 0 0 0 0 0 0 0 0 0 0 0 0 0 0 0.25 0"/>
<feBlend mode="normal" in2="BackgroundImageFix" result="effect1_dropShadow_337_87"/>
<feBlend mode="normal" in="SourceGraphic" in2="effect1_dropShadow_337_87" result="shape"/>
</filter>
<filter id="filter13_d_337_87" x="37.1445" y="72.028" width="15.3477" height="9.83643" filterUnits="userSpaceOnUse" color-interpolation-filters="sRGB">
<feFlood flood-opacity="0" result="BackgroundImageFix"/>
<feColorMatrix in="SourceAlpha" type="matrix" values="0 0 0 0 0 0 0 0 0 0 0 0 0 0 0 0 0 0 127 0" result="hardAlpha"/>
<feOffset dy="4"/>
<feGaussianBlur stdDeviation="2"/>
<feComposite in2="hardAlpha" operator="out"/>
<feColorMatrix type="matrix" values="0 0 0 0 0 0 0 0 0 0 0 0 0 0 0 0 0 0 0.25 0"/>
<feBlend mode="normal" in2="BackgroundImageFix" result="effect1_dropShadow_337_87"/>
<feBlend mode="normal" in="SourceGraphic" in2="effect1_dropShadow_337_87" result="shape"/>
</filter>
<clipPath id="clip0_337_87">
<rect width="58.7671" height="58.7671" fill="white" transform="translate(24.6172 20.6067)"/>
</clipPath>
</defs>
</svg>
