<svg width="108" height="108" viewBox="0 0 108 108" fill="none" xmlns="http://www.w3.org/2000/svg">
<g filter="url(#filter0_d_340_116)">
<path d="M54 0C5.73611 0 4 1.73611 4 50C4 98.2639 5.73611 100 54 100C102.264 100 104 98.2639 104 50C104 1.73611 102.264 0 54 0Z" fill="white"/>
<g clip-path="url(#clip0_340_116)">
<g filter="url(#filter1_d_340_116)">
<path d="M67.5312 30.9558H65.6875V26.8777C65.6813 26.0815 65.4384 25.3046 64.9888 24.6424C64.5392 23.9802 63.9025 23.4617 63.157 23.1506C62.4115 22.8396 61.5898 22.7496 60.7929 22.8917C59.9961 23.0338 59.2589 23.4018 58.672 23.9505C58.3083 23.3334 57.7859 22.8212 57.1573 22.4651C56.5288 22.1091 55.816 21.9216 55.0905 21.9216C54.3651 21.9216 53.6523 22.1091 53.0238 22.4651C52.3952 22.8212 51.8728 23.3334 51.5091 23.9505C50.9062 23.3884 50.1461 23.0166 49.3265 22.8826C48.5068 22.7487 47.6652 22.8589 46.9098 23.199C46.1544 23.5391 45.5198 24.0936 45.0876 24.7912C44.6554 25.4887 44.4453 26.2974 44.4844 27.1133C43.858 26.7121 43.1335 26.4836 42.3865 26.4517C41.6396 26.4199 40.8977 26.5858 40.2383 26.9321C39.5789 27.2784 39.0262 27.7925 38.6379 28.4206C38.2497 29.0487 38.0402 29.7678 38.0312 30.5027V35.487C37.2984 35.4891 36.5962 35.7763 36.078 36.2857C35.5598 36.7951 35.2678 37.4854 35.2656 38.2058V39.9367C35.2704 41.9519 35.9544 43.9088 37.2108 45.5011L40.17 49.2439C41.1714 50.5186 41.7159 52.083 41.7188 53.6936V60.4633C41.1602 60.7782 40.6958 61.2321 40.3722 61.7793C40.0485 62.3265 39.8771 62.9478 39.875 63.5808V72.6433C39.8749 73.1194 39.9702 73.5908 40.1554 74.0307C40.3407 74.4705 40.6123 74.8702 40.9547 75.2069C41.2972 75.5435 41.7037 75.8105 42.1512 75.9926C42.5986 76.1748 43.0782 76.2684 43.5625 76.2683H63.8438C64.328 76.2684 64.8076 76.1748 65.2551 75.9926C65.7025 75.8105 66.1091 75.5435 66.4515 75.2068C66.7939 74.8702 67.0656 74.4705 67.2508 74.0307C67.4361 73.5908 67.5314 73.1194 67.5312 72.6433V63.5808C67.5292 62.9478 67.3577 62.3265 67.0341 61.7793C66.7104 61.2321 66.246 60.7782 65.6875 60.4633V53.6936C65.6903 52.083 66.2348 50.5186 67.2363 49.2439L70.1955 45.5011C71.4518 43.9088 72.1359 41.9519 72.1406 39.9367V35.487C72.1402 34.2854 71.6544 33.1331 70.7901 32.2834C69.9258 31.4338 68.7536 30.9562 67.5312 30.9558ZM59.2344 26.8777C59.24 26.4318 59.3788 25.9974 59.6335 25.6285C59.8881 25.2595 60.2475 24.9722 60.6668 24.8023C61.0861 24.6324 61.547 24.5873 61.9922 24.6727C62.4374 24.7581 62.8472 24.9702 63.1708 25.2827C63.385 25.4913 63.5548 25.7398 63.6704 26.0137C63.7859 26.2875 63.8448 26.5812 63.8438 26.8777V30.9558H59.2344V26.8777ZM52.7812 25.9714C52.7883 25.3751 53.0343 24.8056 53.4657 24.3864C53.8971 23.9672 54.4793 23.7321 55.0859 23.7321C55.6926 23.7321 56.2747 23.9672 56.7062 24.3864C57.1376 24.8056 57.3836 25.3751 57.3906 25.9714V30.9558C56.6808 31.0102 53.3897 30.8108 52.7812 31.1189V25.9714ZM52.7812 38.097C53.8804 39.208 55.3571 39.8822 56.9297 39.9911C56.6073 40.4108 56.1484 40.7093 55.6293 40.8366C55.1103 40.964 54.5625 40.9127 54.0773 40.6911C53.5921 40.4696 53.1988 40.0913 52.963 39.6192C52.7271 39.1472 52.663 38.6099 52.7812 38.097ZM46.3281 26.8777C46.3352 26.2814 46.5811 25.7118 47.0126 25.2926C47.444 24.8734 48.0262 24.6383 48.6328 24.6383C49.2394 24.6383 49.8216 24.8734 50.2531 25.2926C50.6845 25.7118 50.9304 26.2814 50.9375 26.8777V38.6589C50.9308 39.2555 50.6851 39.8254 50.2536 40.245C49.8221 40.6645 49.2397 40.8998 48.6328 40.8998C48.0259 40.8998 47.4434 40.6645 47.012 40.2449C46.5805 39.8253 46.3348 39.2554 46.3281 38.6588V26.8777ZM39.875 30.5027C39.8821 29.9064 40.128 29.3368 40.5594 28.9176C40.9909 28.4984 41.5731 28.2633 42.1797 28.2633C42.7863 28.2633 43.3685 28.4984 43.7999 28.9176C44.2314 29.3368 44.4773 29.9064 44.4844 30.5027V37.7527C44.4777 38.3492 44.232 38.9192 43.8005 39.3387C43.369 39.7583 42.7865 39.9936 42.1796 39.9935C41.5727 39.9935 40.9903 39.7582 40.5588 39.3386C40.1274 38.9191 39.8816 38.3491 39.875 37.7526V30.5027ZM60.1562 69.9245C59.6705 69.9198 59.2062 69.7267 58.8644 69.3873C58.5226 69.0479 58.3308 68.5896 58.3308 68.112C58.3308 67.6344 58.5226 67.1762 58.8644 66.8368C59.2062 66.4974 59.6705 66.3043 60.1562 66.2995C60.642 66.3043 61.1063 66.4974 61.4481 66.8368C61.7899 67.1762 61.9817 67.6344 61.9817 68.112C61.9817 68.5896 61.7899 69.0479 61.4481 69.3873C61.1063 69.7267 60.642 69.9198 60.1562 69.9245ZM70.2969 39.9367C70.2941 41.5473 69.7495 43.1117 68.7481 44.3864L65.7889 48.1292C64.5325 49.7216 63.8485 51.6784 63.8438 53.6936V59.9557H43.5625V53.6936C43.5578 51.6784 42.8737 49.7216 41.6173 48.1292L38.6581 44.3864C37.6567 43.1117 37.1122 41.5473 37.1094 39.9367V38.2058C37.1101 37.9657 37.2075 37.7356 37.3802 37.5658C37.5529 37.396 37.787 37.3003 38.0312 37.2995C37.9473 38.1321 38.1244 38.9701 38.5387 39.7009C38.953 40.4318 39.5847 41.0206 40.3492 41.3885C41.1136 41.7563 41.9742 41.8856 42.8155 41.7589C43.6567 41.6323 44.4385 41.2557 45.0559 40.6799C45.3924 41.2518 45.8656 41.7345 46.4346 42.0861C47.0037 42.4377 47.6513 42.6476 48.3215 42.6976C48.9917 42.7475 49.6641 42.6361 50.2806 42.373C50.8971 42.1098 51.439 41.7029 51.8594 41.1874C52.3199 41.7516 52.925 42.185 53.6125 42.443C54.3 42.7009 55.045 42.7741 55.7708 42.6551C56.4966 42.536 57.1771 42.2289 57.7421 41.7655C58.3071 41.302 58.7363 40.699 58.9855 40.0183H59.0777C59.1057 40.9898 59.5183 41.9122 60.2277 42.5893C60.937 43.2663 61.8871 43.6444 62.8758 43.6433C63.1198 43.6533 63.358 43.5687 63.5391 43.4076C63.7201 43.2466 63.8296 43.022 63.8438 42.7824C63.8503 42.6632 63.8328 42.544 63.7922 42.4316C63.7517 42.3192 63.6889 42.2157 63.6075 42.1273C63.526 42.0388 63.4276 41.9671 63.3179 41.9162C63.2081 41.8653 63.0892 41.8363 62.968 41.8308C62.558 41.8343 62.1558 41.7205 61.8104 41.5033C61.4651 41.286 61.1914 40.9748 61.0228 40.6074C60.8884 40.2159 60.8916 39.7914 61.032 39.402C61.0769 39.2655 61.0884 39.1206 61.0658 38.9789C61.0431 38.8372 60.9869 38.7027 60.9017 38.5863C60.8165 38.4699 60.7046 38.3748 60.5751 38.3087C60.4456 38.2426 60.3021 38.2074 60.1562 38.2058H57.3906C56.174 38.2023 55.0079 37.7275 54.145 36.8843C53.2822 36.0412 52.7922 34.8977 52.7812 33.7017C52.7777 33.4578 52.8729 33.2225 53.0457 33.0475C53.2186 32.8725 53.455 32.7721 53.7031 32.7683H67.5312C68.2641 32.7704 68.9663 33.0575 69.4845 33.5669C70.0027 34.0763 70.2947 34.7666 70.2969 35.487V39.9367Z" fill="#4F5D75"/>
</g>
<g filter="url(#filter2_d_340_116)">
<path d="M57.0977 44.5965C55.8908 44.9755 54.7673 45.5743 53.7856 46.3616C53.1891 45.6143 51.97 43.7979 50.9272 44.9115C50.7806 45.1038 50.7176 45.3455 50.752 45.5834C50.7864 45.8214 50.9155 46.0362 51.1109 46.1807C51.6686 46.5856 52.1324 47.1024 52.4713 47.697C51.5492 48.8804 51.014 50.3109 50.9362 51.7996C50.9404 52.0368 51.0391 52.2629 51.2109 52.4294C51.3828 52.596 51.6142 52.6896 51.8555 52.6903C52.0968 52.691 52.3288 52.5986 52.5016 52.4331C52.6745 52.2676 52.7744 52.042 52.78 51.8049C52.7818 51.6456 52.8862 47.887 57.6811 46.3152C57.9096 46.2366 58.0975 46.0728 58.2041 45.8591C58.3108 45.6454 58.3276 45.399 58.251 45.1732C58.1743 44.9475 58.0104 44.7604 57.7946 44.6525C57.5788 44.5446 57.3284 44.5245 57.0977 44.5965ZM76.0564 28.2371C75.9959 28.134 75.9154 28.0436 75.8193 27.9711C75.7233 27.8986 75.6136 27.8454 75.4966 27.8146C75.3797 27.7838 75.2577 27.7759 75.1376 27.7915C75.0176 27.807 74.9018 27.8457 74.7969 27.9052L72.4013 29.2646C72.2964 29.3241 72.2044 29.4033 72.1306 29.4977C72.0569 29.5922 72.0027 29.6999 71.9713 29.8149C71.9399 29.9299 71.9319 30.0499 71.9477 30.168C71.9635 30.286 72.0028 30.3998 72.0633 30.503C72.1239 30.6061 72.2045 30.6965 72.3006 30.769C72.3967 30.8414 72.5064 30.8946 72.6234 30.9254C72.7404 30.9562 72.8624 30.964 72.9825 30.9485C73.1026 30.9329 73.2183 30.8942 73.3232 30.8346L75.7188 29.4752C75.8237 29.4158 75.9156 29.3365 75.9894 29.2421C76.0631 29.1477 76.1172 29.0399 76.1486 28.9249C76.1799 28.81 76.1879 28.69 76.1721 28.572C76.1563 28.454 76.117 28.3402 76.0564 28.2371ZM77.983 35.4668C78.216 35.4019 78.4137 35.2494 78.5333 35.0424C78.6529 34.8353 78.6848 34.5903 78.6221 34.3603C78.5595 34.1303 78.4072 33.9338 78.1983 33.8133C77.9894 33.6928 77.7406 33.6579 77.5058 33.7162L74.8348 34.4198C74.6018 34.4848 74.4043 34.6373 74.2848 34.8443C74.1653 35.0513 74.1334 35.2963 74.1961 35.5262C74.2587 35.7561 74.4109 35.9525 74.6197 36.0731C74.8285 36.1936 75.0771 36.2286 75.3119 36.1704L77.983 35.4668ZM78.5925 40.0184H75.8269C75.5846 40.0217 75.3535 40.1187 75.1834 40.2883C75.0133 40.4579 74.918 40.6865 74.918 40.9246C74.918 41.1628 75.0133 41.3914 75.1834 41.561C75.3535 41.7305 75.5847 41.8275 75.8269 41.8309H78.5925C78.8347 41.8275 79.0659 41.7305 79.236 41.5609C79.4061 41.3914 79.5014 41.1628 79.5014 40.9246C79.5014 40.6865 79.4061 40.4579 79.236 40.2883C79.0659 40.1187 78.8347 40.0217 78.5925 40.0184ZM35.0024 29.2646L32.6068 27.9052C32.3952 27.7892 32.1457 27.7596 31.9122 27.823C31.6787 27.8863 31.4799 28.0374 31.3588 28.2437C31.2377 28.4499 31.204 28.6947 31.2651 28.9252C31.3261 29.1556 31.4769 29.3532 31.685 29.4752C32.0034 29.6057 34.21 31.0425 34.5406 30.9559C34.7415 30.952 34.9356 30.8841 35.0939 30.7624C35.2521 30.6406 35.3659 30.4716 35.418 30.2809C35.4701 30.0901 35.4577 29.8878 35.3827 29.7045C35.3078 29.5213 35.1743 29.3669 35.0024 29.2646ZM32.569 34.4198L29.8979 33.7162C29.6617 33.654 29.4101 33.6866 29.1984 33.8067C28.9867 33.9269 28.8322 34.1248 28.7689 34.357C28.7056 34.5891 28.7388 34.8365 28.861 35.0446C28.9832 35.2527 29.1846 35.4046 29.4207 35.4668C29.4938 35.4747 32.3599 36.272 32.3313 36.2013C32.5526 36.1972 32.765 36.1152 32.9299 35.9702C33.0949 35.8252 33.2014 35.6268 33.2302 35.4111C33.259 35.1954 33.2081 34.9768 33.0867 34.7948C32.9654 34.6129 32.7817 34.4798 32.569 34.4198ZM31.5769 40.0184H28.8112C28.569 40.0217 28.3379 40.1187 28.1678 40.2883C27.9977 40.4579 27.9023 40.6865 27.9023 40.9246C27.9024 41.1628 27.9977 41.3914 28.1678 41.561C28.3379 41.7305 28.5691 41.8275 28.8113 41.8309H31.5769C31.8191 41.8275 32.0503 41.7305 32.2204 41.5609C32.3904 41.3914 32.4858 41.1628 32.4858 40.9246C32.4858 40.6865 32.3904 40.4579 32.2204 40.2883C32.0503 40.1187 31.8191 40.0217 31.5769 40.0184Z" fill="#4F5D75"/>
</g>
</g>
</g>
<defs>
<filter id="filter0_d_340_116" x="0" y="0" width="108" height="108" filterUnits="userSpaceOnUse" color-interpolation-filters="sRGB">
<feFlood flood-opacity="0" result="BackgroundImageFix"/>
<feColorMatrix in="SourceAlpha" type="matrix" values="0 0 0 0 0 0 0 0 0 0 0 0 0 0 0 0 0 0 127 0" result="hardAlpha"/>
<feOffset dy="4"/>
<feGaussianBlur stdDeviation="2"/>
<feComposite in2="hardAlpha" operator="out"/>
<feColorMatrix type="matrix" values="0 0 0 0 0 0 0 0 0 0 0 0 0 0 0 0 0 0 0.25 0"/>
<feBlend mode="normal" in2="BackgroundImageFix" result="effect1_dropShadow_340_116"/>
<feBlend mode="normal" in="SourceGraphic" in2="effect1_dropShadow_340_116" result="shape"/>
</filter>
<filter id="filter1_d_340_116" x="31.2656" y="21.9216" width="44.875" height="62.3467" filterUnits="userSpaceOnUse" color-interpolation-filters="sRGB">
<feFlood flood-opacity="0" result="BackgroundImageFix"/>
<feColorMatrix in="SourceAlpha" type="matrix" values="0 0 0 0 0 0 0 0 0 0 0 0 0 0 0 0 0 0 127 0" result="hardAlpha"/>
<feOffset dy="4"/>
<feGaussianBlur stdDeviation="2"/>
<feComposite in2="hardAlpha" operator="out"/>
<feColorMatrix type="matrix" values="0 0 0 0 0 0 0 0 0 0 0 0 0 0 0 0 0 0 0.25 0"/>
<feBlend mode="normal" in2="BackgroundImageFix" result="effect1_dropShadow_340_116"/>
<feBlend mode="normal" in="SourceGraphic" in2="effect1_dropShadow_340_116" result="shape"/>
</filter>
<filter id="filter2_d_340_116" x="23.9023" y="27.7837" width="59.5977" height="32.9065" filterUnits="userSpaceOnUse" color-interpolation-filters="sRGB">
<feFlood flood-opacity="0" result="BackgroundImageFix"/>
<feColorMatrix in="SourceAlpha" type="matrix" values="0 0 0 0 0 0 0 0 0 0 0 0 0 0 0 0 0 0 127 0" result="hardAlpha"/>
<feOffset dy="4"/>
<feGaussianBlur stdDeviation="2"/>
<feComposite in2="hardAlpha" operator="out"/>
<feColorMatrix type="matrix" values="0 0 0 0 0 0 0 0 0 0 0 0 0 0 0 0 0 0 0.25 0"/>
<feBlend mode="normal" in2="BackgroundImageFix" result="effect1_dropShadow_340_116"/>
<feBlend mode="normal" in="SourceGraphic" in2="effect1_dropShadow_340_116" result="shape"/>
</filter>
<clipPath id="clip0_340_116">
<rect width="59" height="58" fill="white" transform="translate(24.2031 20.095)"/>
</clipPath>
</defs>
</svg>
