<svg width="1085" height="1105" viewBox="0 0 1085 1105" fill="none" xmlns="http://www.w3.org/2000/svg">
<g clip-path="url(#clip0_244_219)">
<mask id="mask0_244_219" style="mask-type:luminance" maskUnits="userSpaceOnUse" x="0" y="0" width="1089" height="1105">
<path d="M0.468762 0L0.46875 1105H1089V1.30021e-05L0.468762 0Z" fill="white"/>
</mask>
<g mask="url(#mask0_244_219)">
<path d="M1059.33 118.127C1059.33 158.022 1018.7 229.555 944.925 319.561C798.195 498.59 565.348 694.068 425.892 755.312C380.485 775.259 348.587 779.203 333.641 766.736C327.105 761.277 323.781 752.804 323.781 741.545C323.781 701.652 364.41 630.118 438.188 540.114C584.917 361.082 817.764 165.604 957.232 104.35C1002.64 84.4149 1034.53 80.4585 1049.48 92.9256C1056.02 98.3831 1059.34 106.856 1059.34 118.114L1059.33 118.127ZM325.518 741.56C325.518 752.106 328.584 760.006 334.631 765.044C349.088 777.102 380.442 773.07 425.294 753.365C564.561 692.199 797.111 496.95 943.689 318.11C1016.08 229.784 1057.59 156.89 1057.59 118.127C1057.59 107.581 1054.53 99.6807 1048.48 94.6429C1034.02 82.5831 1002.67 86.6157 957.827 106.321C818.563 167.487 586.003 362.751 439.423 541.59C367.039 629.914 325.518 702.797 325.518 741.572V741.56Z" fill="#F5F5F5" fill-opacity="0.05"/>
<path d="M1064.21 126.052C1064.21 146.407 1053.88 174.61 1033.5 209.862C1012.49 246.219 981.804 288.304 942.307 334.927C789.455 515.357 550.742 707.53 410.188 763.312C365.91 780.893 334.664 783.413 319.822 770.614C313.116 764.826 309.707 756.036 309.707 744.473C309.707 724.116 320.035 695.914 340.412 660.663C361.429 624.305 392.112 582.222 431.609 535.597C584.459 355.167 823.174 162.996 963.738 107.199C1008.02 89.6307 1039.25 87.0991 1054.09 99.897C1060.8 105.685 1064.21 114.476 1064.21 126.04V126.052ZM311.498 744.473C311.498 755.31 314.649 763.516 320.866 768.884C335.217 781.262 365.91 778.628 409.626 761.277C549.965 705.582 788.371 513.627 941.06 333.401C1018.19 242.353 1062.43 166.774 1062.43 126.052C1062.43 115.214 1059.28 106.996 1053.06 101.64C1038.71 89.2618 1008.02 91.8951 964.312 109.234C823.961 164.942 585.557 356.885 432.877 537.123C355.743 628.171 311.507 703.751 311.507 744.473H311.498Z" fill="#F5F5F5" fill-opacity="0.05"/>
<path d="M1068.69 134.728C1068.69 178.147 1021.44 257.008 939.06 351.071C780.099 532.582 535.721 720.848 394.314 770.755C350.664 786.159 320.961 787.228 306.056 773.909C299.167 767.764 295.676 758.617 295.676 746.724C295.676 703.305 342.926 624.443 425.307 530.381C584.268 348.87 828.646 160.604 970.062 110.684C1013.71 95.2785 1043.41 94.2227 1058.32 107.529C1065.21 113.674 1068.7 122.821 1068.7 134.715L1068.69 134.728ZM297.507 746.71C297.507 757.881 300.755 766.442 307.154 772.154C321.377 784.85 351.335 783.641 393.804 768.656C534.975 718.825 779.012 530.788 937.803 349.481C1019.82 255.825 1066.87 177.549 1066.87 134.728C1066.87 123.558 1063.62 114.997 1057.22 109.285C1043 96.5888 1013.04 97.7975 970.584 112.783C829.401 162.614 585.364 350.664 426.573 531.959C344.553 625.615 297.507 703.89 297.507 746.71Z" fill="#F5F5F5" fill-opacity="0.05"/>
<path d="M1072.75 144.155C1072.75 189.851 1022.59 271.447 935.142 368.003C770.082 550.253 520.285 734.002 378.294 777.613C336.017 790.601 307.091 790.258 292.346 776.581C285.276 770.029 281.699 760.501 281.699 748.251C281.699 702.556 331.855 620.958 419.303 524.402C584.354 342.153 834.162 158.403 976.162 114.794C1018.44 101.805 1047.36 102.149 1062.1 115.824C1069.17 122.376 1072.75 131.904 1072.75 144.155ZM283.582 748.251C283.582 759.777 286.927 768.707 293.506 774.814C307.568 787.854 336.73 788.069 377.836 775.436C519.571 731.903 769.007 548.383 933.876 366.349C1020.94 270.212 1070.87 189.228 1070.87 144.155C1070.87 132.63 1067.53 123.699 1060.95 117.593C1046.89 104.553 1017.73 104.337 976.632 116.969C834.885 160.502 585.44 344.022 420.581 526.056C333.515 622.194 283.582 703.178 283.582 748.251Z" fill="#F5F5F5" fill-opacity="0.05"/>
<path d="M1076.36 154.332C1076.36 202.484 1023.21 286.815 930.542 385.712C759.435 568.342 504.453 746.928 362.165 783.808C321.357 794.38 293.293 792.636 278.739 778.616C271.49 771.634 267.816 761.672 267.816 749.027C267.816 700.888 320.962 616.546 413.629 517.647C584.739 335.017 839.719 156.432 982.018 119.552C1022.81 108.98 1050.88 110.723 1065.43 124.742C1072.68 131.726 1076.36 141.687 1076.36 154.332ZM269.744 749.027C269.744 760.946 273.181 770.297 279.954 776.823C293.825 790.194 322.113 791.833 361.759 781.555C503.782 744.74 758.36 566.397 929.267 383.994C1021.52 285.531 1074.43 201.822 1074.43 154.332C1074.43 142.412 1070.99 133.062 1064.22 126.536C1050.35 113.166 1022.06 111.537 982.422 121.803C840.401 158.62 585.814 336.964 414.907 519.376C322.656 617.842 269.744 701.55 269.744 749.039V749.027Z" fill="#F5F5F5" fill-opacity="0.05"/>
<path d="M1088.74 206.368C1088.74 257.14 1032.52 344.243 934.489 445.33C757.377 627.961 497.507 800.719 355.198 830.424C315.977 838.616 288.828 835.473 274.508 821.099C267.076 813.631 263.309 803.211 263.309 790.147C263.309 739.376 319.533 652.282 417.564 551.186C594.679 368.555 854.546 195.796 996.867 166.079C1036.09 157.886 1063.23 161.028 1077.55 175.404C1084.98 182.871 1088.74 193.29 1088.74 206.355V206.368ZM265.288 790.147C265.288 802.487 268.824 812.294 275.786 819.291C289.638 833.197 316.233 836.16 354.858 828.096C496.858 798.44 756.3 625.938 933.19 443.537C1030.79 342.897 1086.77 256.453 1086.77 206.368C1086.77 194.028 1083.23 184.22 1076.27 177.223C1062.43 163.318 1035.82 160.354 997.207 168.42C855.195 198.074 595.754 370.59 418.863 552.979C321.267 653.619 265.288 740.062 265.288 790.147Z" fill="#F5F5F5" fill-opacity="0.05"/>
<path d="M1082.09 176.989C1082.09 230.598 1022.71 320.462 919.15 423.559C736.096 605.794 471.639 772.026 329.637 794.124C292.089 799.964 265.93 795.461 251.898 780.729C244.287 772.738 240.422 761.823 240.422 748.301C240.422 694.693 299.807 604.828 403.363 501.732C586.419 319.497 850.874 153.264 992.888 131.166C1030.44 125.327 1056.58 129.831 1070.63 144.562C1078.24 152.551 1082.1 163.466 1082.1 176.989H1082.09ZM242.453 748.301C242.453 761.099 246.084 771.39 253.239 778.895C266.825 793.144 292.439 797.458 329.382 791.708C471.065 769.66 735.052 603.669 917.862 421.689C969.976 369.797 1010.74 321.57 1039.02 278.33C1065.88 237.251 1080.07 202.203 1080.07 176.977C1080.07 164.179 1076.44 153.887 1069.29 146.381C1055.71 132.133 1030.1 127.821 993.152 133.571C851.459 155.617 587.473 321.608 404.662 503.601C352.549 555.494 311.783 603.721 283.507 646.96C256.646 688.039 242.453 723.087 242.453 748.315V748.301Z" fill="#F5F5F5" fill-opacity="0.05"/>
<path d="M1084.18 189.469C1084.18 216.655 1069.01 253.701 1040.32 296.609C1010.34 341.429 967.283 390.915 912.325 443.697C723.416 625.118 454.702 784.124 313.328 798.144C277.535 801.693 252.429 795.842 238.719 780.753C230.935 772.192 226.996 760.756 226.996 746.748C226.996 719.564 242.168 682.519 270.86 639.608C300.839 594.791 343.893 545.302 398.851 492.535C587.761 311.113 856.475 152.106 997.858 138.087C1033.65 134.537 1058.75 140.389 1072.46 155.477C1080.24 164.039 1084.18 175.475 1084.18 189.482V189.469ZM229.072 746.748C229.072 760.03 232.788 770.857 240.122 778.921C253.388 793.513 277.961 799.15 313.146 795.664C454.168 781.682 722.374 622.917 911.017 441.764C965.845 389.109 1008.8 339.749 1038.69 295.071C1067.09 252.605 1082.1 216.095 1082.1 189.482C1082.1 176.2 1078.39 165.375 1071.05 157.309C1057.79 142.717 1033.22 137.082 998.03 140.567C856.997 154.548 588.793 313.314 400.148 494.468C345.32 547.122 302.363 596.483 272.478 641.161C244.074 683.624 229.061 720.136 229.061 746.748H229.072Z" fill="#F5F5F5" fill-opacity="0.05"/>
<path d="M1085.71 202.687C1085.71 231.387 1069.68 269.985 1039.38 314.318C1008.19 359.951 961.612 411.917 904.696 464.598C710.027 644.774 437.425 795.804 297.01 801.287C263.048 802.609 239.062 795.461 225.721 780.017C217.79 770.844 213.766 758.835 213.766 744.333C213.766 715.631 229.788 677.034 260.088 632.7C291.282 587.068 337.861 535.1 394.775 482.422C589.446 302.245 862.057 151.216 1002.47 145.733C1036.42 144.41 1060.41 151.559 1073.76 167.003C1081.69 176.175 1085.72 188.185 1085.72 202.687H1085.71ZM215.905 744.345C215.905 758.135 219.706 769.521 227.201 778.183C240.115 793.119 263.58 800.04 296.935 798.729C436.967 793.272 709.014 642.472 903.385 462.575C1016.21 358.158 1083.57 260.989 1083.57 202.687C1083.57 188.897 1079.77 177.511 1072.27 168.848C1059.36 153.913 1035.89 146.992 1002.54 148.303C862.504 153.773 590.445 304.562 396.086 484.457C283.264 588.876 215.905 686.028 215.905 744.345Z" fill="#F5F5F5" fill-opacity="0.05"/>
<path d="M1086.64 216.655C1086.64 279.296 1015.46 380.102 896.239 486.314C695.939 664.77 419.814 807.088 280.73 803.563C214.657 801.885 200.785 768.669 200.785 741.101C200.785 678.459 271.956 577.655 391.186 471.443C591.487 292.984 867.611 150.668 1006.71 154.192C1072.78 155.871 1086.64 189.087 1086.64 216.655ZM202.978 741.101C202.978 778.959 229.882 799.658 280.772 800.943C419.441 804.466 694.949 662.381 894.919 484.215C1013.58 378.485 1084.44 278.47 1084.44 216.655C1084.44 178.796 1057.53 158.11 1006.64 156.813C867.963 153.289 592.455 295.376 392.483 473.542C273.82 579.269 202.968 679.287 202.968 741.101H202.978Z" fill="#F5F5F5" fill-opacity="0.05"/>
<path d="M1086.97 231.348C1086.97 297.832 1012.2 401.55 886.945 508.818C681.138 685.074 401.926 817.901 264.535 804.887C201.359 798.908 188.094 764.66 188.094 736.992C188.094 670.508 262.863 566.789 388.119 459.521C593.923 283.251 873.147 150.439 1010.54 163.453C1073.71 169.432 1086.97 203.679 1086.97 231.348ZM190.351 736.992C190.351 775.055 216.062 797.597 264.715 802.202C401.65 815.166 680.191 682.582 885.636 506.629C1010.29 399.87 1084.71 296.954 1084.71 231.348C1084.71 193.298 1059 170.743 1010.35 166.138C873.402 153.174 594.861 285.757 389.418 461.71C264.76 568.469 190.34 671.386 190.34 736.992H190.351Z" fill="#F5F5F5" fill-opacity="0.05"/>
<path d="M1086.66 246.754C1086.66 317.41 1008.2 424.091 876.781 532.123C665.619 705.696 383.766 828.204 248.461 805.229C200.872 797.151 175.715 771.835 175.715 732.029C175.715 661.375 254.178 554.692 385.597 446.674C596.747 273.101 878.621 150.592 1013.93 173.567C1061.51 181.645 1086.66 206.961 1086.66 246.766V246.754ZM178.036 732.029C178.036 770.271 202.501 794.633 248.792 802.496C383.596 825.381 664.735 703.076 875.482 529.847C940.744 476.199 994.433 421.446 1030.75 371.501C1065.82 323.262 1084.36 280.122 1084.36 246.754C1084.36 208.513 1059.9 184.151 1013.62 176.289C878.803 153.403 597.673 275.709 386.929 448.938C321.667 502.584 267.976 557.337 231.662 607.282C196.592 655.524 178.046 698.661 178.046 732.017L178.036 732.029Z" fill="#F5F5F5" fill-opacity="0.05"/>
<path d="M1085.69 262.82C1085.69 298.951 1066 344.633 1028.73 394.921C990.431 446.595 934.068 502.354 865.718 556.168C649.395 726.508 365.348 837.912 232.545 804.492C187.5 793.156 163.695 766.073 163.695 726.177C163.695 690.048 183.391 644.367 220.664 594.076C258.959 542.401 315.322 486.643 383.672 432.831C599.995 262.491 884.042 151.088 1016.86 184.507C1061.89 195.842 1085.69 222.926 1085.69 262.82ZM166.059 726.177C166.059 764.57 189.215 790.702 233.025 801.719C365.296 835.011 648.532 723.787 864.41 553.802C932.589 500.116 988.792 444.523 1026.95 393.04C1063.83 343.272 1083.32 298.237 1083.32 262.808C1083.32 224.415 1060.17 198.297 1016.36 187.268C884.083 153.976 600.848 265.186 384.971 435.186C316.801 488.869 260.589 544.462 222.442 595.948C185.563 645.713 166.069 690.748 166.069 726.165L166.059 726.177Z" fill="#F5F5F5" fill-opacity="0.05"/>
<path d="M1084.04 279.537C1084.04 317.945 1063.34 365.663 1024.19 417.541C983.987 470.806 925.037 527.329 853.728 581.013C746.552 661.68 621.329 729.18 501.109 771.047C380.783 812.952 279.813 824.186 216.818 802.673C174.435 788.197 152.035 759.434 152.035 719.474C152.035 679.516 172.732 633.35 211.889 581.472C252.089 528.207 311.04 471.684 382.349 418.012C489.527 337.345 614.76 269.845 734.979 227.978C855.303 186.073 956.276 174.84 1019.27 196.352C1061.64 210.829 1084.04 239.591 1084.04 279.551V279.537ZM154.473 719.474C154.473 757.995 176.266 785.793 217.489 799.874C346.799 844.031 631.633 744.752 852.431 578.545C923.558 525.013 982.327 468.655 1022.38 415.594C1061.12 364.262 1081.61 317.218 1081.61 279.537C1081.61 241.856 1059.81 213.22 1018.6 199.138C889.287 154.981 604.444 254.259 383.648 420.468C312.518 474.001 253.75 530.355 213.699 583.417C174.957 634.748 154.473 681.793 154.473 719.474Z" fill="#F5F5F5" fill-opacity="0.05"/>
<path d="M1081.7 296.85C1081.7 337.751 1059.97 387.644 1018.87 441.139C976.684 496.031 915.116 553.241 840.804 606.581C731.328 685.15 604.572 748.516 483.872 785.002C363.057 821.526 262.715 826.729 201.339 799.67C161.734 782.203 140.793 751.861 140.793 711.904C140.793 671.947 162.522 621.109 203.628 567.615C245.799 512.722 307.376 455.513 381.688 402.173C491.167 323.604 617.923 260.238 738.62 223.753C859.435 187.229 959.777 182.026 1021.15 209.085C1060.76 226.552 1081.69 256.892 1081.69 296.85H1081.7ZM143.306 711.916C143.306 750.513 163.672 779.889 202.212 796.885C328.117 852.4 614.014 765.881 839.517 604.038C987.352 497.927 1079.2 380.229 1079.2 296.864C1079.2 258.279 1058.83 228.892 1020.29 211.909C894.378 156.392 608.479 242.911 382.978 404.754C235.141 510.865 143.295 628.565 143.295 711.93L143.306 711.916Z" fill="#F5F5F5" fill-opacity="0.05"/>
<path d="M1078.63 314.701C1078.63 405.022 982.178 526.946 826.911 632.903C715.25 709.094 587.164 767.98 466.233 798.703C345.16 829.465 245.702 828.32 186.168 795.473C149.427 775.207 130.008 743.403 130.008 703.521C130.008 613.198 226.464 491.276 381.721 385.331C493.38 309.14 621.478 250.254 742.399 219.53C863.47 188.769 962.928 189.914 1022.46 222.761C1059.19 243.027 1078.61 274.817 1078.61 314.701H1078.63ZM132.584 703.509C132.584 742.665 150.981 772.663 187.254 792.674C309.303 860.01 595.691 787.139 825.643 630.232C902.778 577.603 966.814 519.987 1010.85 463.632C1053.51 409.019 1076.07 357.521 1076.07 314.701C1076.07 275.555 1057.68 245.559 1021.41 225.535C899.348 158.187 612.971 231.068 383.008 387.976C305.876 440.605 241.837 498.221 197.804 554.578C155.144 609.192 132.584 660.689 132.584 703.509Z" fill="#F5F5F5" fill-opacity="0.05"/>
<path d="M1074.84 333.019C1074.84 379.616 1050.95 434.334 1005.75 491.288C959.436 549.628 892.459 607.944 812.036 659.924C698.324 733.441 569.097 787.47 448.185 812.062C327.115 836.689 228.796 828.84 171.337 789.964C137.556 767.102 119.691 734.028 119.691 694.309C119.691 647.71 143.582 592.983 188.786 536.041C235.098 477.701 302.075 419.399 382.498 367.405C496.212 293.888 625.437 239.859 746.349 215.268C867.419 190.639 965.739 198.488 1023.2 237.365C1056.98 260.212 1074.83 293.289 1074.83 333.019H1074.84ZM122.342 694.309C122.342 733.391 139.27 764.648 172.647 787.229C290.375 866.879 576.645 808.524 810.791 657.151C890.969 605.323 957.724 547.212 1003.84 489.111C1048.57 432.768 1072.22 378.791 1072.22 333.019C1072.22 293.952 1055.29 262.68 1021.91 240.1C904.181 160.451 617.901 218.804 383.755 370.166C303.577 421.992 236.822 480.105 190.703 538.204C145.977 594.547 122.332 648.526 122.332 694.298L122.342 694.309Z" fill="#F5F5F5" fill-opacity="0.05"/>
<path d="M1070.31 351.734C1070.31 401.601 1045.27 459.025 997.916 517.813C949.442 577.972 879.677 636.708 796.167 687.644C680.525 758.187 550.405 806.987 429.781 825.064C308.975 843.165 212.073 828.282 156.935 783.133C125.731 757.588 109.91 724.36 109.91 684.336C109.91 634.469 134.94 577.045 182.306 518.258C230.779 458.098 300.544 399.362 384.055 348.426C499.697 277.883 629.817 229.084 750.45 211.007C871.256 192.904 968.158 207.789 1023.31 252.937C1054.5 278.47 1070.32 311.71 1070.32 351.72L1070.31 351.734ZM112.604 684.336C112.604 723.227 128.03 755.565 158.447 780.474C271.364 872.896 556.889 829.974 794.932 684.769C878.175 633.999 947.696 575.493 995.967 515.574C1042.83 457.412 1067.61 400.749 1067.61 351.734C1067.61 312.843 1052.18 280.505 1021.76 255.608C908.847 163.174 623.311 206.109 385.269 351.313C302.023 402.086 232.503 460.592 184.233 520.51C137.367 578.673 112.593 635.333 112.593 684.351L112.604 684.336Z" fill="#F5F5F5" fill-opacity="0.05"/>
<path d="M1065.03 370.75C1065.03 424.221 1038.81 484.584 989.206 545.291C938.488 607.372 865.879 666.412 779.26 716.026C661.851 783.273 531.06 826.45 410.989 837.633C290.729 848.827 195.539 826.552 142.956 774.901C114.871 747.321 100.637 713.253 100.637 673.65C100.637 620.182 126.859 559.819 176.46 499.112C227.18 437.031 299.777 377.991 386.408 328.377C503.816 261.13 634.607 217.94 754.676 206.771C874.939 195.576 970.138 217.864 1022.72 269.5C1050.81 297.082 1065.04 331.15 1065.04 370.738L1065.03 370.75ZM103.394 673.665C103.394 712.224 117.298 745.426 144.702 772.357C252.305 878.035 536.425 851.435 778.055 713.049C950.698 614.179 1062.26 479.814 1062.26 370.75C1062.26 332.191 1048.37 298.989 1020.95 272.069C913.351 166.38 629.219 192.981 387.6 331.365C214.958 430.238 103.405 564.603 103.405 673.665H103.394Z" fill="#F5F5F5" fill-opacity="0.05"/>
<path d="M1058.99 389.947C1058.99 447.398 1031.55 510.943 979.602 573.711C926.55 637.827 851.069 697.085 761.299 745.071C642.281 808.69 511.065 845.874 391.846 849.755C272.416 853.635 179.238 823.625 129.476 765.247C104.532 735.987 91.8945 701.373 91.8945 662.354C91.8945 604.904 119.341 541.36 171.274 478.591C224.325 414.475 299.808 355.219 389.579 307.233C508.606 243.6 639.812 206.427 759.031 202.547C878.462 198.667 971.639 228.677 1021.41 287.068C1046.34 316.329 1058.99 350.943 1058.99 389.947ZM94.7373 662.354C94.7373 700.417 107.098 734.22 131.467 762.817C233.247 882.221 515.26 872.87 760.136 741.966C849.588 694.146 924.774 635.144 977.58 571.319C1028.98 509.2 1056.14 446.482 1056.14 389.947C1056.14 351.885 1043.78 318.084 1019.41 289.499C917.628 170.082 635.605 179.432 390.739 310.337C301.287 358.158 226.103 417.16 173.297 480.983C121.896 543.102 94.7373 605.82 94.7373 662.354Z" fill="#F5F5F5" fill-opacity="0.05"/>
<path d="M1052.21 409.196C1052.21 471.047 1023.47 538.09 969.114 603.046C913.646 669.325 835.214 728.685 742.293 774.724C621.839 834.401 490.474 865.161 372.404 861.344C254.123 857.516 163.267 819.428 116.582 754.065C94.7891 723.558 83.7383 688.714 83.7383 650.498C83.7383 588.646 112.473 521.603 166.833 456.647C222.301 390.368 300.733 331.008 393.654 284.97C514.12 225.293 645.473 194.52 763.544 198.349C881.824 202.178 972.681 240.28 1019.36 305.629C1041.16 336.136 1052.2 370.98 1052.2 409.184L1052.21 409.196ZM86.6661 650.498C86.6661 687.862 97.4828 721.942 118.807 751.8C214.231 885.401 493.434 894.229 741.175 771.492C833.745 725.63 911.846 666.528 967.049 600.567C1020.85 536.271 1049.29 470.094 1049.29 409.184C1049.29 371.832 1038.47 337.752 1017.15 307.893C921.715 174.292 642.525 165.451 394.772 288.188C302.202 334.049 224.1 393.153 168.899 459.103C115.092 523.397 86.6554 589.574 86.6554 650.486L86.6661 650.498Z" fill="#F5F5F5" fill-opacity="0.05"/>
<path d="M1044.69 428.329C1044.69 461.583 1037.1 496.212 1022.12 531.259C1007.35 565.862 985.67 600.171 957.713 633.248C899.734 701.843 818.299 761.213 722.215 804.951C600.504 860.341 469.267 884.282 352.668 872.361C235.845 860.417 147.65 813.893 104.33 741.342C85.656 710.073 76.1914 675.382 76.1914 638.234C76.1914 604.979 83.7823 570.353 98.7616 535.291C113.539 500.688 135.215 466.379 163.172 433.302C221.153 364.709 302.586 305.338 398.671 261.601C520.381 206.211 651.628 182.269 768.217 194.189C885.04 206.134 973.235 252.669 1016.57 325.22C1035.24 356.489 1044.71 391.17 1044.71 428.329H1044.69ZM79.183 638.234C79.183 674.618 88.4666 708.611 106.768 739.269C195.303 887.526 470.918 915.487 721.149 801.617C816.851 758.07 897.922 698.966 955.606 630.716C983.339 597.907 1004.82 563.903 1019.45 529.643C1034.21 495.104 1041.69 461.024 1041.69 428.343C1041.69 391.958 1032.41 357.966 1014.11 327.319C925.56 179.063 649.946 151.088 399.715 264.959C304.013 308.506 222.941 367.608 165.259 435.86C137.525 468.669 116.041 502.674 101.413 536.933C86.6567 571.472 79.1723 605.566 79.1723 638.248L79.183 638.234Z" fill="#F5F5F5" fill-opacity="0.05"/>
<path d="M1036.46 447.17C1036.46 483.122 1028.49 520.216 1012.78 557.427C997.286 594.09 974.63 630.068 945.416 664.34C884.817 735.452 800.317 794.722 701.05 835.761C578.286 886.508 447.453 903.211 332.663 882.782C217.651 862.312 132.448 806.998 92.7579 727.031C77.1396 695.571 69.2188 661.476 69.2188 625.717C69.2188 589.957 77.1824 552.671 92.8963 515.458C108.387 478.797 131.043 442.819 160.256 408.547C220.855 337.435 305.356 278.165 404.622 237.123C527.387 186.378 658.22 169.675 773.009 190.106C888.023 210.575 973.224 265.889 1012.93 345.856C1028.54 377.316 1036.46 411.411 1036.46 447.17H1036.46ZM72.2956 625.705C72.2956 660.802 80.0674 694.26 95.4088 725.148C176.502 888.517 447.741 936.581 700.048 832.276C798.881 791.415 882.986 732.438 943.266 661.706C972.235 627.714 994.7 592.067 1010.03 555.761C1025.53 519.071 1033.38 482.535 1033.38 447.17C1033.38 411.803 1025.61 378.627 1010.27 347.739C929.183 184.368 657.932 136.293 405.634 240.597C306.804 281.458 222.697 340.435 162.417 411.167C133.448 445.159 110.985 480.805 95.6538 517.112C80.1633 553.802 72.3062 590.338 72.3062 625.717L72.2956 625.705Z" fill="#F5F5F5" fill-opacity="0.05"/>
<path d="M1027.5 465.463C1027.5 504.429 1019.13 544.259 1002.63 583.862C986.393 622.816 962.694 660.611 932.181 696.181C868.835 770.041 781.205 829.122 678.766 867.03C555.151 912.778 425.052 921.809 312.413 892.462C257.585 878.175 209.877 855.557 170.603 825.215C129.859 793.755 100.028 755.335 81.9288 711.015C69.2597 679.999 62.8398 647.038 62.8398 613.046C62.8398 574.08 71.2079 534.248 87.7099 494.645C103.946 455.693 127.645 417.896 158.157 382.328C221.503 308.48 309.134 249.399 411.573 211.477C535.188 165.731 665.298 156.698 777.926 186.047C832.756 200.333 880.462 222.965 919.737 253.294C960.481 284.754 990.312 323.186 1008.41 367.495C1021.08 398.51 1027.5 431.459 1027.5 465.449V465.463ZM66.0017 613.058C66.0017 646.466 72.3151 678.868 84.7715 709.372C102.615 753.059 132.073 790.982 172.317 822.061C211.272 852.147 258.626 874.588 313.084 888.785C425.201 918.007 554.735 908.999 677.83 863.443C779.79 825.712 866.983 766.939 929.977 693.496C960.235 658.221 983.733 620.767 999.798 582.196C1016.08 543.128 1024.33 503.857 1024.33 465.475C1024.33 432.07 1018.01 399.667 1005.56 369.175C987.713 325.488 958.256 287.565 918.001 256.486C879.045 226.4 831.679 203.946 777.234 189.762C665.116 160.54 535.582 169.547 412.49 215.103C310.528 252.835 223.334 311.608 160.34 385.049C130.083 420.326 106.586 457.778 90.5205 496.351C74.2422 535.419 65.9911 574.69 65.9911 613.072L66.0017 613.058Z" fill="#F5F5F5" fill-opacity="0.05"/>
<path d="M1017.9 482.968C1017.9 525.304 1009.1 568.202 991.77 610.476C974.747 651.986 949.951 691.792 918.077 728.799C885.915 766.123 847.426 799.557 803.691 828.166C758.454 857.743 708.566 881.509 655.399 898.796C531.165 939.175 402.099 940.116 291.982 901.418C238.378 882.59 192.173 855.365 154.655 820.521C115.743 784.392 87.9129 741.583 71.9433 693.318C62.074 663.485 57.0703 632.28 57.0703 600.552C57.0703 558.215 65.8534 515.318 83.1964 473.033C100.22 431.521 125.015 391.715 156.891 354.708C189.054 317.384 227.54 283.952 271.277 255.341C316.512 225.763 366.4 201.999 419.57 184.711C543.803 144.332 672.867 143.391 782.996 182.09C836.6 200.931 882.806 228.142 920.323 262.986C959.234 299.129 987.064 341.923 1003.04 390.203C1012.9 420.021 1017.91 451.226 1017.91 482.954L1017.9 482.968ZM60.3068 600.552C60.3068 631.783 65.2359 662.52 74.9455 691.894C90.6916 739.51 118.18 781.758 156.625 817.468C193.823 852.007 239.667 879.015 292.877 897.703C402.429 936.198 530.867 935.256 654.536 895.057C707.458 877.858 757.112 854.208 802.125 824.77C845.607 796.336 883.859 763.108 915.809 726.026C947.418 689.336 972 649.887 988.854 608.77C1005.97 567.031 1014.65 524.707 1014.65 482.968C1014.65 451.737 1009.72 421.001 1000.01 391.639C984.255 344.022 956.775 301.774 918.32 266.064C881.122 231.513 835.28 204.518 782.067 185.818C672.518 147.322 544.08 148.263 420.411 188.464C367.487 205.663 317.832 229.312 272.819 258.75C229.34 287.182 191.087 320.412 159.137 357.495C127.528 394.185 102.946 433.634 86.0923 474.748C68.9728 516.49 60.2962 558.813 60.2962 600.564L60.3068 600.552Z" fill="#F5F5F5" fill-opacity="0.05"/>
<path d="M1007.66 499.365C1007.66 590.692 970.52 684.004 903.064 762.128C869.484 801.018 829.444 835.188 784.058 863.672C737.118 893.136 685.58 915.792 630.889 930.994C506.273 965.635 378.591 958.028 271.361 909.571C219.171 885.985 174.659 853.99 139.057 814.466C102.157 773.488 76.5096 726.191 62.8185 673.865C55.547 646.07 51.8633 617.345 51.8633 588.466C51.8633 497.139 89.0086 403.827 156.464 325.703C190.043 286.813 230.084 252.643 275.469 224.16C322.409 194.697 373.949 172.04 428.64 156.837C553.256 122.196 680.948 129.804 788.178 178.26C840.367 201.846 884.879 233.841 920.481 273.366C957.381 314.343 983.04 361.654 996.72 413.978C1003.99 441.761 1007.68 470.501 1007.68 499.365H1007.66ZM55.1851 588.466C55.1851 616.938 58.826 645.28 65.991 672.682C79.5014 724.345 104.85 771.058 141.325 811.565C176.607 850.734 220.747 882.462 272.53 905.856C379.156 954.034 506.155 961.589 630.133 927.126C684.548 912.001 735.821 889.471 782.515 860.161C827.613 831.854 867.398 797.914 900.753 759.279C967.56 681.92 1004.34 589.611 1004.34 499.377C1004.34 470.908 1000.71 442.575 993.538 415.175C980.026 363.512 954.679 316.785 918.203 276.293C882.921 237.123 838.782 205.395 786.987 181.988C680.362 133.811 553.362 126.255 429.384 160.717C374.972 175.843 323.697 198.373 277.002 227.684C231.905 255.989 192.119 289.931 158.764 328.566C91.9683 405.925 55.1745 498.232 55.1745 588.48L55.1851 588.466Z" fill="#F5F5F5" fill-opacity="0.05"/>
<path d="M996.88 514.251C996.88 614.025 957.924 714.105 887.191 796.045C852.109 836.677 810.45 871.649 763.373 899.993C714.654 929.317 661.465 950.688 605.262 963.536C480.507 992.046 354.561 975.457 250.61 916.835C200.018 888.302 157.389 851.345 123.907 806.986C89.2101 761.009 65.905 709.067 54.6519 652.584C49.7119 627.789 47.1992 602.398 47.1992 577.094C47.1992 477.306 86.1545 377.226 156.889 295.286C191.969 254.654 233.628 219.683 280.707 191.339C329.424 162.016 382.615 140.644 438.815 127.795C563.571 99.2862 689.517 115.875 793.468 174.496C844.06 203.03 886.69 239.998 920.172 284.359C954.869 330.336 978.173 382.29 989.438 438.761C994.378 463.542 996.88 488.947 996.88 514.251ZM50.6063 577.094C50.6063 602.081 53.076 627.167 57.9628 651.643C69.0884 707.439 92.1272 758.783 126.44 804.251C159.615 848.202 201.881 884.842 252.067 913.147C355.369 971.411 480.571 987.887 604.622 959.531C660.518 946.758 713.409 925.5 761.84 896.354C808.608 868.201 849.992 833.473 884.817 793.118C954.879 711.956 993.461 612.918 993.461 514.251C993.461 489.264 990.993 464.19 986.105 439.714C974.979 383.906 951.94 332.56 917.628 287.094C884.453 243.129 842.187 206.491 792.001 178.185C688.697 119.921 563.495 103.446 439.444 131.79C383.55 144.562 330.66 165.82 282.229 194.965C235.46 223.118 194.077 257.849 159.253 298.201C89.1888 379.363 50.6063 478.413 50.6063 577.082V577.094Z" fill="#F5F5F5" fill-opacity="0.05"/>
<path d="M985.619 527.201C985.619 636.516 944.726 744.243 870.478 830.52C795.632 917.498 691.936 976.411 578.501 996.436C515.525 1007.55 452.734 1006.46 391.868 993.215C333.069 980.419 278.527 956.857 229.766 923.184C180.974 889.497 140.433 847.389 109.249 798.03C76.9478 746.888 56.1661 690.176 47.4893 629.455C44.5296 608.77 43.0391 587.716 43.0391 566.865C43.0391 457.551 83.9321 349.824 158.18 263.546C233.035 176.569 336.719 117.643 450.147 97.6321C513.12 86.5135 575.923 87.6076 636.777 100.851C695.579 113.648 750.121 137.209 798.88 170.883C847.673 204.569 888.214 246.678 919.398 296.036C951.699 347.178 972.48 403.891 981.157 464.611C984.116 485.282 985.607 506.351 985.607 527.187L985.619 527.201ZM46.5418 566.865C46.5418 587.489 48.0218 608.299 50.9495 628.757C59.5304 688.803 80.0887 744.917 112.049 795.51C142.945 844.412 183.146 886.151 231.523 919.559C279.933 952.979 334.09 976.373 392.497 989.094C452.98 1002.26 515.388 1003.34 577.988 992.288C690.703 972.403 793.707 913.885 868.04 827.518C941.605 742.042 982.116 635.385 982.116 527.201C982.116 506.592 980.635 485.767 977.708 465.324C969.126 405.266 948.569 349.161 916.608 298.556C885.712 249.643 845.511 207.915 797.135 174.508C748.725 141.089 694.568 117.681 636.161 104.972C575.678 91.8057 513.269 90.7243 450.67 101.767C337.966 121.65 234.962 180.169 160.629 266.549C87.0621 352.039 46.5524 458.696 46.5524 566.865H46.5418Z" fill="#F5F5F5" fill-opacity="0.05"/>
<path d="M973.97 537.672C973.97 657.799 930.991 774.189 852.964 865.416C774.489 957.15 667.108 1015.45 550.616 1029.59C487.846 1037.21 425.787 1031.86 366.157 1013.74C308.561 996.218 255.637 967.545 208.878 928.527C162.098 889.485 123.834 842.06 95.1529 787.546C65.4388 731.089 47.3614 669.479 41.4206 604.433C40.0259 589.129 39.3125 573.597 39.3125 558.278C39.3125 438.162 82.2921 321.761 160.33 230.534C238.805 138.786 346.184 80.4838 462.676 66.3499C525.449 58.7297 587.505 64.0728 647.138 82.2009C704.734 99.7186 757.656 128.393 804.417 167.41C851.197 206.452 889.46 253.878 918.141 308.39C947.855 364.849 965.931 426.459 971.873 491.517C973.269 506.821 973.982 522.341 973.982 537.672H973.97ZM42.9112 558.278C42.9112 573.443 43.6137 588.811 44.9977 603.962C50.8746 668.36 68.7819 729.359 98.1979 785.258C126.624 839.273 164.557 886.291 210.943 925.004C257.352 963.728 309.869 992.186 367.052 1009.58C426.267 1027.59 487.91 1032.88 550.255 1025.32C665.949 1011.29 772.562 953.409 850.45 862.35C927.786 771.939 970.382 656.642 970.382 537.683C970.382 522.519 969.68 507.15 968.296 492C962.419 427.604 944.513 366.591 915.096 310.692C886.671 256.677 848.738 209.658 802.35 170.947C755.943 132.222 703.423 103.764 646.243 86.3736C587.028 68.36 525.385 63.0678 463.04 70.6244C347.356 84.6563 240.743 142.539 162.843 233.6C85.5074 324.011 42.9112 439.319 42.9112 558.278Z" fill="#F5F5F5" fill-opacity="0.05"/>
<path d="M962.068 545.012C962.068 677.403 916.833 803.679 834.695 900.604C752.314 997.809 641.123 1055.46 521.595 1062.96C459.174 1066.86 398.023 1057.07 339.84 1033.82C283.638 1011.37 232.546 977.379 188.001 932.8C143.446 888.212 107.674 835.279 81.6756 775.474C54.7615 713.547 39.5691 646.911 36.5136 577.438C36.1408 568.953 35.9492 560.366 35.9492 551.892C35.9492 419.501 81.186 293.214 163.323 196.288C245.705 99.0823 356.896 41.4283 476.424 33.9353C538.842 30.0297 599.996 39.8254 658.178 63.0676C714.381 85.5211 765.472 119.513 810.017 164.089C854.571 208.678 890.343 261.613 916.342 321.416C943.257 383.357 958.449 449.982 961.503 519.452C961.877 527.937 962.068 536.527 962.068 544.997V545.012ZM39.6436 551.892C39.6436 560.29 39.8351 568.801 40.1973 577.208C43.2207 646.045 58.2749 712.07 84.9441 773.439C110.708 832.733 146.182 885.21 190.365 929.417C234.558 973.638 285.246 1007.35 341.012 1029.64C398.757 1052.7 459.453 1062.43 521.403 1058.56C640.015 1051.13 750.365 993.916 832.097 897.474C913.531 801.388 958.373 676.22 958.373 545.023C958.373 536.64 958.182 528.117 957.821 519.708C954.797 450.859 939.742 384.834 913.075 323.465C887.31 264.169 851.836 211.693 807.654 167.486C763.459 123.266 712.772 89.5412 657.006 67.2656C599.261 44.2017 538.565 34.4696 476.615 38.3496C358.004 45.7792 247.653 102.988 165.921 199.43C84.4863 295.516 39.6436 420.684 39.6436 551.892Z" fill="#F5F5F5" fill-opacity="0.05"/>
<path d="M950.047 548.459C950.047 622.435 937.922 694.196 914.009 761.762C890.906 827.023 857.839 885.619 815.722 935.957C773.603 986.283 724.556 1025.8 669.952 1053.4C613.407 1081.98 553.351 1096.47 491.432 1096.47C429.512 1096.47 369.457 1081.98 312.923 1053.4C258.308 1025.8 209.271 986.283 167.154 935.957C125.036 885.631 91.9689 827.023 68.866 761.762C44.9543 694.196 32.8281 622.435 32.8281 548.459C32.8281 474.483 44.9543 402.708 68.866 335.144C91.9689 269.883 125.036 211.274 167.154 160.948C209.271 110.621 258.32 71.1082 312.923 43.5023C369.466 14.9297 429.524 0.439941 491.432 0.439941C553.342 0.439941 613.407 14.9297 669.952 43.5023C724.568 71.1082 773.603 110.621 815.722 160.948C857.839 211.274 890.906 269.883 914.009 335.144C937.922 402.708 950.047 474.471 950.047 548.459ZM36.6075 548.459C36.6075 621.824 48.638 693.001 72.3475 759.992C95.2585 824.707 128.049 882.832 169.826 932.751C211.602 982.67 260.235 1021.85 314.404 1049.23C370.48 1077.57 430.046 1091.94 491.444 1091.94C552.841 1091.94 612.408 1077.56 668.483 1049.23C722.64 1021.85 771.284 982.67 813.06 932.751C854.825 882.832 887.627 824.721 910.539 759.992C934.258 692.989 946.279 621.824 946.279 548.459C946.279 475.094 934.248 403.917 910.539 336.912C887.627 272.197 854.836 214.073 813.06 164.153C771.284 114.234 722.652 75.0519 668.483 47.6751C612.408 19.3314 552.841 4.9688 491.444 4.9688C430.046 4.9688 370.48 19.3442 314.404 47.6751C260.245 75.0519 211.602 114.234 169.826 164.153C128.049 214.073 95.2585 272.197 72.3475 336.912C48.6274 403.917 36.6075 475.094 36.6075 548.459Z" fill="#F5F5F5" fill-opacity="0.05"/>
</g>
</g>
<defs>
<clipPath id="clip0_244_219">
<rect width="1089" height="1105" fill="white"/>
</clipPath>
</defs>
</svg>
