<svg width="30" height="32" viewBox="0 0 30 32" fill="none" xmlns="http://www.w3.org/2000/svg">
<g clip-path="url(#clip0_201_784)">
<path d="M0.101562 26.4778C0.101562 28.7463 1.77745 30.5849 3.84468 30.5849H25.3879C27.4555 30.5849 29.1312 28.746 29.1312 26.4778V2.83986C29.1312 0.571259 27.4553 -1.26733 25.388 -1.26733H3.84479C1.77723 -1.26733 0.101562 0.571508 0.101562 2.83973V26.4778Z" fill="#563D7C"/>
<path d="M12.1383 12.8219V8.3112H15.7569C16.1017 8.3112 16.4339 8.34268 16.7539 8.40576C17.0739 8.46872 17.3571 8.5812 17.6033 8.74332C17.8493 8.90545 18.0463 9.13053 18.1941 9.41856C18.3417 9.70673 18.4157 10.0759 18.4157 10.5259C18.4157 11.3363 18.1941 11.9216 17.7509 12.2817C17.3079 12.6419 16.7417 12.8219 16.0523 12.8219H12.1383ZM8.27344 5.01587V24.3014H16.7909C17.5787 24.3014 18.3459 24.1934 19.0926 23.9773C19.8393 23.7611 20.504 23.4281 21.0866 22.9779C21.6691 22.5277 22.1328 21.9469 22.4774 21.2357C22.8221 20.5244 22.9944 19.6826 22.9944 18.7102C22.9944 17.5037 22.7277 16.4728 22.1944 15.6175C21.661 14.7621 20.8527 14.1634 19.7695 13.8213C20.5573 13.4072 21.1523 12.8759 21.5544 12.2277C21.9564 11.5794 22.1574 10.7692 22.1574 9.79669C22.1574 8.89636 22.022 8.14012 21.7512 7.52784C21.4804 6.91568 21.0988 6.42496 20.6065 6.05579C20.1142 5.68663 19.5234 5.42099 18.8341 5.25899C18.1449 5.09687 17.3817 5.01587 16.5447 5.01587H8.27344ZM12.1383 21.006V15.712H16.3477C17.1847 15.712 17.8576 15.9235 18.3664 16.3468C18.8751 16.77 19.1296 17.4767 19.1296 18.4671C19.1296 18.9714 19.0516 19.3854 18.8957 19.7096C18.7397 20.0337 18.5305 20.2904 18.2679 20.4794C18.0054 20.6685 17.7017 20.8035 17.3571 20.8846C17.0124 20.9655 16.6514 21.006 16.2739 21.006H12.1383Z" fill="white"/>
</g>
<defs>
<clipPath id="clip0_201_784">
<rect width="29.0296" height="32" fill="white" transform="translate(0.101562)"/>
</clipPath>
</defs>
</svg>
