<svg width="108" height="108" viewBox="0 0 108 108" fill="none" xmlns="http://www.w3.org/2000/svg">
<g filter="url(#filter0_d_340_122)">
<path d="M54 0C5.73611 0 4 1.73611 4 50C4 98.2639 5.73611 100 54 100C102.264 100 104 98.2639 104 50C104 1.73611 102.264 0 54 0Z" fill="white"/>
<g clip-path="url(#clip0_340_122)">
<path d="M76.4448 35.8629C74.2367 35.8409 72.11 36.665 70.5324 38.1538C68.9549 39.6427 68.0559 41.6744 68.0331 43.8019C68.0306 45.1175 68.3763 46.4119 69.0373 47.563C68.508 49.0159 67.5988 50.3127 66.3975 51.3281C66.2605 51.4274 66.3099 51.7162 66.4624 51.7072C68.3361 51.6817 70.1802 51.2525 71.8594 50.4509C73.2279 51.2957 74.8196 51.7435 76.4448 51.741C78.6301 51.741 80.7259 50.9045 82.2712 49.4157C83.8164 47.9268 84.6846 45.9075 84.6846 43.8019C84.6846 41.6963 83.8164 39.677 82.2712 38.1882C80.7259 36.6993 78.6301 35.8629 76.4448 35.8629ZM75.5868 44.7943H73.5269V42.8095H75.5868V44.7943ZM79.7067 44.7943H77.6468V42.8095H79.7067V44.7943ZM31.4702 51.741C33.0955 51.7435 34.6872 51.2957 36.0556 50.4509C37.7348 51.2525 39.5789 51.6817 41.4527 51.7072C41.6051 51.7162 41.6587 51.4254 41.5176 51.3281C40.3162 50.3127 39.407 49.0159 38.8777 47.563C39.5388 46.4119 39.8844 45.1175 39.882 43.8019C39.8591 41.6744 38.9601 39.6427 37.3826 38.1538C35.8051 36.665 33.6783 35.8409 31.4702 35.8629C29.2849 35.8629 27.1891 36.6993 25.6438 38.1882C24.0986 39.677 23.2305 41.6963 23.2305 43.8019C23.2305 45.9075 24.0986 47.9268 25.6438 49.4157C27.1891 50.9045 29.2849 51.741 31.4702 51.741ZM32.3282 40.8248H34.3881V42.8095H32.3282V40.8248ZM28.2083 40.8248H30.2682V42.8095H28.2083V40.8248ZM29.2383 44.7943C29.2383 45.1992 30.0406 45.7867 31.2982 45.7867C32.5558 45.7867 33.3581 45.1992 33.3581 44.7943H35.4181C35.4181 46.4645 33.6084 47.7714 31.2982 47.7714C28.988 47.7714 27.1783 46.4645 27.1783 44.7943H29.2383Z" fill="#4F5D75"/>
<path d="M53.9591 59.6801C56.5188 59.6801 58.5939 57.6807 58.5939 55.2144C58.5939 52.748 56.5188 50.7487 53.9591 50.7487C51.3993 50.7487 49.3242 52.748 49.3242 55.2144C49.3242 57.6807 51.3993 59.6801 53.9591 59.6801Z" fill="#4F5D75"/>
<g filter="url(#filter1_d_340_122)">
<path d="M59.1089 76.5506L59.148 76.4196C60.4685 72.3027 60.4685 67.8976 59.148 63.7806L59.1089 63.6496H59.4457C59.9712 63.6495 60.4878 63.7806 60.9452 64.03C61.4026 64.2793 61.7851 64.6386 62.0556 65.0727L67.3486 73.5734L70.4385 72.5811L65.2701 63.3331C64.6529 62.2287 63.7369 61.306 62.6193 60.6629C61.5017 60.0197 60.2242 59.6801 58.9225 59.6801H49.6414C48.184 59.68 46.7608 60.1054 45.5594 60.9003C44.358 61.6952 43.4348 62.8223 42.9116 64.1329L39.5395 72.5811L42.6294 73.5734L45.984 65.4925C46.2098 64.9484 46.5997 64.4821 47.1033 64.1536C47.6069 63.8251 48.2011 63.6496 48.8092 63.6496L48.8483 63.7806C50.1688 67.8976 50.1688 72.3027 48.8483 76.4196L48.8092 76.5506H37.4795L35.4196 79.5277H72.4985L70.4385 76.5506H59.1089ZM38.0656 62.8339L36.0984 61.521C35.1989 60.9161 34.1114 60.6266 33.0173 60.7007C31.9231 60.7747 30.8883 61.2078 30.0854 61.9278C29.6253 62.3405 29.0323 62.5886 28.4052 62.6307C27.7782 62.6727 27.1552 62.5063 26.6402 62.1591L24.676 60.8491L23.5039 62.4806L25.467 63.7915C26.3664 64.3973 27.4542 64.6876 28.5488 64.6139C29.6435 64.5402 30.6788 64.107 31.482 63.3866C31.9416 62.9736 32.5344 62.7251 33.1613 62.6826C33.7882 62.6402 34.4113 62.8064 34.9263 63.1534L36.8935 64.4654L38.0656 62.8339ZM79.7134 62.432C79.2288 62.6257 78.6966 62.6812 78.1802 62.5918C77.6638 62.5024 77.185 62.272 76.8006 61.9278C75.9972 61.2078 74.962 60.7748 73.8674 60.7012C72.7728 60.6275 71.6851 60.9175 70.7856 61.523L69.8525 62.1462L71.0246 63.7786L71.9588 63.1554C72.4738 62.8082 73.0968 62.6417 73.7238 62.6838C74.3509 62.7259 74.9439 62.974 75.404 63.3866C75.9685 63.903 76.6578 64.2754 77.4094 64.4702C78.161 64.6649 78.9511 64.6759 79.7082 64.5021V67.6192L84.8581 63.6496L79.7165 59.6801L79.7134 62.432ZM43.6594 29.5702C43.6912 31.845 44.5532 34.0364 46.094 35.7603C47.6349 37.4841 49.7564 38.6302 52.0866 38.9979C52.6932 39.0971 53.3225 41.8182 53.959 41.8182C54.5956 41.8182 55.2249 39.1011 55.8315 38.9979C58.1617 38.6302 60.2832 37.4841 61.824 35.7603C63.3649 34.0364 64.2269 31.845 64.2587 29.5702C64.2113 26.9834 63.0998 24.5206 61.1684 22.7231C59.237 20.9257 56.6439 19.9407 53.959 19.9848C51.2742 19.9407 48.6811 20.9257 46.7497 22.7231C44.8183 24.5206 43.7068 26.9834 43.6594 29.5702ZM59.4004 26.35L51.4562 34.0042L47.7792 30.4683L49.2356 29.0651L51.4531 31.1987L57.9419 24.9467L59.4004 26.35Z" fill="#4F5D75"/>
</g>
</g>
</g>
<defs>
<filter id="filter0_d_340_122" x="0" y="0" width="108" height="108" filterUnits="userSpaceOnUse" color-interpolation-filters="sRGB">
<feFlood flood-opacity="0" result="BackgroundImageFix"/>
<feColorMatrix in="SourceAlpha" type="matrix" values="0 0 0 0 0 0 0 0 0 0 0 0 0 0 0 0 0 0 127 0" result="hardAlpha"/>
<feOffset dy="4"/>
<feGaussianBlur stdDeviation="2"/>
<feComposite in2="hardAlpha" operator="out"/>
<feColorMatrix type="matrix" values="0 0 0 0 0 0 0 0 0 0 0 0 0 0 0 0 0 0 0.25 0"/>
<feBlend mode="normal" in2="BackgroundImageFix" result="effect1_dropShadow_340_122"/>
<feBlend mode="normal" in="SourceGraphic" in2="effect1_dropShadow_340_122" result="shape"/>
</filter>
<filter id="filter1_d_340_122" x="19.5039" y="19.9834" width="69.3555" height="67.5443" filterUnits="userSpaceOnUse" color-interpolation-filters="sRGB">
<feFlood flood-opacity="0" result="BackgroundImageFix"/>
<feColorMatrix in="SourceAlpha" type="matrix" values="0 0 0 0 0 0 0 0 0 0 0 0 0 0 0 0 0 0 127 0" result="hardAlpha"/>
<feOffset dy="4"/>
<feGaussianBlur stdDeviation="2"/>
<feComposite in2="hardAlpha" operator="out"/>
<feColorMatrix type="matrix" values="0 0 0 0 0 0 0 0 0 0 0 0 0 0 0 0 0 0 0.25 0"/>
<feBlend mode="normal" in2="BackgroundImageFix" result="effect1_dropShadow_340_122"/>
<feBlend mode="normal" in="SourceGraphic" in2="effect1_dropShadow_340_122" result="shape"/>
</filter>
<clipPath id="clip0_340_122">
<rect width="65.918" height="63.5125" fill="white" transform="translate(21 18)"/>
</clipPath>
</defs>
</svg>
