<svg width="108" height="108" viewBox="0 0 108 108" fill="none" xmlns="http://www.w3.org/2000/svg">
<g filter="url(#filter0_d_337_61)">
<path d="M54 0C5.73611 0 4 1.73611 4 50C4 98.2639 5.73611 100 54 100C102.264 100 104 98.2639 104 50C104 1.73611 102.264 0 54 0Z" fill="white"/>
<g clip-path="url(#clip0_337_61)">
<g filter="url(#filter1_d_337_61)">
<path d="M73.687 15.1393C69.1562 15.1444 64.8125 16.9465 61.6087 20.1503C58.405 23.354 56.6029 27.6978 56.5977 32.2286C56.5834 36.6416 58.2954 40.8854 61.3679 44.0532C61.2267 44.4642 61.1547 44.8958 61.1549 45.3303C61.1551 46.1023 61.3793 46.8576 61.8005 47.5046C62.2216 48.1516 62.8215 48.6625 63.5273 48.9752C64.2331 49.2878 65.0145 49.3889 65.7767 49.2661C66.5388 49.1433 67.249 48.8019 67.8208 48.2834C70.1652 49.1384 72.6685 49.4696 75.1546 49.2538C77.6407 49.0379 80.0494 48.2802 82.2113 47.0339C84.3732 45.7875 86.236 44.0829 87.6687 42.0396C89.1013 39.9964 90.0691 37.6642 90.504 35.2069C90.939 32.7496 90.8304 30.2269 90.1861 27.8161C89.5418 25.4052 88.3773 23.1647 86.7744 21.2521C85.1716 19.3394 83.1693 17.801 80.9083 16.745C78.6473 15.6889 76.1825 15.1408 73.687 15.1393Z" fill="#4F5D75"/>
</g>
<g filter="url(#filter2_d_337_61)">
<path d="M83.3678 32.2286C83.3674 31.8093 83.3373 31.3905 83.2778 30.9754C83.2523 30.7615 83.2926 30.545 83.3933 30.3546C83.4941 30.1643 83.6505 30.0092 83.8418 29.9101L84.5048 29.5444C84.6334 29.4768 84.7469 29.3836 84.8382 29.2706C84.9296 29.1576 84.9969 29.0271 85.036 28.8872C85.0752 28.7472 85.0853 28.6008 85.0659 28.4568C85.0464 28.3128 84.9978 28.1742 84.9229 28.0497L83.0876 25.0135C82.9279 24.7592 82.6768 24.5759 82.386 24.5012C82.0952 24.4266 81.7868 24.4664 81.5245 24.6125L80.8546 24.9827C80.6495 25.091 80.4178 25.1385 80.1867 25.1195C79.9556 25.1006 79.7347 25.0159 79.5501 24.8756C78.8896 24.3897 78.1703 23.9893 77.4094 23.684C77.1963 23.608 77.011 23.4694 76.8779 23.2865C76.7448 23.1036 76.6699 22.8847 76.6631 22.6586V21.9295C76.6562 21.6336 76.5326 21.3525 76.3191 21.1476C76.1056 20.9427 75.8197 20.8305 75.5238 20.8357H71.8485C71.5526 20.8305 71.2667 20.9427 71.0533 21.1476C70.8398 21.3525 70.7161 21.6336 70.7092 21.9295V22.6586C70.7024 22.8847 70.6276 23.1036 70.4944 23.2865C70.3613 23.4694 70.1761 23.608 69.963 23.684C69.2022 23.9882 68.4829 24.3875 67.8223 24.8722C67.6376 25.0125 67.4168 25.0971 67.1857 25.1161C66.9546 25.1351 66.7228 25.0876 66.5178 24.9793L65.8479 24.6091C65.5856 24.463 65.2772 24.4232 64.9864 24.4978C64.6955 24.5724 64.4444 24.7558 64.2848 25.0101L62.4494 28.0474C62.3746 28.172 62.3259 28.3105 62.3065 28.4545C62.287 28.5985 62.2972 28.745 62.3363 28.8849C62.3755 29.0248 62.4428 29.1553 62.5341 29.2683C62.6255 29.3813 62.7389 29.4745 62.8675 29.5422L63.5306 29.9079C63.7218 30.007 63.8782 30.162 63.979 30.3524C64.0798 30.5427 64.1201 30.7593 64.0945 30.9731C63.9743 31.8042 63.9743 32.6484 64.0945 33.4795C64.1201 33.6934 64.0798 33.9099 63.979 34.1003C63.8782 34.2906 63.7218 34.4457 63.5306 34.5448L62.8675 34.9105C62.7389 34.9781 62.6255 35.0713 62.5341 35.1843C62.4428 35.2973 62.3755 35.4278 62.3363 35.5677C62.2972 35.7077 62.287 35.8541 62.3065 35.9981C62.3259 36.1421 62.3746 36.2807 62.4494 36.4052L64.2848 39.4425C64.4444 39.6968 64.6955 39.8802 64.9864 39.9548C65.2772 40.0294 65.5856 39.9896 65.8479 39.8436L66.5178 39.4733C66.7228 39.365 66.9546 39.3175 67.1857 39.3365C67.4168 39.3555 67.6376 39.4401 67.8223 39.5804C68.4813 40.0664 69.199 40.4672 69.9584 40.7732C70.1715 40.8492 70.3568 40.9877 70.4899 41.1707C70.623 41.3536 70.6979 41.5724 70.7047 41.7986V42.5323C70.7115 42.8281 70.8352 43.1092 71.0487 43.3141C71.2622 43.5191 71.5481 43.6312 71.8439 43.626H75.5147C75.8106 43.6312 76.0965 43.5191 76.31 43.3141C76.5234 43.1092 76.6471 42.8281 76.654 42.5323V41.7986C76.6608 41.5724 76.7357 41.3536 76.8688 41.1707C77.0019 40.9877 77.1871 40.8492 77.4002 40.7732C78.161 40.4689 78.8803 40.0697 79.541 39.585C79.7256 39.4447 79.9465 39.36 80.1776 39.3411C80.4087 39.3221 80.6404 39.3696 80.8454 39.4779L81.5153 39.8481C81.7777 39.9942 82.086 40.034 82.3769 39.9594C82.6677 39.8847 82.9188 39.7014 83.0784 39.4471L84.9138 36.4098C84.9887 36.2852 85.0373 36.1467 85.0568 36.0027C85.0762 35.8587 85.066 35.7122 85.0269 35.5723C84.9878 35.4323 84.9205 35.3019 84.8291 35.1889C84.7378 35.0758 84.6243 34.9827 84.4957 34.915L83.8326 34.5493C83.6414 34.4502 83.485 34.2952 83.3842 34.1048C83.2835 33.9145 83.2432 33.6979 83.2687 33.4841C83.3313 33.0685 83.3645 32.6489 83.3678 32.2286Z" fill="white"/>
</g>
<path d="M73.6867 36.2161C75.8889 36.2161 77.6742 34.4308 77.6742 32.2286C77.6742 30.0264 75.8889 28.2411 73.6867 28.2411C71.4845 28.2411 69.6992 30.0264 69.6992 32.2286C69.6992 34.4308 71.4845 36.2161 73.6867 36.2161Z" fill="#4F5D75"/>
<path d="M61.1522 51.0268C61.1522 50.083 60.3871 49.3179 59.4433 49.3179C58.4995 49.3179 57.7344 50.083 57.7344 51.0268C57.7344 51.9706 58.4995 52.7357 59.4433 52.7357C60.3871 52.7357 61.1522 51.9706 61.1522 51.0268Z" fill="#4F5D75"/>
<g filter="url(#filter3_d_337_61)">
<path d="M63.3333 55.3367H23.9528C23.209 55.3368 22.4816 55.555 21.8605 55.9641C21.2394 56.3732 20.7518 56.9554 20.4579 57.6387C20.1641 58.3219 20.077 59.0763 20.2073 59.8086C20.3376 60.5409 20.6797 61.2189 21.1912 61.7588L32.2286 73.4091V85.7749H55.0576V73.4091L66.0949 61.7588C66.6064 61.2189 66.9485 60.5409 67.0788 59.8086C67.2091 59.0763 67.122 58.3219 66.8282 57.6387C66.5344 56.9554 66.0467 56.3732 65.4256 55.9641C64.8045 55.555 64.0771 55.3368 63.3333 55.3367ZM47.6659 65.8249C46.4063 66.413 45.0331 66.7178 43.6431 66.7178C42.253 66.7178 40.8798 66.413 39.6202 65.8249L30.0115 60.4498C29.9746 60.4293 29.9455 60.3971 29.9289 60.3582C29.9123 60.3194 29.9091 60.2761 29.9198 60.2352C29.9305 60.1944 29.9545 60.1582 29.9881 60.1325C30.0216 60.1068 30.0627 60.0929 30.1049 60.0932H57.1812C57.2233 60.0932 57.2643 60.1072 57.2976 60.133C57.3309 60.1588 57.3547 60.195 57.3653 60.2358C57.3758 60.2766 57.3726 60.3197 57.3559 60.3585C57.3393 60.3972 57.3103 60.4293 57.2735 60.4498L47.6659 65.8249Z" fill="#FFBF66"/>
</g>
<g filter="url(#filter4_d_337_61)">
<path d="M59.6978 68.5114L55.0564 73.4103V85.775H32.2274V73.4092L27.5859 68.5102L32.9406 62.0892L39.6213 65.8284C40.8812 66.416 42.2545 66.7205 43.6447 66.7205C45.0349 66.7205 46.4082 66.416 47.6681 65.8284L54.3455 62.0904L59.6978 68.5114Z" fill="#4F5D75"/>
</g>
<path d="M47.835 65.7532L46.0554 68.5877C45.7995 68.9976 45.4434 69.3356 45.0208 69.57C44.5982 69.8043 44.1228 69.9273 43.6396 69.9273C43.1563 69.9273 42.681 69.8043 42.2584 69.57C41.8358 69.3356 41.4797 68.9976 41.2237 68.5877L39.4453 65.7532L39.6162 65.8284C40.8761 66.416 42.2494 66.7205 43.6396 66.7205C45.0298 66.7205 46.4031 66.416 47.663 65.8284L47.835 65.7532Z" fill="#FFBF66"/>
<path d="M52.43 55.1942C54.6186 44.8643 47.4457 45.4169 47.4457 45.4169C46.2723 44.4716 44.8545 43.8792 43.3573 43.709C41.8602 43.5387 40.3455 43.7976 38.9899 44.4553C34.4441 46.7339 33.7868 50.6667 34.852 55.1942C34.2533 55.4748 33.7683 55.9512 33.477 56.5447C33.1856 57.1382 33.1054 57.8133 33.2496 58.4585C33.3939 59.1038 33.7538 59.6805 34.2701 60.0935C34.7864 60.5065 35.4281 60.731 36.0893 60.73C36.1369 60.7312 36.1846 60.7282 36.2317 60.7209C36.9358 64.7084 39.9913 67.7025 43.637 67.7025C47.2827 67.7025 50.3429 64.7061 51.0424 60.7209C51.0895 60.7282 51.1372 60.7312 51.1848 60.73C51.8465 60.7319 52.489 60.5078 53.0059 60.0948C53.5228 59.6818 53.8833 59.1047 54.0274 58.4589C54.1716 57.8131 54.091 57.1375 53.7988 56.5438C53.5067 55.9501 53.0206 55.474 52.4209 55.1942H52.43Z" fill="#FFBF66"/>
<path d="M52.4318 55.1942C52.0454 55.0117 51.6231 54.9175 51.1957 54.9185C51.0054 54.9185 50.1111 54.8707 49.9208 54.9094V52.5317C48.3469 52.0619 46.983 51.0641 46.0587 49.7063C44.6323 52.0555 37.3659 52.5317 37.3659 52.5317V54.9094C37.1757 54.8707 36.2813 54.9185 36.0911 54.9185C35.6633 54.9175 35.2407 55.0117 34.8538 55.1942C33.7886 50.6667 34.4459 46.7294 38.9917 44.4553C40.3473 43.7976 41.862 43.5387 43.3591 43.709C44.8562 43.8792 46.2741 44.4716 47.4475 45.4169C47.4475 45.4169 54.6204 44.8643 52.4318 55.1942Z" fill="black"/>
<path d="M40.0768 57.2929C40.706 57.2929 41.2161 56.7828 41.2161 56.1536C41.2161 55.5244 40.706 55.0143 40.0768 55.0143C39.4476 55.0143 38.9375 55.5244 38.9375 56.1536C38.9375 56.7828 39.4476 57.2929 40.0768 57.2929Z" fill="black"/>
<path d="M46.9127 57.2929C47.5419 57.2929 48.052 56.7828 48.052 56.1536C48.052 55.5244 47.5419 55.0143 46.9127 55.0143C46.2835 55.0143 45.7734 55.5244 45.7734 56.1536C45.7734 56.7828 46.2835 57.2929 46.9127 57.2929Z" fill="black"/>
<path d="M43.6419 64.6981C43.0375 64.6981 42.458 64.4581 42.0307 64.0307C41.6033 63.6034 41.3633 63.0239 41.3633 62.4196H42.5026C42.5026 62.7217 42.6226 63.0115 42.8363 63.2252C43.0499 63.4388 43.3397 63.5588 43.6419 63.5588C43.944 63.5588 44.2338 63.4388 44.4474 63.2252C44.6611 63.0115 44.7811 62.7217 44.7811 62.4196H45.9204C45.9204 63.0239 45.6804 63.6034 45.253 64.0307C44.8257 64.4581 44.2462 64.6981 43.6419 64.6981Z" fill="black"/>
</g>
</g>
<defs>
<filter id="filter0_d_337_61" x="0" y="0" width="108" height="108" filterUnits="userSpaceOnUse" color-interpolation-filters="sRGB">
<feFlood flood-opacity="0" result="BackgroundImageFix"/>
<feColorMatrix in="SourceAlpha" type="matrix" values="0 0 0 0 0 0 0 0 0 0 0 0 0 0 0 0 0 0 127 0" result="hardAlpha"/>
<feOffset dy="4"/>
<feGaussianBlur stdDeviation="2"/>
<feComposite in2="hardAlpha" operator="out"/>
<feColorMatrix type="matrix" values="0 0 0 0 0 0 0 0 0 0 0 0 0 0 0 0 0 0 0.25 0"/>
<feBlend mode="normal" in2="BackgroundImageFix" result="effect1_dropShadow_337_61"/>
<feBlend mode="normal" in="SourceGraphic" in2="effect1_dropShadow_337_61" result="shape"/>
</filter>
<filter id="filter1_d_337_61" x="52.5977" y="15.1393" width="42.168" height="42.1786" filterUnits="userSpaceOnUse" color-interpolation-filters="sRGB">
<feFlood flood-opacity="0" result="BackgroundImageFix"/>
<feColorMatrix in="SourceAlpha" type="matrix" values="0 0 0 0 0 0 0 0 0 0 0 0 0 0 0 0 0 0 127 0" result="hardAlpha"/>
<feOffset dy="4"/>
<feGaussianBlur stdDeviation="2"/>
<feComposite in2="hardAlpha" operator="out"/>
<feColorMatrix type="matrix" values="0 0 0 0 0 0 0 0 0 0 0 0 0 0 0 0 0 0 0.25 0"/>
<feBlend mode="normal" in2="BackgroundImageFix" result="effect1_dropShadow_337_61"/>
<feBlend mode="normal" in="SourceGraphic" in2="effect1_dropShadow_337_61" result="shape"/>
</filter>
<filter id="filter2_d_337_61" x="58.2969" y="20.8356" width="30.7773" height="30.7906" filterUnits="userSpaceOnUse" color-interpolation-filters="sRGB">
<feFlood flood-opacity="0" result="BackgroundImageFix"/>
<feColorMatrix in="SourceAlpha" type="matrix" values="0 0 0 0 0 0 0 0 0 0 0 0 0 0 0 0 0 0 127 0" result="hardAlpha"/>
<feOffset dy="4"/>
<feGaussianBlur stdDeviation="2"/>
<feComposite in2="hardAlpha" operator="out"/>
<feColorMatrix type="matrix" values="0 0 0 0 0 0 0 0 0 0 0 0 0 0 0 0 0 0 0.25 0"/>
<feBlend mode="normal" in2="BackgroundImageFix" result="effect1_dropShadow_337_61"/>
<feBlend mode="normal" in="SourceGraphic" in2="effect1_dropShadow_337_61" result="shape"/>
</filter>
<filter id="filter3_d_337_61" x="16.1484" y="55.3367" width="54.9883" height="38.4382" filterUnits="userSpaceOnUse" color-interpolation-filters="sRGB">
<feFlood flood-opacity="0" result="BackgroundImageFix"/>
<feColorMatrix in="SourceAlpha" type="matrix" values="0 0 0 0 0 0 0 0 0 0 0 0 0 0 0 0 0 0 127 0" result="hardAlpha"/>
<feOffset dy="4"/>
<feGaussianBlur stdDeviation="2"/>
<feComposite in2="hardAlpha" operator="out"/>
<feColorMatrix type="matrix" values="0 0 0 0 0 0 0 0 0 0 0 0 0 0 0 0 0 0 0.25 0"/>
<feBlend mode="normal" in2="BackgroundImageFix" result="effect1_dropShadow_337_61"/>
<feBlend mode="normal" in="SourceGraphic" in2="effect1_dropShadow_337_61" result="shape"/>
</filter>
<filter id="filter4_d_337_61" x="23.5859" y="62.0892" width="40.1133" height="31.6858" filterUnits="userSpaceOnUse" color-interpolation-filters="sRGB">
<feFlood flood-opacity="0" result="BackgroundImageFix"/>
<feColorMatrix in="SourceAlpha" type="matrix" values="0 0 0 0 0 0 0 0 0 0 0 0 0 0 0 0 0 0 127 0" result="hardAlpha"/>
<feOffset dy="4"/>
<feGaussianBlur stdDeviation="2"/>
<feComposite in2="hardAlpha" operator="out"/>
<feColorMatrix type="matrix" values="0 0 0 0 0 0 0 0 0 0 0 0 0 0 0 0 0 0 0.25 0"/>
<feBlend mode="normal" in2="BackgroundImageFix" result="effect1_dropShadow_337_61"/>
<feBlend mode="normal" in="SourceGraphic" in2="effect1_dropShadow_337_61" result="shape"/>
</filter>
<clipPath id="clip0_337_61">
<rect width="72.9142" height="72.9142" fill="white" transform="translate(19 14)"/>
</clipPath>
</defs>
</svg>
