<svg width="108" height="108" viewBox="0 0 108 108" fill="none" xmlns="http://www.w3.org/2000/svg">
<g filter="url(#filter0_d_340_193)">
<path d="M54 0C5.73611 0 4 1.73611 4 50C4 98.2639 5.73611 100 54 100C102.264 100 104 98.2639 104 50C104 1.73611 102.264 0 54 0Z" fill="white"/>
<g clip-path="url(#clip0_340_193)">
<g filter="url(#filter1_d_340_193)">
<path d="M32.4219 52.5759V59.625C32.421 59.7751 32.449 59.9239 32.5042 60.0629C32.5594 60.2019 32.6408 60.3283 32.7436 60.4348L35.75 63.5716L33.265 64.1875C33.0189 64.2499 32.8009 64.3972 32.6475 64.6047C32.4941 64.8123 32.4145 65.0676 32.4219 65.3281V68.0428L28.5945 70.0161C28.4128 70.1118 28.2603 70.2572 28.1538 70.4363C28.0473 70.6155 27.991 70.8213 27.991 71.0312C27.991 71.2412 28.0473 71.447 28.1538 71.6262C28.2603 71.8053 28.4128 71.9507 28.5945 72.0464L32.4219 74.0197V74.4531C32.4219 74.7556 32.305 75.0458 32.0969 75.2597C31.8889 75.4736 31.6067 75.5938 31.3125 75.5938H23.5469C23.2527 75.5938 22.9705 75.7139 22.7624 75.9278C22.5544 76.1417 22.4375 76.4319 22.4375 76.7344V84.7188H24.6562V77.875H31.3125C32.1952 77.875 33.0417 77.5145 33.6658 76.8728C34.29 76.231 34.6406 75.3607 34.6406 74.4531V73.3125C34.64 73.1019 34.5827 72.8955 34.475 72.7163C34.3673 72.5371 34.2134 72.3921 34.0305 72.2973L31.5787 71.0312L34.0305 69.7652C34.2134 69.6704 34.3673 69.5254 34.475 69.3462C34.5827 69.167 34.64 68.9606 34.6406 68.75V66.2178L38.235 65.3281C38.4248 65.2793 38.5986 65.1797 38.7389 65.0395C38.8792 64.8992 38.9809 64.7234 39.0337 64.5297C39.0926 64.3316 39.0979 64.1208 39.049 63.9198C39.0002 63.7189 38.899 63.5354 38.7564 63.3891L34.6406 59.1573V51.8345C38.2128 50.1236 40.1875 46.1314 40.1875 40.2344C40.1875 39.9319 40.0706 39.6417 39.8626 39.4278C39.6545 39.2139 39.3723 39.0938 39.0781 39.0938C38.7839 39.0938 38.5017 39.2139 38.2937 39.4278C38.0856 39.6417 37.9688 39.9319 37.9688 40.2344C37.9688 42.0252 36.3047 42.5156 30.2031 42.5156H20.2188V44.7969H30.2031C32.9211 44.7969 35.6834 44.7969 37.6138 44.0212C36.8594 47.4773 34.918 50.5 30.2031 50.5H20.2188V52.7812H30.2031C30.9473 52.7845 31.6902 52.7157 32.4219 52.5759Z" fill="#4F5D75"/>
</g>
<path d="M30.2031 56.2031H27.9844C27.9844 56.5056 27.8675 56.7958 27.6594 57.0097C27.4514 57.2236 27.1692 57.3438 26.875 57.3438C26.5808 57.3438 26.2986 57.2236 26.0906 57.0097C25.8825 56.7958 25.7656 56.5056 25.7656 56.2031H23.5469C23.5469 57.1107 23.8975 57.981 24.5217 58.6228C25.1458 59.2645 25.9923 59.625 26.875 59.625C27.7577 59.625 28.6042 59.2645 29.2283 58.6228C29.8525 57.981 30.2031 57.1107 30.2031 56.2031ZM41.0306 74.4531C41.89 73.4201 42.3622 72.1054 42.3622 70.7461C42.3622 69.3867 41.89 68.0721 41.0306 67.0391L39.3444 68.5219C39.86 69.1417 40.1433 69.9305 40.1433 70.7461C40.1433 71.5617 39.86 72.3505 39.3444 72.9703L41.0306 74.4531Z" fill="#4F5D75"/>
<path d="M44.1353 77.7038C45.8412 75.8068 46.7887 73.3182 46.7887 70.7346C46.7887 68.151 45.8412 65.6624 44.1353 63.7654L42.5156 65.328C43.8411 66.8032 44.5771 68.7377 44.5771 70.746C44.5771 72.7543 43.8411 74.6888 42.5156 76.164L44.1353 77.7038Z" fill="#4F5D75"/>
<g filter="url(#filter2_d_340_193)">
<path d="M51.28 70.7347C51.3033 66.9123 49.8789 63.2306 47.3084 60.4691L45.7109 62.0431C47.8614 64.3742 49.0602 67.4647 49.0602 70.6776C49.0602 73.8906 47.8614 76.9811 45.7109 79.3122L47.3084 80.8862C49.8523 78.1531 51.2746 74.5176 51.28 70.7347ZM71.2488 20.2734C71.2488 21.3322 71.6578 22.3477 72.386 23.0963C73.1142 23.845 74.1018 24.2656 75.1316 24.2656H75.6863V29.5011L72.6798 32.5808C72.5259 32.7412 72.4216 32.9449 72.3802 33.1661C72.3387 33.3874 72.3619 33.6163 72.4469 33.8241C72.5301 34.0324 72.6714 34.2107 72.8531 34.3365C73.0347 34.4624 73.2485 34.5301 73.4675 34.5312H75.6863V41.375C75.6863 42.2825 76.0369 43.1529 76.661 43.7946C77.2852 44.4364 78.1317 44.7969 79.0144 44.7969H83.4519V51.6406H85.6706V43.6562C85.6706 43.3537 85.5537 43.0636 85.3457 42.8497C85.1376 42.6358 84.8555 42.5156 84.5613 42.5156H79.0144C78.7202 42.5156 78.438 42.3955 78.2299 42.1815C78.0219 41.9676 77.905 41.6775 77.905 41.375V39.0937H82.3425V36.8125H77.905V33.3906C77.905 33.0881 77.7881 32.798 77.5801 32.5841C77.372 32.3702 77.0899 32.25 76.7956 32.25H76.1411L77.5833 30.7786C77.6861 30.672 77.7674 30.5456 77.8227 30.4066C77.8779 30.2677 77.9058 30.1189 77.905 29.9687V24.2656H86.78V21.9844H75.1316C74.6902 21.9844 74.267 21.8041 73.9549 21.4833C73.6428 21.1624 73.4675 20.7272 73.4675 20.2734C73.4675 19.8197 73.6428 19.3845 73.9549 19.0636C74.267 18.7428 74.6902 18.5625 75.1316 18.5625H86.78V16.2812H75.1316C74.1018 16.2812 73.1142 16.7019 72.386 17.4505C71.6578 18.1992 71.2488 19.2146 71.2488 20.2734Z" fill="#4F5D75"/>
</g>
<path d="M54.6094 23.125H52.3906V25.4062H54.6094V23.125Z" fill="#4F5D75"/>
<path d="M59.0469 23.125H56.8281V25.4062H59.0469V23.125Z" fill="#4F5D75"/>
<g filter="url(#filter3_d_340_193)">
<path d="M52.3906 27.6875H50.1719C50.1719 29.2001 50.7563 30.6507 51.7965 31.7202C52.8368 32.7898 54.2476 33.3906 55.7188 33.3906C57.1899 33.3906 58.6007 32.7898 59.641 31.7202C60.6812 30.6507 61.2656 29.2001 61.2656 27.6875H59.0469C59.0469 28.595 58.6962 29.4654 58.0721 30.1071C57.4479 30.7489 56.6014 31.1094 55.7188 31.1094C54.8361 31.1094 53.9896 30.7489 53.3654 30.1071C52.7413 29.4654 52.3906 28.595 52.3906 27.6875Z" fill="#4F5D75"/>
</g>
<g filter="url(#filter4_d_340_193)">
<path d="M43.5156 27.6875C43.5156 33.9723 48.9848 39.0937 55.7188 39.0937C57.8222 39.0964 59.8957 38.5801 61.7648 37.5881C64.0055 38.483 66.3744 38.9917 68.7761 39.0937C69.0601 39.1092 69.3409 39.0267 69.5741 38.8593C69.8072 38.692 69.9793 38.4493 70.063 38.1698C70.1618 37.8733 70.1644 37.5517 70.0704 37.2535C69.9764 36.9553 69.7908 36.6965 69.5416 36.5159C68.3026 35.4862 67.3244 34.1634 66.6905 32.6606C67.4893 31.131 67.9121 29.4237 67.9219 27.6875C67.9219 21.4027 62.375 16.2812 55.7188 16.2812C49.0625 16.2812 43.5156 21.4027 43.5156 27.6875ZM65.7031 27.6875C65.7133 29.1898 65.3301 30.6672 64.5938 31.9648C64.5034 32.1177 64.4493 32.2903 64.4358 32.4686C64.4224 32.6469 64.4498 32.826 64.5161 32.9914C65.0285 34.2536 65.7039 35.4391 66.5241 36.5159C65.1006 36.3909 63.7104 36.0046 62.4194 35.3753C62.2396 35.2607 62.0318 35.2014 61.8203 35.2042C61.5903 35.2024 61.3655 35.2742 61.1769 35.4095C59.5109 36.3671 57.627 36.8513 55.7188 36.8125C50.2273 36.8125 45.7344 32.7177 45.7344 27.6875C45.7344 22.6573 50.1719 18.5625 55.7188 18.5625C61.2656 18.5625 65.7031 22.6573 65.7031 27.6875ZM55.7188 65.3281V72.1719C55.7194 72.3825 55.7767 72.5889 55.8844 72.768C55.9921 72.9472 56.146 73.0922 56.3289 73.187L58.0152 74.0539L59.0469 83.7036C59.077 83.9839 59.2071 84.2427 59.412 84.4302C59.6168 84.6177 59.882 84.7205 60.1562 84.7187H62.375C62.6493 84.7205 62.9144 84.6177 63.1193 84.4302C63.3241 84.2427 63.4542 83.9839 63.4844 83.7036L64.5272 74.0539L66.2134 73.187C66.3943 73.0907 66.5459 72.945 66.6516 72.7659C66.7572 72.5868 66.8129 72.3813 66.8125 72.1719V65.3281C66.8144 64.4588 66.4944 63.6213 65.9174 62.9857C65.3405 62.3501 64.5499 61.9642 63.7063 61.9062C64.2666 61.285 64.5828 60.4722 64.5938 59.625C64.5938 58.7175 64.2431 57.8471 63.619 57.2054C62.9948 56.5636 62.1483 56.2031 61.2656 56.2031C60.383 56.2031 59.5364 56.5636 58.9123 57.2054C58.2881 57.8471 57.9375 58.7175 57.9375 59.625C57.9485 60.4722 58.2647 61.285 58.825 61.9062C57.9813 61.9642 57.1908 62.3501 56.6138 62.9857C56.0369 63.6213 55.7169 64.4588 55.7188 65.3281ZM61.2656 58.4844C61.485 58.4844 61.6995 58.5513 61.882 58.6766C62.0644 58.8019 62.2066 58.9801 62.2906 59.1885C62.3745 59.3969 62.3965 59.6263 62.3537 59.8475C62.3109 60.0688 62.2052 60.272 62.0501 60.4315C61.8949 60.5911 61.6973 60.6997 61.4821 60.7437C61.2669 60.7877 61.0438 60.7651 60.8411 60.6788C60.6384 60.5925 60.4651 60.4463 60.3432 60.2587C60.2213 60.0711 60.1562 59.8506 60.1562 59.625C60.1562 59.3225 60.2731 59.0324 60.4812 58.8185C60.6892 58.6045 60.9714 58.4844 61.2656 58.4844ZM57.9375 65.3281C57.9375 65.0256 58.0544 64.7355 58.2624 64.5216C58.4705 64.3077 58.7527 64.1875 59.0469 64.1875H63.4844C63.7786 64.1875 64.0608 64.3077 64.2688 64.5216C64.4769 64.7355 64.5938 65.0256 64.5938 65.3281V71.4647L62.9852 72.2973C62.8215 72.383 62.681 72.5092 62.5765 72.6645C62.4719 72.8198 62.4065 72.9993 62.3861 73.187L61.3766 82.4375H61.1547L60.1562 73.187C60.1358 72.9993 60.0704 72.8198 59.9659 72.6645C59.8613 72.5092 59.7209 72.383 59.5572 72.2973L57.9375 71.4647V65.3281Z" fill="#4F5D75"/>
</g>
<path d="M72.3594 68.75H70.1406V71.0312H72.3594V68.75Z" fill="#4F5D75"/>
<path d="M76.7969 68.75H74.5781V71.0312H76.7969V68.75Z" fill="#4F5D75"/>
<path d="M81.2344 68.75H79.0156V71.0312H81.2344V68.75Z" fill="#4F5D75"/>
<path d="M81.2344 64.1875H79.0156V66.4688H81.2344V64.1875Z" fill="#4F5D75"/>
<path d="M81.2344 59.625H79.0156V61.9062H81.2344V59.625Z" fill="#4F5D75"/>
<path d="M81.2344 55.0625H79.0156V57.3438H81.2344V55.0625Z" fill="#4F5D75"/>
<path d="M81.7891 25.9766C81.642 25.9766 81.5009 25.9165 81.3968 25.8095C81.2928 25.7026 81.2344 25.5575 81.2344 25.4062H79.0156C79.0156 26.1625 79.3078 26.8878 79.8279 27.4226C80.3481 27.9574 81.0535 28.2578 81.7891 28.2578C82.5246 28.2578 83.2301 27.9574 83.7502 27.4226C84.2703 26.8878 84.5625 26.1625 84.5625 25.4062H82.3438C82.3438 25.5575 82.2853 25.7026 82.1813 25.8095C82.0773 25.9165 81.9362 25.9766 81.7891 25.9766Z" fill="#4F5D75"/>
</g>
</g>
<defs>
<filter id="filter0_d_340_193" x="0" y="0" width="108" height="108" filterUnits="userSpaceOnUse" color-interpolation-filters="sRGB">
<feFlood flood-opacity="0" result="BackgroundImageFix"/>
<feColorMatrix in="SourceAlpha" type="matrix" values="0 0 0 0 0 0 0 0 0 0 0 0 0 0 0 0 0 0 127 0" result="hardAlpha"/>
<feOffset dy="4"/>
<feGaussianBlur stdDeviation="2"/>
<feComposite in2="hardAlpha" operator="out"/>
<feColorMatrix type="matrix" values="0 0 0 0 0 0 0 0 0 0 0 0 0 0 0 0 0 0 0.25 0"/>
<feBlend mode="normal" in2="BackgroundImageFix" result="effect1_dropShadow_340_193"/>
<feBlend mode="normal" in="SourceGraphic" in2="effect1_dropShadow_340_193" result="shape"/>
</filter>
<filter id="filter1_d_340_193" x="16.2188" y="39.0938" width="27.9688" height="53.625" filterUnits="userSpaceOnUse" color-interpolation-filters="sRGB">
<feFlood flood-opacity="0" result="BackgroundImageFix"/>
<feColorMatrix in="SourceAlpha" type="matrix" values="0 0 0 0 0 0 0 0 0 0 0 0 0 0 0 0 0 0 127 0" result="hardAlpha"/>
<feOffset dy="4"/>
<feGaussianBlur stdDeviation="2"/>
<feComposite in2="hardAlpha" operator="out"/>
<feColorMatrix type="matrix" values="0 0 0 0 0 0 0 0 0 0 0 0 0 0 0 0 0 0 0.25 0"/>
<feBlend mode="normal" in2="BackgroundImageFix" result="effect1_dropShadow_340_193"/>
<feBlend mode="normal" in="SourceGraphic" in2="effect1_dropShadow_340_193" result="shape"/>
</filter>
<filter id="filter2_d_340_193" x="41.7109" y="16.2812" width="49.0703" height="72.605" filterUnits="userSpaceOnUse" color-interpolation-filters="sRGB">
<feFlood flood-opacity="0" result="BackgroundImageFix"/>
<feColorMatrix in="SourceAlpha" type="matrix" values="0 0 0 0 0 0 0 0 0 0 0 0 0 0 0 0 0 0 127 0" result="hardAlpha"/>
<feOffset dy="4"/>
<feGaussianBlur stdDeviation="2"/>
<feComposite in2="hardAlpha" operator="out"/>
<feColorMatrix type="matrix" values="0 0 0 0 0 0 0 0 0 0 0 0 0 0 0 0 0 0 0.25 0"/>
<feBlend mode="normal" in2="BackgroundImageFix" result="effect1_dropShadow_340_193"/>
<feBlend mode="normal" in="SourceGraphic" in2="effect1_dropShadow_340_193" result="shape"/>
</filter>
<filter id="filter3_d_340_193" x="46.1719" y="27.6875" width="19.0938" height="13.7031" filterUnits="userSpaceOnUse" color-interpolation-filters="sRGB">
<feFlood flood-opacity="0" result="BackgroundImageFix"/>
<feColorMatrix in="SourceAlpha" type="matrix" values="0 0 0 0 0 0 0 0 0 0 0 0 0 0 0 0 0 0 127 0" result="hardAlpha"/>
<feOffset dy="4"/>
<feGaussianBlur stdDeviation="2"/>
<feComposite in2="hardAlpha" operator="out"/>
<feColorMatrix type="matrix" values="0 0 0 0 0 0 0 0 0 0 0 0 0 0 0 0 0 0 0.25 0"/>
<feBlend mode="normal" in2="BackgroundImageFix" result="effect1_dropShadow_340_193"/>
<feBlend mode="normal" in="SourceGraphic" in2="effect1_dropShadow_340_193" result="shape"/>
</filter>
<filter id="filter4_d_340_193" x="39.5156" y="16.2812" width="34.625" height="76.4375" filterUnits="userSpaceOnUse" color-interpolation-filters="sRGB">
<feFlood flood-opacity="0" result="BackgroundImageFix"/>
<feColorMatrix in="SourceAlpha" type="matrix" values="0 0 0 0 0 0 0 0 0 0 0 0 0 0 0 0 0 0 127 0" result="hardAlpha"/>
<feOffset dy="4"/>
<feGaussianBlur stdDeviation="2"/>
<feComposite in2="hardAlpha" operator="out"/>
<feColorMatrix type="matrix" values="0 0 0 0 0 0 0 0 0 0 0 0 0 0 0 0 0 0 0.25 0"/>
<feBlend mode="normal" in2="BackgroundImageFix" result="effect1_dropShadow_340_193"/>
<feBlend mode="normal" in="SourceGraphic" in2="effect1_dropShadow_340_193" result="shape"/>
</filter>
<clipPath id="clip0_340_193">
<rect width="71" height="73" fill="white" transform="translate(18 14)"/>
</clipPath>
</defs>
</svg>
