<svg width="33" height="35" viewBox="0 0 33 35" fill="none" xmlns="http://www.w3.org/2000/svg">
<g clip-path="url(#clip0_201_874)" filter="url(#filter0_d_201_874)">
<g filter="url(#filter1_d_201_874)">
<path d="M13.9167 30.8277C6.59722 29.536 1 23.1638 1 15.4999C1 6.97498 7.975 0 16.5 0C25.025 0 32 6.97498 32 15.4999C32 23.1638 26.4028 29.536 19.0833 30.8277L18.2222 30.1388H14.7778L13.9167 30.8277Z" fill="#C1C1C1"/>
</g>
<g filter="url(#filter2_d_201_874)">
<path d="M22.5291 19.8056L23.218 15.5H19.0846V12.4861C19.0846 11.2806 19.5152 10.3334 21.4096 10.3334H23.3902V6.37225C22.2707 6.20002 21.0652 6.0278 19.9457 6.0278C16.4152 6.0278 13.918 8.18058 13.918 12.0556V15.5H10.043V19.8056H13.918V30.7417C14.7791 30.9139 15.6402 31 16.5013 31C17.3624 31 18.2235 30.9139 19.0846 30.7417V19.8056H22.5291Z" fill="#13161A"/>
</g>
</g>
<defs>
<filter id="filter0_d_201_874" x="0" y="0" width="33" height="35" filterUnits="userSpaceOnUse" color-interpolation-filters="sRGB">
<feFlood flood-opacity="0" result="BackgroundImageFix"/>
<feColorMatrix in="SourceAlpha" type="matrix" values="0 0 0 0 0 0 0 0 0 0 0 0 0 0 0 0 0 0 127 0" result="hardAlpha"/>
<feOffset dy="3"/>
<feGaussianBlur stdDeviation="0.5"/>
<feColorMatrix type="matrix" values="0 0 0 0 0 0 0 0 0 0 0 0 0 0 0 0 0 0 0.2 0"/>
<feBlend mode="soft-light" in2="BackgroundImageFix" result="effect1_dropShadow_201_874"/>
<feBlend mode="normal" in="SourceGraphic" in2="effect1_dropShadow_201_874" result="shape"/>
</filter>
<filter id="filter1_d_201_874" x="0" y="0" width="33" height="33.8277" filterUnits="userSpaceOnUse" color-interpolation-filters="sRGB">
<feFlood flood-opacity="0" result="BackgroundImageFix"/>
<feColorMatrix in="SourceAlpha" type="matrix" values="0 0 0 0 0 0 0 0 0 0 0 0 0 0 0 0 0 0 127 0" result="hardAlpha"/>
<feOffset dy="2"/>
<feGaussianBlur stdDeviation="0.5"/>
<feComposite in2="hardAlpha" operator="out"/>
<feColorMatrix type="matrix" values="0 0 0 0 0 0 0 0 0 0 0 0 0 0 0 0 0 0 0.2 0"/>
<feBlend mode="normal" in2="BackgroundImageFix" result="effect1_dropShadow_201_874"/>
<feBlend mode="normal" in="SourceGraphic" in2="effect1_dropShadow_201_874" result="shape"/>
</filter>
<filter id="filter2_d_201_874" x="9.04297" y="6.0278" width="15.3477" height="28.9722" filterUnits="userSpaceOnUse" color-interpolation-filters="sRGB">
<feFlood flood-opacity="0" result="BackgroundImageFix"/>
<feColorMatrix in="SourceAlpha" type="matrix" values="0 0 0 0 0 0 0 0 0 0 0 0 0 0 0 0 0 0 127 0" result="hardAlpha"/>
<feOffset dy="3"/>
<feGaussianBlur stdDeviation="0.5"/>
<feComposite in2="hardAlpha" operator="out"/>
<feColorMatrix type="matrix" values="0 0 0 0 0 0 0 0 0 0 0 0 0 0 0 0 0 0 0.2 0"/>
<feBlend mode="normal" in2="BackgroundImageFix" result="effect1_dropShadow_201_874"/>
<feBlend mode="normal" in="SourceGraphic" in2="effect1_dropShadow_201_874" result="shape"/>
</filter>
<clipPath id="clip0_201_874">
<rect width="31" height="31" fill="white" transform="translate(1)"/>
</clipPath>
</defs>
</svg>
