<svg width="21" height="32" viewBox="0 0 21 32" fill="none" xmlns="http://www.w3.org/2000/svg">
<g clip-path="url(#clip0_201_787)">
<path d="M5.22385 30.1092C7.98667 30.1092 10.229 27.859 10.229 25.0864V20.0637H5.22385C2.46104 20.0637 0.21875 22.3139 0.21875 25.0864C0.21875 27.859 2.46104 30.1092 5.22385 30.1092Z" fill="#0ACF83"/>
<path d="M0.21875 15.041C0.21875 12.2685 2.46104 10.0183 5.22385 10.0183H10.229V20.0637H5.22385C2.46104 20.0637 0.21875 17.8136 0.21875 15.041Z" fill="#A259FF"/>
<path d="M0.21875 4.99562C0.21875 2.22308 2.46104 -0.0270996 5.22385 -0.0270996H10.229V10.0183H5.22385C2.46104 10.0183 0.21875 7.76816 0.21875 4.99562Z" fill="#F24E1E"/>
<path d="M10.2266 -0.0268555H15.2317C17.9945 -0.0268555 20.2368 2.22332 20.2368 4.99586C20.2368 7.7684 17.9945 10.0186 15.2317 10.0186H10.2266V-0.0268555Z" fill="#FF7262"/>
<path d="M20.2368 15.041C20.2368 17.8136 17.9945 20.0637 15.2317 20.0637C12.4688 20.0637 10.2266 17.8136 10.2266 15.041C10.2266 12.2685 12.4688 10.0183 15.2317 10.0183C17.9945 10.0183 20.2368 12.2685 20.2368 15.041Z" fill="#1ABCFE"/>
</g>
<defs>
<clipPath id="clip0_201_787">
<rect width="20.0204" height="32" fill="white" transform="translate(0.21875)"/>
</clipPath>
</defs>
</svg>
