<svg width="27" height="28" viewBox="0 0 27 28" fill="none" xmlns="http://www.w3.org/2000/svg">
<path fill-rule="evenodd" clip-rule="evenodd" d="M13.5037 1.11621C6.46959 1.11621 0.765625 7.03012 0.765625 14.3261C0.765625 20.1628 4.41548 25.1142 9.47671 26.8611C10.1131 26.9836 10.3468 26.5746 10.3468 26.2256C10.3468 25.9106 10.335 24.8701 10.3295 23.7662C6.78578 24.5653 6.03801 22.2076 6.03801 22.2076C5.45856 20.6808 4.62367 20.2748 4.62367 20.2748C3.46773 19.4549 4.71079 19.472 4.71079 19.472C5.9897 19.5649 6.66344 20.8332 6.66344 20.8332C7.79955 22.8523 9.64335 22.2687 10.3702 21.9314C10.4846 21.0776 10.8147 20.4946 11.179 20.1647C8.34967 19.8311 5.37524 18.6982 5.37524 13.6366C5.37524 12.1944 5.87305 11.016 6.68791 10.0906C6.55544 9.75815 6.11943 8.41459 6.81109 6.59502C6.81109 6.59502 7.88055 6.23999 10.3148 7.94909C11.3311 7.65618 12.421 7.50896 13.5037 7.50393C14.5858 7.50896 15.6764 7.65574 16.6946 7.94865C19.1258 6.23955 20.194 6.59459 20.194 6.59459C20.8874 8.41393 20.4514 9.75771 20.3191 10.0902C21.1359 11.0155 21.6301 12.1939 21.6301 13.6361C21.6301 18.7098 18.6502 19.8268 15.8137 20.154C16.2708 20.564 16.6779 21.3681 16.6779 22.6003C16.6779 24.3678 16.6631 25.7903 16.6631 26.2254C16.6631 26.577 16.8926 26.9889 17.5381 26.8591C22.5964 25.1105 26.242 20.1606 26.242 14.3261C26.2418 7.03055 20.5385 1.11621 13.5037 1.11621Z" fill="white"/>
<path d="M5.58356 20.083C5.5555 20.1486 5.45594 20.1683 5.36524 20.1235C5.27243 20.0806 5.22075 19.9911 5.2507 19.9253C5.27812 19.8575 5.37789 19.8389 5.47007 19.8841C5.56289 19.9272 5.61562 20.0176 5.58335 20.0832L5.58356 20.083ZM6.09951 20.68C6.03897 20.7384 5.92021 20.7112 5.83964 20.6187C5.75611 20.5268 5.7405 20.4037 5.8023 20.3444C5.86516 20.2862 5.98033 20.3138 6.06386 20.4056C6.14697 20.4988 6.16343 20.6209 6.09972 20.6802L6.09951 20.68ZM6.60196 21.4406C6.52392 21.497 6.39609 21.4443 6.3172 21.3268C6.23915 21.2091 6.23915 21.068 6.31931 21.0118C6.39799 20.9554 6.52392 21.0063 6.60407 21.1227C6.6817 21.2419 6.6817 21.3832 6.60196 21.4406ZM7.28983 22.1758C7.22022 22.2556 7.0713 22.2342 6.96246 22.1255C6.85129 22.0189 6.82029 21.8673 6.89011 21.7877C6.96098 21.7076 7.11054 21.73 7.22001 21.838C7.33118 21.9443 7.36472 22.0961 7.29025 22.1756L7.28983 22.1758ZM8.23905 22.6026C8.20804 22.706 8.06503 22.7531 7.92054 22.7089C7.77646 22.6636 7.68218 22.5426 7.71171 22.4381C7.74124 22.3337 7.88531 22.2849 8.03064 22.332C8.17471 22.377 8.269 22.4973 8.23905 22.6026ZM9.28171 22.6815C9.2853 22.7905 9.16296 22.8806 9.01171 22.8828C8.85921 22.8865 8.73581 22.7981 8.73433 22.6909C8.73433 22.5809 8.85414 22.4919 9.00644 22.4888C9.15768 22.486 9.28193 22.5735 9.28193 22.6813L9.28171 22.6815ZM10.2516 22.5105C10.2697 22.6166 10.1645 22.7257 10.0141 22.7548C9.86643 22.7832 9.72932 22.7172 9.71034 22.612C9.6922 22.503 9.79936 22.3939 9.94701 22.3656C10.0976 22.3387 10.2326 22.4026 10.2516 22.5105Z" fill="white"/>
</svg>
