<svg width="36" height="39" viewBox="0 0 36 39" fill="none" xmlns="http://www.w3.org/2000/svg">
<path fill-rule="evenodd" clip-rule="evenodd" d="M17.9999 0.978027C8.06011 0.978027 0 9.50986 0 20.0356C0 28.456 5.15751 35.5992 12.3094 38.1195C13.2087 38.2962 13.5389 37.7061 13.5389 37.2027C13.5389 36.7483 13.5222 35.2471 13.5145 33.6546C8.50692 34.8074 7.45026 31.4061 7.45026 31.4061C6.63146 29.2033 5.4517 28.6176 5.4517 28.6176C3.81828 27.4347 5.5748 27.4594 5.5748 27.4594C7.382 27.5935 8.33404 29.4233 8.33404 29.4233C9.93944 32.3361 12.5449 31.4941 13.572 31.0075C13.7336 29.7758 14.2001 28.9347 14.7148 28.4588C10.7168 27.9776 6.51372 26.3431 6.51372 19.0408C6.51372 16.9602 7.21717 15.2601 8.36861 13.9252C8.18143 13.4455 7.56531 11.5072 8.54269 8.88216C8.54269 8.88216 10.0539 8.36997 13.4936 10.8356C14.9297 10.4131 16.4699 10.2007 17.9999 10.1934C19.5289 10.2007 21.07 10.4124 22.5088 10.835C25.9443 8.36934 27.4537 8.88153 27.4537 8.88153C28.4335 11.5062 27.8174 13.4449 27.6305 13.9246C28.7846 15.2595 29.483 16.9595 29.483 19.0402C29.483 26.3599 25.2722 27.9712 21.264 28.4434C21.9099 29.0348 22.4852 30.1949 22.4852 31.9725C22.4852 34.5225 22.4643 36.5747 22.4643 37.2024C22.4643 37.7096 22.7886 38.3038 23.7007 38.1167C30.8485 35.5939 36 28.4528 36 20.0356C35.9997 9.51049 27.9405 0.978027 17.9999 0.978027Z" fill="#C1C1C1"/>
</svg>
