<svg width="36" height="45" viewBox="0 0 36 45" fill="none" xmlns="http://www.w3.org/2000/svg">
<g clip-path="url(#clip0_260_47)">
<path d="M11.7869 34.7255C11.7869 34.7255 9.87087 35.7659 13.0186 36.1561C16.7138 36.5463 18.6298 36.4162 22.7355 35.7659C22.7355 35.7659 23.8304 36.4162 25.3359 36.9365C16.1664 40.7081 4.39654 36.6763 11.7869 34.7255ZM10.5552 29.9133C10.5552 29.9133 8.50229 31.344 11.65 31.6041C15.6189 31.9943 18.7667 31.9943 24.241 31.0839C24.241 31.0839 25.0621 31.7341 26.2939 32.1243C15.0715 35.2457 2.61738 32.3844 10.5552 29.9133Z" fill="#5382A1"/>
<path d="M20.1349 21.5896C22.4614 24.0607 19.5874 26.2717 19.5874 26.2717C19.5874 26.2717 25.3355 23.4104 22.5983 19.8989C20.1349 16.5174 18.2188 14.9567 28.6201 9.23413C28.6201 9.23413 12.3339 13.0058 20.1349 21.5896Z" fill="#E76F00"/>
<path d="M32.3144 38.367C32.3144 38.367 33.6829 39.4075 30.9458 40.3179C25.6083 41.8786 8.63789 42.2688 3.98471 40.3179C2.34241 39.6676 5.49015 38.6272 6.44816 38.4971L8.09046 38.237C6.17444 37.0665 -4.08993 40.7081 2.88984 41.8786C21.7763 44.7399 37.2413 40.578 32.3144 38.367ZM12.6068 24.711C12.6068 24.711 3.98471 26.6618 9.5959 27.4422C11.9225 27.7023 16.5757 27.7023 20.9551 27.3121C24.5134 27.052 28.0718 26.4017 28.0718 26.4017L25.882 27.5722C17.1231 29.6532 0.289535 28.6127 5.21643 26.4017C9.32218 24.5809 12.6068 24.711 12.6068 24.711ZM28.0718 32.9046C36.8307 28.6127 32.7249 24.3208 29.8509 24.9711L28.8929 25.2312C28.8929 25.2312 29.1666 24.841 29.7141 24.5809C35.3252 22.7601 39.7047 30.1734 27.798 33.1647L28.0718 32.9046Z" fill="#5382A1"/>
<path d="M22.5979 0C22.5979 0 27.5248 4.68208 17.9448 11.8353C10.2807 17.6879 16.3025 20.9393 17.9448 24.711C13.5653 20.8092 10.2807 17.4277 12.4704 14.3064C15.6182 9.75434 24.6508 7.4133 22.5979 0Z" fill="#E76F00"/>
<path d="M13.4287 44.8699C21.9139 45.3901 35.0523 44.4797 35.326 40.708C35.326 40.708 34.7786 42.1386 28.3463 43.3092C21.0928 44.6097 12.0601 44.4797 6.72266 43.5693C6.72266 43.5693 7.81752 44.4797 13.4287 44.8699Z" fill="#5382A1"/>
</g>
<defs>
<clipPath id="clip0_260_47">
<rect width="35.0357" height="45" fill="white" transform="translate(0.425781)"/>
</clipPath>
</defs>
</svg>
