<svg width="33" height="34" viewBox="0 0 33 34" fill="none" xmlns="http://www.w3.org/2000/svg">
<g clip-path="url(#clip0_201_793)">
<path d="M0.320312 -0.668701H32.353V33.1743H0.320312V-0.668701Z" fill="#F0DB4F"/>
<path d="M29.7339 25.1025C29.4995 23.5584 28.5464 22.2619 25.7238 21.0523C24.7433 20.5762 23.6502 20.2352 23.3244 19.4503C23.2086 18.9934 23.1934 18.7361 23.2665 18.4594C23.4766 17.5619 24.4906 17.282 25.2944 17.5394C25.8121 17.7227 26.3023 18.1442 26.5977 18.8165C27.98 17.8707 27.977 17.8771 28.9422 17.2273C28.589 16.6483 28.4002 16.3812 28.1688 16.1336C27.3376 15.1524 26.2049 14.6473 24.3931 14.6859C24.0795 14.7277 23.7629 14.7727 23.4492 14.8146C22.5449 15.0559 21.6831 15.5577 21.1777 16.2301C19.6613 18.0477 20.0937 21.2293 21.9389 22.5386C23.7567 23.9798 26.4271 24.308 26.7682 25.6559C27.1001 27.3062 25.6203 27.8402 24.1495 27.6505C23.0655 27.4124 22.4627 26.8301 21.811 25.7717C20.6114 26.5052 20.6114 26.5052 19.3782 27.2548C19.6705 27.9303 19.978 28.236 20.4682 28.8214C22.7885 31.3082 28.5951 31.186 29.6365 27.422C29.6791 27.2933 29.9593 26.4312 29.7339 25.1025ZM17.7369 14.8853H14.7407C14.7407 17.6198 14.7285 20.3349 14.7285 23.0694C14.7285 24.8098 14.8138 26.4054 14.5459 26.8944C14.1074 27.8563 12.9716 27.7373 12.454 27.5507C11.9272 27.2772 11.6593 26.888 11.3487 26.3379C11.2634 26.1802 11.1995 26.058 11.1781 26.0484C10.3652 26.5727 9.55518 27.1003 8.74219 27.6247C9.14719 28.5029 9.74397 29.2654 10.5082 29.7608C11.6501 30.4846 13.1847 30.7066 14.7894 30.3173C15.8339 29.9956 16.7351 29.3297 17.2071 28.3163C17.8892 26.9877 17.743 25.3792 17.7369 23.6002C17.7521 20.6985 17.7369 17.7967 17.7369 14.8853Z" fill="#323330"/>
</g>
<defs>
<clipPath id="clip0_201_793">
<rect width="32.0327" height="34" fill="white" transform="translate(0.320312)"/>
</clipPath>
</defs>
</svg>
