<svg width="108" height="108" viewBox="0 0 108 108" fill="none" xmlns="http://www.w3.org/2000/svg">
<g filter="url(#filter0_d_340_192)">
<path d="M54 0C5.73611 0 4 1.73611 4 50C4 98.2639 5.73611 100 54 100C102.264 100 104 98.2639 104 50C104 1.73611 102.264 0 54 0Z" fill="white"/>
<path d="M55.9485 38.8307C56.1545 38.6305 56.4455 38.6305 56.6515 38.8307C56.8495 39.0233 56.8495 39.2823 56.6515 39.4748C55.9563 40.1507 54.9869 40.5 54 40.5C53.0131 40.5 52.0437 40.1507 51.3485 39.4748C51.1505 39.2823 51.1505 39.0233 51.3485 38.8307C51.5545 38.6305 51.8455 38.6305 52.0515 38.8307C53.1455 39.8944 54.8545 39.8944 55.9485 38.8307ZM59 35.4444H57.2C56.9293 35.4444 56.7 35.2348 56.7 34.9722C56.7 34.7985 56.757 34.6906 56.8235 34.6259C56.8913 34.5599 57.0095 34.5 57.2 34.5H59C59.1905 34.5 59.3087 34.5599 59.3765 34.6259C59.443 34.6906 59.5 34.7985 59.5 34.9722C59.5 35.146 59.443 35.2539 59.3765 35.3186C59.3087 35.3845 59.1905 35.4444 59 35.4444ZM50.8 34.5C50.9905 34.5 51.1087 34.5599 51.1765 34.6259C51.243 34.6906 51.3 34.7985 51.3 34.9722C51.3 35.0476 51.2558 35.1685 51.139 35.2821C51.023 35.3949 50.8923 35.4444 50.8 35.4444H49C48.8095 35.4444 48.6913 35.3845 48.6235 35.3186C48.557 35.2539 48.5 35.146 48.5 34.9722C48.5 34.7985 48.557 34.6906 48.6235 34.6259C48.6913 34.5599 48.8095 34.5 49 34.5H50.8Z" fill="black" stroke="#4F5D75"/>
<g filter="url(#filter1_d_340_192)">
<mask id="path-3-inside-1_340_192" fill="white">
<path d="M72.5202 54.4119C71.7367 53.975 70.9533 53.6256 70.1698 53.3635V47.4228C70.1698 46.8112 69.8217 46.2871 69.2994 45.9376C68.7771 45.5881 68.1677 45.5881 67.5584 45.8502L65.8174 46.7239C64.8599 45.4134 63.293 44.5398 61.6391 44.5398H58.7665L57.7219 42.9672C59.3758 41.9189 60.7686 40.1716 61.7261 38.0749C64.1635 37.6381 64.8599 33.2699 62.8578 31.7847C62.5966 25.9314 58.9406 22 53.5435 22C48.1465 22 44.4904 25.9314 44.2293 31.7847C42.2272 33.2699 42.9236 37.6381 45.3609 38.0749C46.3185 40.259 47.7113 41.9189 49.3652 42.9672L48.2335 44.6271H45.3609C43.707 44.6271 42.1401 45.4134 41.1826 46.8112L39.4416 45.9376C38.9193 45.6755 38.2229 45.6755 37.7006 46.025C37.1783 46.3744 36.8301 46.8986 36.8301 47.5101V53.4509C36.0467 53.713 35.2633 54.1498 34.4798 54.4992C33.6093 54.936 33 55.8097 33 56.858V62.0125C33 62.9735 33.5223 63.8471 34.4798 64.3713C35.1762 64.7208 35.9597 65.0702 36.7431 65.4197H36.8301V68.5647C36.8301 69.2637 37.1783 69.7878 37.7877 70.1373L53.1083 78C53.2824 77.9126 53.4565 77.9126 53.5435 77.9126C53.6306 77.9126 53.8047 77.9126 53.8917 77.8253L69.2123 69.9626C69.8217 69.7005 70.1698 69.0889 70.1698 68.39V65.2449C70.9533 64.9828 71.7367 64.546 72.5202 64.1966C73.3907 63.7598 74 62.8861 74 61.8378V56.6833C74 55.7223 73.4777 54.8487 72.5202 54.4119ZM53.5435 23.7473C57.0255 23.7473 59.5499 25.6693 60.5945 28.8144L60.0722 28.1154C59.811 27.766 59.2887 27.5913 58.9406 27.8534C55.3716 30.1248 51.8025 30.1248 48.2335 27.8534C47.8854 27.5913 47.3631 27.6786 47.1019 28.1154L46.5796 28.8144C47.5372 25.6693 50.0616 23.7473 53.5435 23.7473ZM46.8408 36.8518C46.6667 36.5023 46.4055 36.2402 46.0573 36.2402C45.9703 36.2402 45.9703 36.2402 45.8832 36.2402H45.7962C45.535 36.2402 45.0127 35.7161 44.9257 34.7551C44.8386 33.7941 45.1868 33.1825 45.448 33.0952C45.7091 33.0078 45.7962 32.9204 45.9703 32.6583L48.0594 29.688C51.8025 31.7847 55.5456 31.7847 59.2017 29.688L61.2909 32.6583C61.3779 32.8331 61.552 33.0078 61.8132 33.0952C62.0743 33.1825 62.4225 33.7941 62.3355 34.7551C62.2484 35.7161 61.7261 36.2402 61.465 36.2402C61.0297 36.1529 60.5945 36.415 60.4204 36.7644C59.1147 40.259 56.5032 42.3557 53.7176 42.3557C50.9321 42.3557 48.1465 40.3463 46.8408 36.8518ZM53.5435 44.2777C54.414 44.2777 55.2845 44.103 56.155 43.8409L57.4607 45.7629C57.1125 46.8986 56.0679 48.6459 53.5435 49.3448C51.0191 48.6459 49.8875 46.8986 49.6263 45.7629L50.9321 43.8409C51.8025 44.103 52.673 44.2777 53.5435 44.2777ZM45.3609 46.3744H47.9724C48.4947 47.947 49.9745 50.2184 53.1953 51.092H53.2824C53.3694 51.092 53.4565 51.092 53.4565 51.092C53.5435 51.092 53.6306 51.092 53.6306 51.092C56.9384 50.2184 58.4183 48.0343 58.9406 46.3744H61.552C62.5966 46.3744 63.5541 46.8112 64.1635 47.5975L53.5435 53.1014L42.7495 47.5975C43.3588 46.8112 44.3163 46.3744 45.3609 46.3744ZM35.3503 62.624C35.0892 62.4493 34.828 62.1872 34.828 61.8378V56.6833C34.828 56.3339 35.0021 56.0718 35.3503 55.897C37.2654 54.936 38.4841 54.4992 39.7028 54.4119H39.7898C40.3992 54.4119 40.8344 54.8487 40.8344 55.4602C40.8344 56.0718 40.3121 56.5086 39.7898 56.5086H39.7028H39.6157L37.5265 56.9454C37.0913 57.0328 36.7431 57.4696 36.8301 57.9938C36.9172 58.4306 37.2654 58.6927 37.7006 58.6927C37.7877 58.6927 37.7877 58.6927 37.8747 58.6927L39.7898 58.2559C40.3992 58.2559 40.8344 58.6927 40.8344 59.2168C40.8344 59.741 40.3992 60.1778 39.7898 60.2652L37.8747 59.9158C37.4395 59.8284 36.9172 60.0905 36.8301 60.6147C36.7431 61.0515 37.0042 61.5757 37.5265 61.663L39.6157 62.0998C39.7028 62.0998 39.7028 62.0998 39.7898 62.0998C40.138 62.0998 40.3992 62.1872 40.5732 62.4493C40.7473 62.624 40.8344 62.8861 40.8344 63.1482C40.8344 63.6724 40.2251 64.1092 39.6157 64.1092V64.9828L39.5287 64.1092C38.8323 64.1092 38.1359 63.9345 37.3524 63.585C36.8301 63.4103 36.2208 63.1482 35.3503 62.624ZM38.6582 65.7691C39.0064 65.8565 39.2675 65.8565 39.6157 65.8565H39.7028C41.2696 65.8565 42.5754 64.7208 42.6624 63.2356C42.7495 62.4493 42.4883 61.7504 41.966 61.2262C42.4013 60.702 42.7495 60.0905 42.7495 59.3042C42.7495 58.6053 42.4883 57.9064 41.966 57.3822C42.4013 56.858 42.7495 56.2465 42.7495 55.4602C42.7495 53.975 41.5308 52.752 40.051 52.6646H39.9639C39.5287 52.6646 39.1805 52.6646 38.8323 52.752V47.2481L52.673 54.5866V75.5538L38.6582 68.39V65.7691ZM68.4289 68.39L54.414 75.6412V54.674L65.9045 48.7332L68.4289 47.4228V52.9267C68.0807 52.8393 67.6454 52.8393 67.2972 52.8393C67.2102 52.8393 67.2102 52.8393 67.2102 52.8393C65.7304 52.9267 64.5117 54.1498 64.5117 55.6349C64.5117 56.3339 64.7728 57.0328 65.2951 57.5569C64.8599 58.0811 64.5117 58.6927 64.5117 59.4789C64.5117 60.1779 64.7728 60.8768 65.2951 61.4009C64.7728 61.9251 64.5117 62.7114 64.5987 63.4103C64.6858 64.8955 65.9915 66.0312 67.5584 66.0312H67.6454C69.3864 65.7691 67.8195 65.8565 68.4289 68.39ZM72.259 61.9251C72.259 62.2746 72.0849 62.5367 71.7367 62.7114C70.431 63.4103 68.9512 64.1092 67.4713 64.1966C67.3843 64.1966 67.2972 64.1966 67.3843 64.1966C66.7749 64.1966 66.2527 63.7598 66.1656 63.2356C66.1656 62.9735 66.2527 62.7114 66.4268 62.5367C66.6009 62.2746 66.949 62.1872 67.2102 62.1872C67.3843 62.1872 67.3843 62.1872 69.4735 61.7504C69.9087 61.663 70.2569 61.2262 70.1698 60.702C69.9087 59.3916 68.1677 60.3526 67.2102 60.4399C66.6009 60.4399 66.1656 60.0031 66.1656 59.3916C66.1656 58.8674 66.6009 58.4306 67.2102 58.4306C68.0807 58.5179 69.9087 59.4789 70.1698 58.1685C70.2569 57.7317 69.9958 57.2075 69.4735 57.1201L67.4713 56.5959H67.3843H67.2972C66.6879 56.5959 66.2527 56.1591 66.2527 55.5476C66.2527 54.936 66.7749 54.4992 67.2972 54.4992H67.3843C68.8641 54.4992 70.431 55.2855 71.7367 55.9844C71.9979 56.1591 72.259 56.4212 72.259 56.7707V61.9251Z"/>
</mask>
<path d="M72.5202 54.4119C71.7367 53.975 70.9533 53.6256 70.1698 53.3635V47.4228C70.1698 46.8112 69.8217 46.2871 69.2994 45.9376C68.7771 45.5881 68.1677 45.5881 67.5584 45.8502L65.8174 46.7239C64.8599 45.4134 63.293 44.5398 61.6391 44.5398H58.7665L57.7219 42.9672C59.3758 41.9189 60.7686 40.1716 61.7261 38.0749C64.1635 37.6381 64.8599 33.2699 62.8578 31.7847C62.5966 25.9314 58.9406 22 53.5435 22C48.1465 22 44.4904 25.9314 44.2293 31.7847C42.2272 33.2699 42.9236 37.6381 45.3609 38.0749C46.3185 40.259 47.7113 41.9189 49.3652 42.9672L48.2335 44.6271H45.3609C43.707 44.6271 42.1401 45.4134 41.1826 46.8112L39.4416 45.9376C38.9193 45.6755 38.2229 45.6755 37.7006 46.025C37.1783 46.3744 36.8301 46.8986 36.8301 47.5101V53.4509C36.0467 53.713 35.2633 54.1498 34.4798 54.4992C33.6093 54.936 33 55.8097 33 56.858V62.0125C33 62.9735 33.5223 63.8471 34.4798 64.3713C35.1762 64.7208 35.9597 65.0702 36.7431 65.4197H36.8301V68.5647C36.8301 69.2637 37.1783 69.7878 37.7877 70.1373L53.1083 78C53.2824 77.9126 53.4565 77.9126 53.5435 77.9126C53.6306 77.9126 53.8047 77.9126 53.8917 77.8253L69.2123 69.9626C69.8217 69.7005 70.1698 69.0889 70.1698 68.39V65.2449C70.9533 64.9828 71.7367 64.546 72.5202 64.1966C73.3907 63.7598 74 62.8861 74 61.8378V56.6833C74 55.7223 73.4777 54.8487 72.5202 54.4119ZM53.5435 23.7473C57.0255 23.7473 59.5499 25.6693 60.5945 28.8144L60.0722 28.1154C59.811 27.766 59.2887 27.5913 58.9406 27.8534C55.3716 30.1248 51.8025 30.1248 48.2335 27.8534C47.8854 27.5913 47.3631 27.6786 47.1019 28.1154L46.5796 28.8144C47.5372 25.6693 50.0616 23.7473 53.5435 23.7473ZM46.8408 36.8518C46.6667 36.5023 46.4055 36.2402 46.0573 36.2402C45.9703 36.2402 45.9703 36.2402 45.8832 36.2402H45.7962C45.535 36.2402 45.0127 35.7161 44.9257 34.7551C44.8386 33.7941 45.1868 33.1825 45.448 33.0952C45.7091 33.0078 45.7962 32.9204 45.9703 32.6583L48.0594 29.688C51.8025 31.7847 55.5456 31.7847 59.2017 29.688L61.2909 32.6583C61.3779 32.8331 61.552 33.0078 61.8132 33.0952C62.0743 33.1825 62.4225 33.7941 62.3355 34.7551C62.2484 35.7161 61.7261 36.2402 61.465 36.2402C61.0297 36.1529 60.5945 36.415 60.4204 36.7644C59.1147 40.259 56.5032 42.3557 53.7176 42.3557C50.9321 42.3557 48.1465 40.3463 46.8408 36.8518ZM53.5435 44.2777C54.414 44.2777 55.2845 44.103 56.155 43.8409L57.4607 45.7629C57.1125 46.8986 56.0679 48.6459 53.5435 49.3448C51.0191 48.6459 49.8875 46.8986 49.6263 45.7629L50.9321 43.8409C51.8025 44.103 52.673 44.2777 53.5435 44.2777ZM45.3609 46.3744H47.9724C48.4947 47.947 49.9745 50.2184 53.1953 51.092H53.2824C53.3694 51.092 53.4565 51.092 53.4565 51.092C53.5435 51.092 53.6306 51.092 53.6306 51.092C56.9384 50.2184 58.4183 48.0343 58.9406 46.3744H61.552C62.5966 46.3744 63.5541 46.8112 64.1635 47.5975L53.5435 53.1014L42.7495 47.5975C43.3588 46.8112 44.3163 46.3744 45.3609 46.3744ZM35.3503 62.624C35.0892 62.4493 34.828 62.1872 34.828 61.8378V56.6833C34.828 56.3339 35.0021 56.0718 35.3503 55.897C37.2654 54.936 38.4841 54.4992 39.7028 54.4119H39.7898C40.3992 54.4119 40.8344 54.8487 40.8344 55.4602C40.8344 56.0718 40.3121 56.5086 39.7898 56.5086H39.7028H39.6157L37.5265 56.9454C37.0913 57.0328 36.7431 57.4696 36.8301 57.9938C36.9172 58.4306 37.2654 58.6927 37.7006 58.6927C37.7877 58.6927 37.7877 58.6927 37.8747 58.6927L39.7898 58.2559C40.3992 58.2559 40.8344 58.6927 40.8344 59.2168C40.8344 59.741 40.3992 60.1778 39.7898 60.2652L37.8747 59.9158C37.4395 59.8284 36.9172 60.0905 36.8301 60.6147C36.7431 61.0515 37.0042 61.5757 37.5265 61.663L39.6157 62.0998C39.7028 62.0998 39.7028 62.0998 39.7898 62.0998C40.138 62.0998 40.3992 62.1872 40.5732 62.4493C40.7473 62.624 40.8344 62.8861 40.8344 63.1482C40.8344 63.6724 40.2251 64.1092 39.6157 64.1092V64.9828L39.5287 64.1092C38.8323 64.1092 38.1359 63.9345 37.3524 63.585C36.8301 63.4103 36.2208 63.1482 35.3503 62.624ZM38.6582 65.7691C39.0064 65.8565 39.2675 65.8565 39.6157 65.8565H39.7028C41.2696 65.8565 42.5754 64.7208 42.6624 63.2356C42.7495 62.4493 42.4883 61.7504 41.966 61.2262C42.4013 60.702 42.7495 60.0905 42.7495 59.3042C42.7495 58.6053 42.4883 57.9064 41.966 57.3822C42.4013 56.858 42.7495 56.2465 42.7495 55.4602C42.7495 53.975 41.5308 52.752 40.051 52.6646H39.9639C39.5287 52.6646 39.1805 52.6646 38.8323 52.752V47.2481L52.673 54.5866V75.5538L38.6582 68.39V65.7691ZM68.4289 68.39L54.414 75.6412V54.674L65.9045 48.7332L68.4289 47.4228V52.9267C68.0807 52.8393 67.6454 52.8393 67.2972 52.8393C67.2102 52.8393 67.2102 52.8393 67.2102 52.8393C65.7304 52.9267 64.5117 54.1498 64.5117 55.6349C64.5117 56.3339 64.7728 57.0328 65.2951 57.5569C64.8599 58.0811 64.5117 58.6927 64.5117 59.4789C64.5117 60.1779 64.7728 60.8768 65.2951 61.4009C64.7728 61.9251 64.5117 62.7114 64.5987 63.4103C64.6858 64.8955 65.9915 66.0312 67.5584 66.0312H67.6454C69.3864 65.7691 67.8195 65.8565 68.4289 68.39ZM72.259 61.9251C72.259 62.2746 72.0849 62.5367 71.7367 62.7114C70.431 63.4103 68.9512 64.1092 67.4713 64.1966C67.3843 64.1966 67.2972 64.1966 67.3843 64.1966C66.7749 64.1966 66.2527 63.7598 66.1656 63.2356C66.1656 62.9735 66.2527 62.7114 66.4268 62.5367C66.6009 62.2746 66.949 62.1872 67.2102 62.1872C67.3843 62.1872 67.3843 62.1872 69.4735 61.7504C69.9087 61.663 70.2569 61.2262 70.1698 60.702C69.9087 59.3916 68.1677 60.3526 67.2102 60.4399C66.6009 60.4399 66.1656 60.0031 66.1656 59.3916C66.1656 58.8674 66.6009 58.4306 67.2102 58.4306C68.0807 58.5179 69.9087 59.4789 70.1698 58.1685C70.2569 57.7317 69.9958 57.2075 69.4735 57.1201L67.4713 56.5959H67.3843H67.2972C66.6879 56.5959 66.2527 56.1591 66.2527 55.5476C66.2527 54.936 66.7749 54.4992 67.2972 54.4992H67.3843C68.8641 54.4992 70.431 55.2855 71.7367 55.9844C71.9979 56.1591 72.259 56.4212 72.259 56.7707V61.9251Z" fill="#4F5D75"/>
<path d="M72.5202 54.4119C71.7367 53.975 70.9533 53.6256 70.1698 53.3635V47.4228C70.1698 46.8112 69.8217 46.2871 69.2994 45.9376C68.7771 45.5881 68.1677 45.5881 67.5584 45.8502L65.8174 46.7239C64.8599 45.4134 63.293 44.5398 61.6391 44.5398H58.7665L57.7219 42.9672C59.3758 41.9189 60.7686 40.1716 61.7261 38.0749C64.1635 37.6381 64.8599 33.2699 62.8578 31.7847C62.5966 25.9314 58.9406 22 53.5435 22C48.1465 22 44.4904 25.9314 44.2293 31.7847C42.2272 33.2699 42.9236 37.6381 45.3609 38.0749C46.3185 40.259 47.7113 41.9189 49.3652 42.9672L48.2335 44.6271H45.3609C43.707 44.6271 42.1401 45.4134 41.1826 46.8112L39.4416 45.9376C38.9193 45.6755 38.2229 45.6755 37.7006 46.025C37.1783 46.3744 36.8301 46.8986 36.8301 47.5101V53.4509C36.0467 53.713 35.2633 54.1498 34.4798 54.4992C33.6093 54.936 33 55.8097 33 56.858V62.0125C33 62.9735 33.5223 63.8471 34.4798 64.3713C35.1762 64.7208 35.9597 65.0702 36.7431 65.4197H36.8301V68.5647C36.8301 69.2637 37.1783 69.7878 37.7877 70.1373L53.1083 78C53.2824 77.9126 53.4565 77.9126 53.5435 77.9126C53.6306 77.9126 53.8047 77.9126 53.8917 77.8253L69.2123 69.9626C69.8217 69.7005 70.1698 69.0889 70.1698 68.39V65.2449C70.9533 64.9828 71.7367 64.546 72.5202 64.1966C73.3907 63.7598 74 62.8861 74 61.8378V56.6833C74 55.7223 73.4777 54.8487 72.5202 54.4119ZM53.5435 23.7473C57.0255 23.7473 59.5499 25.6693 60.5945 28.8144L60.0722 28.1154C59.811 27.766 59.2887 27.5913 58.9406 27.8534C55.3716 30.1248 51.8025 30.1248 48.2335 27.8534C47.8854 27.5913 47.3631 27.6786 47.1019 28.1154L46.5796 28.8144C47.5372 25.6693 50.0616 23.7473 53.5435 23.7473ZM46.8408 36.8518C46.6667 36.5023 46.4055 36.2402 46.0573 36.2402C45.9703 36.2402 45.9703 36.2402 45.8832 36.2402H45.7962C45.535 36.2402 45.0127 35.7161 44.9257 34.7551C44.8386 33.7941 45.1868 33.1825 45.448 33.0952C45.7091 33.0078 45.7962 32.9204 45.9703 32.6583L48.0594 29.688C51.8025 31.7847 55.5456 31.7847 59.2017 29.688L61.2909 32.6583C61.3779 32.8331 61.552 33.0078 61.8132 33.0952C62.0743 33.1825 62.4225 33.7941 62.3355 34.7551C62.2484 35.7161 61.7261 36.2402 61.465 36.2402C61.0297 36.1529 60.5945 36.415 60.4204 36.7644C59.1147 40.259 56.5032 42.3557 53.7176 42.3557C50.9321 42.3557 48.1465 40.3463 46.8408 36.8518ZM53.5435 44.2777C54.414 44.2777 55.2845 44.103 56.155 43.8409L57.4607 45.7629C57.1125 46.8986 56.0679 48.6459 53.5435 49.3448C51.0191 48.6459 49.8875 46.8986 49.6263 45.7629L50.9321 43.8409C51.8025 44.103 52.673 44.2777 53.5435 44.2777ZM45.3609 46.3744H47.9724C48.4947 47.947 49.9745 50.2184 53.1953 51.092H53.2824C53.3694 51.092 53.4565 51.092 53.4565 51.092C53.5435 51.092 53.6306 51.092 53.6306 51.092C56.9384 50.2184 58.4183 48.0343 58.9406 46.3744H61.552C62.5966 46.3744 63.5541 46.8112 64.1635 47.5975L53.5435 53.1014L42.7495 47.5975C43.3588 46.8112 44.3163 46.3744 45.3609 46.3744ZM35.3503 62.624C35.0892 62.4493 34.828 62.1872 34.828 61.8378V56.6833C34.828 56.3339 35.0021 56.0718 35.3503 55.897C37.2654 54.936 38.4841 54.4992 39.7028 54.4119H39.7898C40.3992 54.4119 40.8344 54.8487 40.8344 55.4602C40.8344 56.0718 40.3121 56.5086 39.7898 56.5086H39.7028H39.6157L37.5265 56.9454C37.0913 57.0328 36.7431 57.4696 36.8301 57.9938C36.9172 58.4306 37.2654 58.6927 37.7006 58.6927C37.7877 58.6927 37.7877 58.6927 37.8747 58.6927L39.7898 58.2559C40.3992 58.2559 40.8344 58.6927 40.8344 59.2168C40.8344 59.741 40.3992 60.1778 39.7898 60.2652L37.8747 59.9158C37.4395 59.8284 36.9172 60.0905 36.8301 60.6147C36.7431 61.0515 37.0042 61.5757 37.5265 61.663L39.6157 62.0998C39.7028 62.0998 39.7028 62.0998 39.7898 62.0998C40.138 62.0998 40.3992 62.1872 40.5732 62.4493C40.7473 62.624 40.8344 62.8861 40.8344 63.1482C40.8344 63.6724 40.2251 64.1092 39.6157 64.1092V64.9828L39.5287 64.1092C38.8323 64.1092 38.1359 63.9345 37.3524 63.585C36.8301 63.4103 36.2208 63.1482 35.3503 62.624ZM38.6582 65.7691C39.0064 65.8565 39.2675 65.8565 39.6157 65.8565H39.7028C41.2696 65.8565 42.5754 64.7208 42.6624 63.2356C42.7495 62.4493 42.4883 61.7504 41.966 61.2262C42.4013 60.702 42.7495 60.0905 42.7495 59.3042C42.7495 58.6053 42.4883 57.9064 41.966 57.3822C42.4013 56.858 42.7495 56.2465 42.7495 55.4602C42.7495 53.975 41.5308 52.752 40.051 52.6646H39.9639C39.5287 52.6646 39.1805 52.6646 38.8323 52.752V47.2481L52.673 54.5866V75.5538L38.6582 68.39V65.7691ZM68.4289 68.39L54.414 75.6412V54.674L65.9045 48.7332L68.4289 47.4228V52.9267C68.0807 52.8393 67.6454 52.8393 67.2972 52.8393C67.2102 52.8393 67.2102 52.8393 67.2102 52.8393C65.7304 52.9267 64.5117 54.1498 64.5117 55.6349C64.5117 56.3339 64.7728 57.0328 65.2951 57.5569C64.8599 58.0811 64.5117 58.6927 64.5117 59.4789C64.5117 60.1779 64.7728 60.8768 65.2951 61.4009C64.7728 61.9251 64.5117 62.7114 64.5987 63.4103C64.6858 64.8955 65.9915 66.0312 67.5584 66.0312H67.6454C69.3864 65.7691 67.8195 65.8565 68.4289 68.39ZM72.259 61.9251C72.259 62.2746 72.0849 62.5367 71.7367 62.7114C70.431 63.4103 68.9512 64.1092 67.4713 64.1966C67.3843 64.1966 67.2972 64.1966 67.3843 64.1966C66.7749 64.1966 66.2527 63.7598 66.1656 63.2356C66.1656 62.9735 66.2527 62.7114 66.4268 62.5367C66.6009 62.2746 66.949 62.1872 67.2102 62.1872C67.3843 62.1872 67.3843 62.1872 69.4735 61.7504C69.9087 61.663 70.2569 61.2262 70.1698 60.702C69.9087 59.3916 68.1677 60.3526 67.2102 60.4399C66.6009 60.4399 66.1656 60.0031 66.1656 59.3916C66.1656 58.8674 66.6009 58.4306 67.2102 58.4306C68.0807 58.5179 69.9087 59.4789 70.1698 58.1685C70.2569 57.7317 69.9958 57.2075 69.4735 57.1201L67.4713 56.5959H67.3843H67.2972C66.6879 56.5959 66.2527 56.1591 66.2527 55.5476C66.2527 54.936 66.7749 54.4992 67.2972 54.4992H67.3843C68.8641 54.4992 70.431 55.2855 71.7367 55.9844C71.9979 56.1591 72.259 56.4212 72.259 56.7707V61.9251Z" stroke="#4F5D75" stroke-width="2" mask="url(#path-3-inside-1_340_192)"/>
</g>
</g>
<defs>
<filter id="filter0_d_340_192" x="0" y="0" width="108" height="108" filterUnits="userSpaceOnUse" color-interpolation-filters="sRGB">
<feFlood flood-opacity="0" result="BackgroundImageFix"/>
<feColorMatrix in="SourceAlpha" type="matrix" values="0 0 0 0 0 0 0 0 0 0 0 0 0 0 0 0 0 0 127 0" result="hardAlpha"/>
<feOffset dy="4"/>
<feGaussianBlur stdDeviation="2"/>
<feComposite in2="hardAlpha" operator="out"/>
<feColorMatrix type="matrix" values="0 0 0 0 0 0 0 0 0 0 0 0 0 0 0 0 0 0 0.25 0"/>
<feBlend mode="normal" in2="BackgroundImageFix" result="effect1_dropShadow_340_192"/>
<feBlend mode="normal" in="SourceGraphic" in2="effect1_dropShadow_340_192" result="shape"/>
</filter>
<filter id="filter1_d_340_192" x="29" y="22" width="49" height="64" filterUnits="userSpaceOnUse" color-interpolation-filters="sRGB">
<feFlood flood-opacity="0" result="BackgroundImageFix"/>
<feColorMatrix in="SourceAlpha" type="matrix" values="0 0 0 0 0 0 0 0 0 0 0 0 0 0 0 0 0 0 127 0" result="hardAlpha"/>
<feOffset dy="4"/>
<feGaussianBlur stdDeviation="2"/>
<feComposite in2="hardAlpha" operator="out"/>
<feColorMatrix type="matrix" values="0 0 0 0 0 0 0 0 0 0 0 0 0 0 0 0 0 0 0.25 0"/>
<feBlend mode="normal" in2="BackgroundImageFix" result="effect1_dropShadow_340_192"/>
<feBlend mode="normal" in="SourceGraphic" in2="effect1_dropShadow_340_192" result="shape"/>
</filter>
</defs>
</svg>
