<svg width="38" height="39" viewBox="0 0 38 39" fill="none" xmlns="http://www.w3.org/2000/svg">
<path d="M34.4375 0.894181H3.5625C2.86197 0.887023 2.18722 1.15917 1.68631 1.65091C1.18539 2.14266 0.899238 2.81382 0.890625 3.51714V34.641C0.900795 35.3432 1.18764 36.0129 1.68838 36.5033C2.18912 36.9938 2.86298 37.2651 3.5625 37.258H34.4375C35.1381 37.2635 35.8124 36.9905 36.313 36.4984C36.8137 36.0064 37.1 35.3354 37.1094 34.632V3.5082C37.0969 2.80694 36.8092 2.13898 36.3089 1.64949C35.8086 1.16001 35.1361 0.888571 34.4375 0.894181ZM11.6286 31.8928H6.25219V14.5246H11.6286V31.8928ZM8.95672 12.158C8.34007 12.1586 7.7371 11.9756 7.22409 11.632C6.71109 11.2885 6.31109 10.7999 6.0747 10.2281C5.83831 9.65626 5.77616 9.0269 5.8961 8.4196C6.01604 7.81231 6.31269 7.25438 6.74852 6.81639C7.18434 6.3784 7.73977 6.08003 8.34452 5.95903C8.94928 5.83803 9.57619 5.89983 10.146 6.13662C10.7157 6.37341 11.2027 6.77455 11.5454 7.28928C11.888 7.80402 12.0709 8.40922 12.0709 9.02834C12.0702 9.43984 11.9886 9.84714 11.8308 10.2269C11.6731 10.6067 11.4423 10.9516 11.1516 11.2417C10.861 11.5319 10.5162 11.7616 10.137 11.9178C9.75787 12.074 9.35173 12.1536 8.94188 12.1521L8.95672 12.158ZM31.7656 31.8928H26.3892V23.4427C26.3892 21.4308 26.3536 18.8406 23.5956 18.8406C20.8377 18.8406 20.3686 21.0344 20.3686 23.3116V31.8928H15.0011V14.5246H20.1548V16.9091H20.2261C20.9445 15.544 22.6961 14.1044 25.3116 14.1044C30.7563 14.0924 31.7656 17.6901 31.7656 22.3548V31.8928Z" fill="#C1C1C1"/>
</svg>
