<svg width="66" height="60" viewBox="0 0 66 60" fill="none" xmlns="http://www.w3.org/2000/svg">
<path d="M3 15.1245L29.3 34.8828C30.3955 35.7064 31.683 36.146 33 36.146C34.317 36.146 35.6045 35.7064 36.7 34.8828L63 15.1245M9.66667 56.4441H56.3333C58.1014 56.4441 59.7971 55.6526 61.0474 54.2437C62.2976 52.8348 63 50.9239 63 48.9314V11.3681C63 9.37565 62.2976 7.46477 61.0474 6.05588C59.7971 4.64698 58.1014 3.85547 56.3333 3.85547H9.66667C7.89856 3.85547 6.20286 4.64698 4.95262 6.05588C3.70238 7.46477 3 9.37565 3 11.3681V48.9314C3 50.9239 3.70238 52.8348 4.95262 54.2437C6.20286 55.6526 7.89856 56.4441 9.66667 56.4441Z" stroke="white" stroke-width="6" stroke-linecap="round" stroke-linejoin="round"/>
</svg>
