<svg width="31" height="34" viewBox="0 0 31 34" fill="none" xmlns="http://www.w3.org/2000/svg">
<path d="M3.875 11.061L13.414 18.0358C13.8114 18.3266 14.2784 18.4817 14.756 18.4817C15.2337 18.4817 15.7007 18.3266 16.098 18.0358L25.6371 11.061M6.29301 25.6471H23.2191C23.8604 25.6471 24.4754 25.3677 24.9288 24.8703C25.3823 24.373 25.6371 23.6984 25.6371 22.9951V9.73502C25.6371 9.03166 25.3823 8.35711 24.9288 7.85976C24.4754 7.36241 23.8604 7.08301 23.2191 7.08301H6.29301C5.65171 7.08301 5.03668 7.36241 4.58322 7.85976C4.12975 8.35711 3.875 9.03166 3.875 9.73502V22.9951C3.875 23.6984 4.12975 24.373 4.58322 24.8703C5.03668 25.3677 5.65171 25.6471 6.29301 25.6471Z" stroke="white" stroke-width="2.5" stroke-linecap="round" stroke-linejoin="round"/>
</svg>
