<svg width="37" height="35" viewBox="0 0 37 35" fill="none" xmlns="http://www.w3.org/2000/svg">
<g clip-path="url(#clip0_260_54)">
<path d="M33.3467 26.9446C31.4003 26.9446 29.871 27.0835 28.6197 27.639C28.2026 27.7779 27.6465 27.7779 27.6465 28.1946L28.0636 29.0279C28.3416 29.4446 28.7587 30.139 29.3148 30.5557L30.8442 31.6668L33.7638 33.0557L35.2932 34.3057L36.1273 34.8612L35.7102 34.0279L35.0151 33.3335C34.3199 32.3612 33.4858 31.5279 32.5125 30.8335C31.6784 30.4168 30.01 29.5835 29.7319 28.7501H29.5929L31.2613 28.3335L33.7638 27.9168L34.8761 27.639V27.3612L33.6248 25.9723C32.5125 24.8612 31.1222 23.889 29.7319 22.9168L27.2294 21.8057C26.9513 21.6668 26.3952 21.5279 26.2562 21.2501L25.2829 19.4446L23.1975 15.2779L22.0852 12.5001C19.5827 8.33346 16.8021 5.83346 12.6312 3.47234C11.797 2.91679 10.6847 2.7779 9.57249 2.50012L7.76509 2.36123L6.65284 1.5279C5.26254 0.694566 1.64774 -1.24988 0.674527 1.25012C-0.0206263 2.7779 1.64774 4.30568 2.20386 5.13901L3.45514 6.94457L3.87223 8.19457C4.28932 9.30568 4.56738 10.5557 5.12351 11.5279L5.95769 12.9168C6.23575 13.1946 6.51381 13.3335 6.65284 13.7501C6.23575 14.3057 6.23575 15.0001 6.09672 15.5557C5.12351 18.3335 5.5406 21.6668 6.79187 23.7501C7.06994 24.3057 8.04315 25.6946 9.29443 25.139C10.4067 24.7223 10.1286 23.3335 10.4067 22.0835L10.5457 21.5279L11.6579 23.4723C12.3531 24.7223 13.6044 25.9723 14.7166 26.8057C15.2727 27.2223 15.8289 27.9168 16.524 28.1946L15.9679 27.639L14.7166 26.2501C13.6044 24.8612 12.7702 23.3335 11.936 21.8057L10.9628 19.4446L10.5457 18.6112C10.1286 19.1668 9.57249 19.5835 9.29443 20.2779C8.87733 21.2501 8.87733 22.639 8.7383 23.889H8.59927C7.76509 23.7501 7.48703 22.9168 7.20897 22.2223C6.51381 20.5557 6.37478 17.7779 7.06994 15.8335C7.20897 15.2779 7.90412 13.7501 7.62606 13.1946C7.48703 12.7779 7.06994 12.5001 6.79187 12.2223L5.81866 10.5557L4.42835 6.38901L3.17708 4.58346C2.75999 3.88901 2.20386 3.47234 1.78677 2.63901C1.64774 2.36123 1.50871 1.94457 1.78677 1.66679L2.06483 1.38901C2.34289 1.11123 3.31611 1.38901 3.59417 1.5279C4.42835 1.94457 5.26254 2.22234 5.95769 2.7779L7.06994 3.61123H7.62606C8.46024 3.75012 9.29443 3.61123 9.98958 3.88901C11.2409 4.30568 12.4921 4.86123 13.4653 5.55568C16.663 7.50012 19.3046 10.4168 20.973 13.7501C21.3901 14.3057 21.3901 14.8612 21.6681 15.4168L23.3365 19.0279C23.8926 20.139 24.3097 21.2501 25.0049 22.2223C25.422 22.7779 26.9513 23.0557 27.5074 23.3335L29.1758 23.889L31.6784 25.5557C31.9564 25.8335 33.2077 26.5279 33.3467 26.9446Z" fill="#00546B"/>
<path d="M8.59821 5.97217L7.625 6.11106L8.45918 7.08328L9.01531 8.33328V8.19439C9.4324 8.0555 9.57143 7.63883 9.57143 7.08328L9.29337 6.52772L8.59821 5.97217Z" fill="#00546B"/>
</g>
<defs>
<clipPath id="clip0_260_54">
<rect width="35.5918" height="35" fill="white" transform="translate(0.535156)"/>
</clipPath>
</defs>
</svg>
