<svg width="38" height="39" viewBox="0 0 38 39" fill="none" xmlns="http://www.w3.org/2000/svg">
<g clip-path="url(#clip0_256_320)">
<path d="M22.7249 25.0364L13.4052 23.1312C13.3662 23.205 13.3228 23.2766 13.2752 23.3454L21.7595 35.4528L22.2713 34.9527L23.7147 26.1718C23.4707 26.071 23.2542 25.9158 23.0823 25.7187C22.9105 25.5215 22.7881 25.2878 22.7249 25.0362V25.0364ZM19.3251 13.1184C18.976 13.6423 18.3733 13.989 17.6869 13.989C17.5812 13.989 17.4785 13.9786 17.3776 13.9629L13.1274 20.4685L24.4825 15.6882C24.479 15.6434 24.4689 15.6016 24.4689 15.5557C24.4689 15.4622 24.4819 15.3716 24.4974 15.2821L19.3251 13.1184ZM19.6338 11.9329L25.1357 14.2342C25.311 14.1001 25.5115 14.001 25.7259 13.9426L26.6301 8.442L23.185 5.07181L19.3073 11.0077C19.4973 11.2827 19.6099 11.6017 19.6338 11.9329ZM31.1622 12.8756L27.7096 9.49739L26.9591 14.0582C27.1493 14.1517 27.3202 14.279 27.4632 14.4334L31.1622 12.8756ZM22.89 23.8351C23.0251 23.5951 23.2192 23.3919 23.4547 23.2437C23.6903 23.0955 23.9599 23.0071 24.2391 22.9864L25.2307 16.9532C25.1529 16.9027 25.0834 16.8423 25.0151 16.7801L13.5946 21.5884C13.6237 21.7051 13.6439 21.8242 13.6534 21.9479L22.89 23.8351ZM32.1027 13.7962L28.108 15.4777L37.9644 19.6001L38 19.5653L32.1027 13.7962ZM24.9641 26.1899L23.7635 33.4917L30.7347 26.672L25.7134 25.6463C25.5208 25.8928 25.2611 26.0812 24.9641 26.1899ZM11.4138 24.3127C11.1615 24.3127 10.9198 24.2703 10.6936 24.1952L8.37796 27.7402L7.48318 26.8655L9.67649 23.5082C9.62225 23.4423 9.5717 23.3736 9.52509 23.3024L5.55171 24.976L4.60987 24.0546L8.95909 22.2232L1.09621 20.6178L0.0207813 19.5653L0.361 19.2325L9.4283 21.0842C9.53258 20.8907 9.66609 20.7137 9.82434 20.5591L5.42346 14.2795L6.3123 13.4099L10.9102 19.9713C11.0753 19.9338 11.2442 19.9145 11.4137 19.9138C11.6078 19.9138 11.796 19.9405 11.9759 19.9858L16.2784 13.4001C15.9281 13.0446 15.7325 12.5701 15.7327 12.0763C15.7327 11.9253 15.7523 11.7789 15.7862 11.6384L10.4187 9.39342L11.3602 8.4722L16.4457 10.5998C16.7036 10.3919 17.0118 10.2524 17.3407 10.1947C17.6697 10.137 18.0082 10.1631 18.3239 10.2705L22.2907 4.19706L19.0003 0.978027L0 19.5653L19.0003 38.1525L20.87 36.3235L12.3222 24.1243C12.0362 24.2484 11.7267 24.3125 11.4138 24.3127ZM26.4401 17.2133L25.4314 23.3466C25.6076 23.4851 25.7536 23.657 25.8606 23.8519C25.9676 24.0468 26.0335 24.2608 26.0542 24.4811L31.7797 25.6503L37.0225 20.5215L27.5594 16.5635C27.2886 16.9161 26.8863 17.1496 26.4401 17.2133Z" fill="#C1C1C1"/>
</g>
<defs>
<clipPath id="clip0_256_320">
<rect width="38" height="37.1739" fill="white" transform="translate(0 0.978027)"/>
</clipPath>
</defs>
</svg>
