<svg width="57" height="62" viewBox="0 0 57 62" fill="none" xmlns="http://www.w3.org/2000/svg">
<path d="M28.2339 13.5535C21.1181 13.5535 21.5622 16.9506 21.5622 16.9506L21.571 20.4702H28.3609V21.5261H18.8723C18.8723 21.5261 14.3203 20.9572 14.3203 28.8623C14.3203 36.7655 18.2942 36.4859 18.2942 36.4859H20.6662V32.8178C20.6662 32.8178 20.5383 28.4428 24.577 28.4428H31.3109C31.3109 28.4428 35.0947 28.5103 35.0947 24.417V17.6487C35.0947 17.6487 35.6693 13.5535 28.2339 13.5535ZM24.4894 15.9198C24.8135 15.9198 25.1243 16.0615 25.3534 16.3138C25.5826 16.5661 25.7113 16.9082 25.7113 17.265C25.7113 17.6217 25.5826 17.9639 25.3534 18.2161C25.1243 18.4684 24.8135 18.6101 24.4894 18.6101C24.3289 18.6104 24.1699 18.5758 24.0216 18.5083C23.8732 18.4407 23.7384 18.3417 23.6249 18.2167C23.5114 18.0917 23.4214 17.9434 23.3601 17.78C23.2988 17.6167 23.2673 17.4417 23.2676 17.265C23.2676 16.5215 23.8141 15.9198 24.4894 15.9198Z" fill="url(#paint0_linear_201_806)"/>
<path d="M28.4376 44.2493C35.5533 44.2493 35.1092 40.8522 35.1092 40.8522L35.1005 37.3326H28.3106V36.2767H37.7982C37.7982 36.2767 42.3511 36.8456 42.3511 28.9414C42.3511 21.0373 38.3772 21.3179 38.3772 21.3179H36.0053V24.985C36.0053 24.985 36.1332 29.3599 32.0944 29.3599H25.3606C25.3606 29.3599 21.5767 29.2924 21.5767 33.3858V40.154C21.5767 40.154 21.0021 44.2493 28.4376 44.2493ZM32.182 41.883C32.0215 41.8832 31.8625 41.8486 31.7142 41.7811C31.5658 41.7136 31.431 41.6145 31.3175 41.4896C31.204 41.3646 31.114 41.2162 31.0527 41.0529C30.9914 40.8896 30.9599 40.7145 30.9601 40.5378C30.9603 40.272 31.032 40.0123 31.1663 39.7914C31.3005 39.5705 31.4912 39.3983 31.7143 39.2967C31.9374 39.1951 32.1828 39.1686 32.4196 39.2205C32.6563 39.2724 32.8738 39.4004 33.0445 39.5883C33.2152 39.7762 33.3315 40.0156 33.3786 40.2763C33.4258 40.537 33.4017 40.8072 33.3094 41.0527C33.217 41.2983 33.0607 41.5083 32.86 41.656C32.6594 41.8038 32.4234 41.8828 32.182 41.883Z" fill="url(#paint1_linear_201_806)"/>
<defs>
<linearGradient id="paint0_linear_201_806" x1="17.0137" y1="16.2361" x2="32.2061" y2="30.0822" gradientUnits="userSpaceOnUse">
<stop stop-color="#387EB8"/>
<stop offset="1" stop-color="#366994"/>
</linearGradient>
<linearGradient id="paint1_linear_201_806" x1="25.5419" y1="25.9753" x2="41.7866" y2="40.1121" gradientUnits="userSpaceOnUse">
<stop stop-color="#FFE052"/>
<stop offset="1" stop-color="#FFC331"/>
</linearGradient>
</defs>
</svg>
