<svg width="108" height="108" viewBox="0 0 108 108" fill="none" xmlns="http://www.w3.org/2000/svg">
<g filter="url(#filter0_d_337_77)">
<path d="M54 0C5.73611 0 4 1.73611 4 50C4 98.2639 5.73611 100 54 100C102.264 100 104 98.2639 104 50C104 1.73611 102.264 0 54 0Z" fill="white"/>
<g clip-path="url(#clip0_337_77)">
<g filter="url(#filter1_d_337_77)">
<path d="M61.8477 42.171C63.3979 40.9309 64.5926 39.303 65.3108 37.4522C64.4483 36.0312 63.9911 34.4013 63.9888 32.739C63.9888 27.2432 68.9286 22.7908 75.0213 22.7908C81.1141 22.7908 86.055 27.242 86.055 32.739C86.055 38.2359 81.1152 42.6872 75.0213 42.6872C72.9082 42.6955 70.8315 42.1375 69.0071 41.0712H69.0137C69.0137 41.0833 69.0071 41.0712 69.0071 41.0712C67.7315 41.877 64.8366 42.4838 61.9273 42.6452C61.7272 42.6563 61.6631 42.2915 61.8477 42.171Z" fill="#7CB2F8"/>
</g>
<g filter="url(#filter2_d_337_77)">
<path d="M46.1582 37.7495C44.608 36.5094 43.4132 34.8815 42.6951 33.0307C43.5556 31.6091 44.0109 29.9792 44.0116 28.3175C44.0116 22.8216 39.0717 18.3693 32.979 18.3693C26.8863 18.3693 21.9453 22.8205 21.9453 28.3175C21.9453 33.8144 26.8852 38.2657 32.979 38.2657C35.0921 38.274 37.1689 37.7159 38.9932 36.6497H38.9866C38.9866 36.6618 38.9932 36.6497 38.9932 36.6497C40.2688 37.4555 43.1638 38.0623 46.0731 38.2237C46.2731 38.2348 46.3372 37.87 46.1582 37.7495Z" fill="#D98285"/>
</g>
<path d="M73.8983 38.2658C73.6052 38.2657 73.3241 38.1492 73.1169 37.9419L69.8008 34.6258L71.3638 33.0629L73.6972 35.3918L78.4878 27.7273L80.3669 28.899L74.8401 37.7418C74.752 37.883 74.6332 38.0024 74.4925 38.0912C74.3519 38.18 74.193 38.2359 74.0277 38.2547C73.9848 38.2608 73.9416 38.2645 73.8983 38.2658Z" fill="#E6EEF3"/>
<path d="M37.6887 25.1904L36.1257 23.6274L32.9986 26.7545L29.8716 23.6274L28.3086 25.1904L31.4357 28.3175L28.3086 31.4445L29.8716 33.0075L32.9986 29.8805L36.1257 33.0075L37.6887 31.4445L34.5616 28.3175L37.6887 25.1904Z" fill="#E6EEF3"/>
<g filter="url(#filter3_d_337_77)">
<path d="M52.8941 52.6353C55.336 52.6353 57.3155 50.6558 57.3155 48.2139C57.3155 45.772 55.336 43.7925 52.8941 43.7925C50.4522 43.7925 48.4727 45.772 48.4727 48.2139C48.4727 50.6558 50.4522 52.6353 52.8941 52.6353Z" fill="#4F5D75"/>
</g>
<g filter="url(#filter4_d_337_77)">
<path d="M57.3152 52.6354H48.4723C46.0306 52.6354 45.1562 54.6151 45.1562 57.0568V68.1104L48.4723 69.2157L49.5777 83.5854H56.2098L57.3152 69.2157L60.6313 68.1104V57.0568C60.6313 54.6151 59.7569 52.6354 57.3152 52.6354Z" fill="#4F5D75"/>
</g>
</g>
</g>
<defs>
<filter id="filter0_d_337_77" x="0" y="0" width="108" height="108" filterUnits="userSpaceOnUse" color-interpolation-filters="sRGB">
<feFlood flood-opacity="0" result="BackgroundImageFix"/>
<feColorMatrix in="SourceAlpha" type="matrix" values="0 0 0 0 0 0 0 0 0 0 0 0 0 0 0 0 0 0 127 0" result="hardAlpha"/>
<feOffset dy="4"/>
<feGaussianBlur stdDeviation="2"/>
<feComposite in2="hardAlpha" operator="out"/>
<feColorMatrix type="matrix" values="0 0 0 0 0 0 0 0 0 0 0 0 0 0 0 0 0 0 0.25 0"/>
<feBlend mode="normal" in2="BackgroundImageFix" result="effect1_dropShadow_337_77"/>
<feBlend mode="normal" in="SourceGraphic" in2="effect1_dropShadow_337_77" result="shape"/>
</filter>
<filter id="filter1_d_337_77" x="57.7383" y="22.7908" width="32.3164" height="27.8965" filterUnits="userSpaceOnUse" color-interpolation-filters="sRGB">
<feFlood flood-opacity="0" result="BackgroundImageFix"/>
<feColorMatrix in="SourceAlpha" type="matrix" values="0 0 0 0 0 0 0 0 0 0 0 0 0 0 0 0 0 0 127 0" result="hardAlpha"/>
<feOffset dy="4"/>
<feGaussianBlur stdDeviation="2"/>
<feComposite in2="hardAlpha" operator="out"/>
<feColorMatrix type="matrix" values="0 0 0 0 0 0 0 0 0 0 0 0 0 0 0 0 0 0 0.25 0"/>
<feBlend mode="normal" in2="BackgroundImageFix" result="effect1_dropShadow_337_77"/>
<feBlend mode="normal" in="SourceGraphic" in2="effect1_dropShadow_337_77" result="shape"/>
</filter>
<filter id="filter2_d_337_77" x="17.9453" y="18.3693" width="32.3164" height="27.8965" filterUnits="userSpaceOnUse" color-interpolation-filters="sRGB">
<feFlood flood-opacity="0" result="BackgroundImageFix"/>
<feColorMatrix in="SourceAlpha" type="matrix" values="0 0 0 0 0 0 0 0 0 0 0 0 0 0 0 0 0 0 127 0" result="hardAlpha"/>
<feOffset dy="4"/>
<feGaussianBlur stdDeviation="2"/>
<feComposite in2="hardAlpha" operator="out"/>
<feColorMatrix type="matrix" values="0 0 0 0 0 0 0 0 0 0 0 0 0 0 0 0 0 0 0.25 0"/>
<feBlend mode="normal" in2="BackgroundImageFix" result="effect1_dropShadow_337_77"/>
<feBlend mode="normal" in="SourceGraphic" in2="effect1_dropShadow_337_77" result="shape"/>
</filter>
<filter id="filter3_d_337_77" x="44.4727" y="43.7925" width="16.8438" height="16.8429" filterUnits="userSpaceOnUse" color-interpolation-filters="sRGB">
<feFlood flood-opacity="0" result="BackgroundImageFix"/>
<feColorMatrix in="SourceAlpha" type="matrix" values="0 0 0 0 0 0 0 0 0 0 0 0 0 0 0 0 0 0 127 0" result="hardAlpha"/>
<feOffset dy="4"/>
<feGaussianBlur stdDeviation="2"/>
<feComposite in2="hardAlpha" operator="out"/>
<feColorMatrix type="matrix" values="0 0 0 0 0 0 0 0 0 0 0 0 0 0 0 0 0 0 0.25 0"/>
<feBlend mode="normal" in2="BackgroundImageFix" result="effect1_dropShadow_337_77"/>
<feBlend mode="normal" in="SourceGraphic" in2="effect1_dropShadow_337_77" result="shape"/>
</filter>
<filter id="filter4_d_337_77" x="41.1562" y="52.6354" width="23.4766" height="38.9501" filterUnits="userSpaceOnUse" color-interpolation-filters="sRGB">
<feFlood flood-opacity="0" result="BackgroundImageFix"/>
<feColorMatrix in="SourceAlpha" type="matrix" values="0 0 0 0 0 0 0 0 0 0 0 0 0 0 0 0 0 0 127 0" result="hardAlpha"/>
<feOffset dy="4"/>
<feGaussianBlur stdDeviation="2"/>
<feComposite in2="hardAlpha" operator="out"/>
<feColorMatrix type="matrix" values="0 0 0 0 0 0 0 0 0 0 0 0 0 0 0 0 0 0 0.25 0"/>
<feBlend mode="normal" in2="BackgroundImageFix" result="effect1_dropShadow_337_77"/>
<feBlend mode="normal" in="SourceGraphic" in2="effect1_dropShadow_337_77" result="shape"/>
</filter>
<clipPath id="clip0_337_77">
<rect width="70.7429" height="70.7429" fill="white" transform="translate(18.6289 15.0532)"/>
</clipPath>
</defs>
</svg>
