<svg width="42" height="34" viewBox="0 0 42 34" fill="none" xmlns="http://www.w3.org/2000/svg">
<g filter="url(#filter0_d_201_873)">
<g filter="url(#filter1_d_201_873)">
<path d="M41 3.6627C39.5281 4.26227 37.9466 4.66749 36.2866 4.84978C37.9811 3.91677 39.2822 2.43931 39.8948 0.678932C38.284 1.55709 36.5216 2.17581 34.6838 2.50835C33.1867 1.04324 31.0541 0.127594 28.6936 0.127594C24.1614 0.127594 20.4869 3.50309 20.4869 7.66633C20.4869 8.25729 20.5595 8.83259 20.6994 9.38451C13.8791 9.07001 7.83219 6.06873 3.78453 1.50759C3.07828 2.62103 2.67359 3.9162 2.67359 5.29763C2.67359 7.91322 4.1225 10.2206 6.32437 11.5726C5.02117 11.5351 3.74664 11.2118 2.60719 10.6296C2.60672 10.6612 2.60672 10.6927 2.60672 10.7245C2.60672 14.3771 5.43547 17.4242 9.18953 18.1168C7.98107 18.4187 6.71348 18.4629 5.48359 18.246C6.52781 21.2411 9.55859 23.4206 13.1495 23.4816C10.3409 25.5035 6.80234 26.7088 2.95766 26.7088C2.29516 26.7088 1.64203 26.6731 1 26.6035C4.63172 28.7425 8.94531 29.9906 13.5797 29.9906C28.6745 29.9906 36.9287 18.5029 36.9287 8.54063C36.9287 8.21365 36.9209 7.88853 36.905 7.56528C38.5116 6.49832 39.8983 5.17679 41 3.6627Z" fill="#C1C1C1"/>
</g>
</g>
<defs>
<filter id="filter0_d_201_873" x="0" y="0" width="42" height="34" filterUnits="userSpaceOnUse" color-interpolation-filters="sRGB">
<feFlood flood-opacity="0" result="BackgroundImageFix"/>
<feColorMatrix in="SourceAlpha" type="matrix" values="0 0 0 0 0 0 0 0 0 0 0 0 0 0 0 0 0 0 127 0" result="hardAlpha"/>
<feOffset dy="3"/>
<feGaussianBlur stdDeviation="0.5"/>
<feColorMatrix type="matrix" values="0 0 0 0 0 0 0 0 0 0 0 0 0 0 0 0 0 0 0.2 0"/>
<feBlend mode="soft-light" in2="BackgroundImageFix" result="effect1_dropShadow_201_873"/>
<feBlend mode="normal" in="SourceGraphic" in2="effect1_dropShadow_201_873" result="shape"/>
</filter>
<filter id="filter1_d_201_873" x="0" y="0.127594" width="42" height="32.863" filterUnits="userSpaceOnUse" color-interpolation-filters="sRGB">
<feFlood flood-opacity="0" result="BackgroundImageFix"/>
<feColorMatrix in="SourceAlpha" type="matrix" values="0 0 0 0 0 0 0 0 0 0 0 0 0 0 0 0 0 0 127 0" result="hardAlpha"/>
<feOffset dy="2"/>
<feGaussianBlur stdDeviation="0.5"/>
<feComposite in2="hardAlpha" operator="out"/>
<feColorMatrix type="matrix" values="0 0 0 0 0 0 0 0 0 0 0 0 0 0 0 0 0 0 0.2 0"/>
<feBlend mode="normal" in2="BackgroundImageFix" result="effect1_dropShadow_201_873"/>
<feBlend mode="normal" in="SourceGraphic" in2="effect1_dropShadow_201_873" result="shape"/>
</filter>
</defs>
</svg>
