<svg width="33" height="34" viewBox="0 0 33 34" fill="none" xmlns="http://www.w3.org/2000/svg">
<g clip-path="url(#clip0_201_777)">
<path d="M3.04161 -1.34644H30.0692C31.4513 -1.34644 32.5717 -0.162725 32.5717 1.29755V29.8525C32.5717 31.3128 31.4513 32.4965 30.0692 32.4965H3.04161C1.65945 32.4965 0.539062 31.3128 0.539062 29.8525V1.29755C0.539062 -0.162725 1.65945 -1.34644 3.04161 -1.34644Z" fill="#3178C6"/>
<path d="M19.3756 25.1561V28.8075C19.9377 29.1118 20.6025 29.34 21.3699 29.4921C22.1373 29.6443 22.9461 29.7203 23.7965 29.7203C24.6251 29.7203 25.4124 29.6366 26.1581 29.4693C26.9039 29.3019 27.5579 29.0261 28.1199 28.6421C28.682 28.2579 29.1269 27.7558 29.4549 27.1358C29.7827 26.5159 29.9466 25.7496 29.9466 24.8367C29.9466 24.175 29.8529 23.5949 29.6656 23.0966C29.4803 22.6017 29.2049 22.1501 28.8549 21.7673C28.5019 21.3793 28.0785 21.0314 27.585 20.7232C27.0913 20.4152 26.5346 20.1242 25.9149 19.8505C25.4609 19.6526 25.0539 19.4606 24.6935 19.2742C24.3333 19.0878 24.027 18.8977 23.7748 18.7036C23.5226 18.5097 23.328 18.3043 23.1911 18.0875C23.0542 17.8706 22.9858 17.6254 22.9858 17.3515C22.9858 17.1005 23.047 16.8743 23.1695 16.6727C23.292 16.4711 23.465 16.298 23.6884 16.1535C23.9117 16.0089 24.1855 15.8968 24.5098 15.8168C24.834 15.737 25.1944 15.697 25.5907 15.697C25.879 15.697 26.1834 15.7199 26.504 15.7655C26.8247 15.8111 27.1471 15.8814 27.4715 15.9766C27.7948 16.0713 28.1109 16.1915 28.4172 16.3361C28.7142 16.4751 28.9982 16.6432 29.2657 16.838V13.4264C28.7396 13.2134 28.1649 13.0556 27.5417 12.9528C26.9184 12.8501 26.2032 12.7988 25.3961 12.7988C24.5746 12.7988 23.7965 12.892 23.0615 13.0784C22.3265 13.2647 21.6797 13.5557 21.1212 13.9512C20.5628 14.3469 20.1215 14.8508 19.7971 15.4632C19.4729 16.0755 19.3108 16.8076 19.3108 17.6597C19.3108 18.7474 19.608 19.6754 20.2026 20.4438C20.797 21.212 21.6995 21.8624 22.9101 22.3949C23.357 22.5872 23.8002 22.7888 24.2395 22.9997C24.6503 23.1975 25.0052 23.4028 25.3043 23.6158C25.6033 23.8287 25.8393 24.0607 26.0122 24.3118C26.1852 24.5628 26.2716 24.8481 26.2716 25.1676C26.2731 25.3976 26.2171 25.6239 26.1095 25.8237C26.0015 26.0252 25.8374 26.2002 25.6177 26.3486C25.398 26.4969 25.1241 26.6128 24.7962 26.6965C24.4684 26.7802 24.0846 26.8221 23.6451 26.8221C22.8957 26.8221 22.1535 26.6833 21.4185 26.4055C20.6834 26.1279 20.0025 25.7115 19.3756 25.1561ZM13.6152 16.0697H18.0595V13.0632H5.67188V16.0697H10.0945V29.4559H13.6152V16.0697Z" fill="white"/>
</g>
<defs>
<clipPath id="clip0_201_777">
<rect width="32.0327" height="34" fill="white" transform="translate(0.539062)"/>
</clipPath>
</defs>
</svg>
