<svg width="108" height="108" viewBox="0 0 108 108" fill="none" xmlns="http://www.w3.org/2000/svg">
<g filter="url(#filter0_d_340_137)">
<path d="M54 0C5.73611 0 4 1.73611 4 50C4 98.2639 5.73611 100 54 100C102.264 100 104 98.2639 104 50C104 1.73611 102.264 0 54 0Z" fill="white"/>
<g clip-path="url(#clip0_340_137)">
<path d="M79 49.976C79 63.8 67.8 75 54.0229 75C40.2 75 29 63.8 29 49.976C29 36.2 40.2 25 54.0229 25C67.8 25 79 36.2 79 49.976Z" fill="#4F5D75"/>
<path d="M52.4362 65.625C52.2981 65.625 52.1656 65.5701 52.0679 65.4725C51.9702 65.3748 51.9154 65.2423 51.9154 65.1042V63.0208C51.9154 62.8827 51.9702 62.7502 52.0679 62.6525C52.1656 62.5549 52.2981 62.5 52.4362 62.5C52.5743 62.5 52.7068 62.5549 52.8045 62.6525C52.9022 62.7502 52.957 62.8827 52.957 63.0208V65.1042C52.957 65.2423 52.9022 65.3748 52.8045 65.4725C52.7068 65.5701 52.5743 65.625 52.4362 65.625ZM55.5612 65.625C55.4231 65.625 55.2906 65.5701 55.1929 65.4725C55.0952 65.3748 55.0404 65.2423 55.0404 65.1042V63.0208C55.0404 62.8827 55.0952 62.7502 55.1929 62.6525C55.2906 62.5549 55.4231 62.5 55.5612 62.5C55.6993 62.5 55.8318 62.5549 55.9295 62.6525C56.0272 62.7502 56.082 62.8827 56.082 63.0208V65.1042C56.082 65.2423 56.0272 65.3748 55.9295 65.4725C55.8318 65.5701 55.6993 65.625 55.5612 65.625ZM53.9987 37.5C53.8606 37.5 53.7281 37.4451 53.6304 37.3475C53.5327 37.2498 53.4779 37.1173 53.4779 36.9792V34.8958C53.4779 34.7577 53.5327 34.6252 53.6304 34.5275C53.7281 34.4299 53.8606 34.375 53.9987 34.375C54.1368 34.375 54.2693 34.4299 54.367 34.5275C54.4647 34.6252 54.5195 34.7577 54.5195 34.8958V36.9792C54.5195 37.1173 54.4647 37.2498 54.367 37.3475C54.2693 37.4451 54.1368 37.5 53.9987 37.5ZM67.0195 48.4375H64.9362C64.7981 48.4375 64.6656 48.3826 64.5679 48.285C64.4702 48.1873 64.4154 48.0548 64.4154 47.9167C64.4154 47.7785 64.4702 47.6461 64.5679 47.5484C64.6656 47.4507 64.7981 47.3958 64.9362 47.3958H67.0195C67.1577 47.3958 67.2901 47.4507 67.3878 47.5484C67.4855 47.6461 67.5404 47.7785 67.5404 47.9167C67.5404 48.0548 67.4855 48.1873 67.3878 48.285C67.2901 48.3826 67.1577 48.4375 67.0195 48.4375ZM43.0612 48.4375H40.9779C40.8397 48.4375 40.7073 48.3826 40.6096 48.285C40.5119 48.1873 40.457 48.0548 40.457 47.9167C40.457 47.7785 40.5119 47.6461 40.6096 47.5484C40.7073 47.4507 40.8397 47.3958 40.9779 47.3958H43.0612C43.1993 47.3958 43.3318 47.4507 43.4295 47.5484C43.5272 47.6461 43.582 47.7785 43.582 47.9167C43.582 48.0548 43.5272 48.1873 43.4295 48.285C43.3318 48.3826 43.1993 48.4375 43.0612 48.4375ZM58.1841 38.3323C58.0985 38.3323 58.0142 38.3112 57.9387 38.2708C57.8632 38.2305 57.7988 38.1721 57.7512 38.1009C57.7036 38.0298 57.6743 37.948 57.6659 37.8628C57.6575 37.7776 57.6702 37.6916 57.7029 37.6125L58.5008 35.6875C58.5551 35.5622 58.6565 35.4633 58.7831 35.412C58.9097 35.3608 59.0514 35.3613 59.1776 35.4135C59.3038 35.4657 59.4045 35.5653 59.4579 35.691C59.5113 35.8167 59.5133 35.9583 59.4633 36.0854L58.6654 38.0104C58.626 38.1057 58.5593 38.1871 58.4736 38.2444C58.3879 38.3017 58.2872 38.3323 58.1841 38.3323ZM66.0279 53.4208C65.9596 53.421 65.8919 53.4075 65.8289 53.3812L63.9039 52.5833C63.7786 52.529 63.6797 52.4276 63.6284 52.301C63.5772 52.1744 63.5777 52.0328 63.6299 51.9065C63.6821 51.7803 63.7817 51.6797 63.9074 51.6262C64.0331 51.5728 64.1747 51.5708 64.3018 51.6208L66.2268 52.4187C66.3382 52.4648 66.4301 52.5481 66.4869 52.6543C66.5438 52.7606 66.562 52.8832 66.5385 53.0014C66.5151 53.1196 66.4513 53.226 66.3582 53.3025C66.2651 53.379 66.1484 53.4208 66.0279 53.4208ZM43.8935 44.2521C43.8252 44.2522 43.7576 44.2388 43.6945 44.2125L41.7695 43.4146C41.6442 43.3602 41.5453 43.2588 41.4941 43.1322C41.4428 43.0057 41.4433 42.864 41.4955 42.7378C41.5477 42.6116 41.6473 42.5109 41.773 42.4575C41.8987 42.404 42.0404 42.4021 42.1674 42.4521L44.0924 43.25C44.2038 43.2961 44.2957 43.3793 44.3525 43.4856C44.4094 43.5918 44.4276 43.7145 44.4041 43.8327C44.3807 43.9509 44.317 44.0573 44.2238 44.1337C44.1307 44.2102 44.014 44.252 43.8935 44.2521ZM61.7331 40.7031C61.6301 40.7031 61.5295 40.6726 61.4439 40.6154C61.3583 40.5582 61.2916 40.477 61.2521 40.3819C61.2127 40.2869 61.2023 40.1822 61.2222 40.0813C61.2422 39.9803 61.2917 39.8875 61.3643 39.8146L62.8372 38.3417C62.9355 38.2468 63.067 38.1943 63.2036 38.1955C63.3402 38.1967 63.4708 38.2514 63.5674 38.348C63.6639 38.4446 63.7187 38.5752 63.7199 38.7118C63.7211 38.8483 63.6686 38.9799 63.5737 39.0781L62.1008 40.551C62.0525 40.5993 61.9952 40.6376 61.9321 40.6637C61.869 40.6898 61.8014 40.7032 61.7331 40.7031ZM44.7914 57.6448C44.6885 57.6448 44.5879 57.6142 44.5023 57.5571C44.4167 57.4999 44.3499 57.4187 44.3105 57.3236C44.271 57.2285 44.2606 57.1239 44.2806 57.0229C44.3005 56.9219 44.35 56.8291 44.4227 56.7562L45.8956 55.2833C45.9938 55.1885 46.1254 55.136 46.2619 55.1371C46.3985 55.1383 46.5291 55.1931 46.6257 55.2897C46.7223 55.3862 46.777 55.5169 46.7782 55.6534C46.7794 55.79 46.7269 55.9216 46.632 56.0198L45.1591 57.4927C45.1108 57.541 45.0535 57.5793 44.9904 57.6054C44.9273 57.6315 44.8597 57.6449 44.7914 57.6448ZM63.206 57.6448C63.0678 57.6448 62.9352 57.5901 62.8372 57.4927L61.3643 56.0198C61.2694 55.9216 61.217 55.79 61.2181 55.6534C61.2193 55.5169 61.2741 55.3862 61.3707 55.2897C61.4672 55.1931 61.5979 55.1383 61.7344 55.1371C61.871 55.136 62.0026 55.1885 62.1008 55.2833L63.5737 56.7562C63.6463 56.8291 63.6957 56.9218 63.7157 57.0227C63.7357 57.1235 63.7254 57.2281 63.6861 57.3231C63.6468 57.4181 63.5802 57.4994 63.4947 57.5566C63.4093 57.6139 63.3088 57.6446 63.206 57.6448ZM46.2643 40.7031C46.1261 40.7031 45.9936 40.6485 45.8956 40.551L44.4227 39.0781C44.3278 38.9799 44.2753 38.8483 44.2765 38.7118C44.2777 38.5752 44.3324 38.4446 44.429 38.348C44.5256 38.2514 44.6562 38.1967 44.7928 38.1955C44.9293 38.1943 45.0609 38.2468 45.1591 38.3417L46.632 39.8146C46.7046 39.8874 46.7541 39.9801 46.7741 40.081C46.7941 40.1819 46.7837 40.2864 46.7444 40.3815C46.7051 40.4765 46.6385 40.5577 46.5531 40.615C46.4676 40.6722 46.3672 40.7029 46.2643 40.7031ZM64.1039 44.2521C63.9834 44.252 63.8667 44.2102 63.7735 44.1337C63.6804 44.0573 63.6167 43.9509 63.5933 43.8327C63.5698 43.7145 63.588 43.5918 63.6449 43.4856C63.7017 43.3793 63.7936 43.2961 63.9049 43.25L65.83 42.4521C65.957 42.4021 66.0987 42.404 66.2244 42.4575C66.3501 42.5109 66.4497 42.6116 66.5019 42.7378C66.5541 42.864 66.5546 43.0057 66.5033 43.1322C66.4521 43.2588 66.3532 43.3602 66.2279 43.4146L64.3029 44.2125C64.2398 44.2388 64.1722 44.2522 64.1039 44.2521ZM41.9695 53.4208C41.849 53.4208 41.7323 53.379 41.6392 53.3025C41.5461 53.226 41.4823 53.1196 41.4589 53.0014C41.4354 52.8832 41.4536 52.7606 41.5105 52.6543C41.5673 52.5481 41.6592 52.4648 41.7706 52.4187L43.6956 51.6208C43.8227 51.5708 43.9643 51.5728 44.09 51.6262C44.2157 51.6797 44.3153 51.7803 44.3675 51.9065C44.4197 52.0328 44.4202 52.1744 44.369 52.301C44.3177 52.4276 44.2188 52.529 44.0935 52.5833L42.1685 53.3812C42.1053 53.4071 42.0378 53.4205 41.9695 53.4208ZM49.8133 38.3323C49.7102 38.3323 49.6095 38.3017 49.5238 38.2444C49.4381 38.1871 49.3714 38.1057 49.332 38.0104L48.5341 36.0854C48.5066 36.022 48.492 35.9537 48.4911 35.8845C48.4903 35.8154 48.5032 35.7468 48.5292 35.6827C48.5551 35.6186 48.5936 35.5603 48.6423 35.5112C48.691 35.4621 48.749 35.4232 48.8129 35.3968C48.8768 35.3704 48.9454 35.3569 49.0145 35.3573C49.0837 35.3576 49.1521 35.3718 49.2157 35.3988C49.2794 35.4259 49.337 35.4653 49.3852 35.5149C49.4334 35.5645 49.4713 35.6231 49.4966 35.6875L50.2945 37.6125C50.3272 37.6916 50.3399 37.7776 50.3315 37.8628C50.3231 37.948 50.2938 38.0298 50.2462 38.1009C50.1986 38.1721 50.1342 38.2305 50.0587 38.2708C49.9832 38.3112 49.8989 38.3323 49.8133 38.3323Z" fill="white"/>
<path d="M56.6042 63.5417H51.3958C51.2577 63.5417 51.1252 63.4869 51.0275 63.3892C50.9299 63.2915 50.875 63.159 50.875 63.0209V60.9376C50.875 60.7994 50.9299 60.667 51.0275 60.5693C51.1252 60.4716 51.2577 60.4167 51.3958 60.4167H56.6042C56.7423 60.4167 56.8748 60.4716 56.9725 60.5693C57.0701 60.667 57.125 60.7994 57.125 60.9376V63.0209C57.125 63.159 57.0701 63.2915 56.9725 63.3892C56.8748 63.4869 56.7423 63.5417 56.6042 63.5417ZM51.9167 62.5001H56.0833V61.4584H51.9167V62.5001Z" fill="white"/>
<path d="M52.9583 60.9375C52.8202 60.9375 52.6877 60.8826 52.59 60.7849C52.4924 60.6873 52.4375 60.5548 52.4375 60.4167V56.3448L50.9083 52.2667C50.8843 52.2026 50.873 52.1345 50.8753 52.0662C50.8775 51.9978 50.8932 51.9305 50.9215 51.8683C50.9497 51.806 50.99 51.7498 51.0399 51.7031C51.0898 51.6564 51.1485 51.6199 51.2125 51.5958C51.2765 51.5718 51.3447 51.5605 51.413 51.5628C51.4814 51.565 51.5486 51.5807 51.6109 51.609C51.6732 51.6372 51.7293 51.6775 51.7761 51.7274C51.8228 51.7773 51.8593 51.836 51.8833 51.9L53.4458 56.0667C53.4678 56.1253 53.4791 56.1874 53.4792 56.25V60.4167C53.4792 60.5548 53.4243 60.6873 53.3266 60.7849C53.2289 60.8826 53.0965 60.9375 52.9583 60.9375ZM55.0417 60.9375C54.9035 60.9375 54.7711 60.8826 54.6734 60.7849C54.5757 60.6873 54.5208 60.5548 54.5208 60.4167V56.25C54.5208 56.1875 54.5323 56.125 54.5542 56.0667L56.1167 51.9C56.1407 51.836 56.1772 51.7773 56.2239 51.7274C56.2707 51.6775 56.3268 51.6372 56.3891 51.609C56.4514 51.5807 56.5186 51.565 56.587 51.5628C56.6553 51.5605 56.7235 51.5718 56.7875 51.5958C56.8515 51.6199 56.9102 51.6564 56.9601 51.7031C57.01 51.7498 57.0503 51.806 57.0785 51.8683C57.1068 51.9305 57.1225 51.9978 57.1247 52.0662C57.127 52.1345 57.1157 52.2026 57.0917 52.2667L55.5625 56.3448V60.4167C55.5625 60.5548 55.5076 60.6873 55.41 60.7849C55.3123 60.8826 55.1798 60.9375 55.0417 60.9375Z" fill="white"/>
<path d="M57.6458 61.4584H50.3542C50.216 61.4584 50.0836 61.4035 49.9859 61.3059C49.8882 61.2082 49.8333 61.0757 49.8333 60.9376V56.3084C48.2718 55.531 46.9575 54.3342 46.0376 52.8521C45.1177 51.37 44.6286 49.6611 44.625 47.9167C44.625 42.748 48.8312 38.5417 54 38.5417C59.1687 38.5417 63.375 42.748 63.375 47.9167C63.3714 49.6611 62.8823 51.37 61.9624 52.8521C61.0425 54.3342 59.7282 55.531 58.1667 56.3084V60.9376C58.1667 61.0757 58.1118 61.2082 58.0141 61.3059C57.9164 61.4035 57.784 61.4584 57.6458 61.4584ZM50.875 60.4167H57.125V55.9792C57.125 55.7751 57.2448 55.5886 57.4302 55.5042C58.8892 54.8431 60.1273 53.7763 60.9966 52.4309C61.866 51.0856 62.33 49.5185 62.3333 47.9167C62.3333 43.322 58.5948 39.5834 54 39.5834C49.4052 39.5834 45.6667 43.322 45.6667 47.9167C45.67 49.5185 46.134 51.0856 47.0034 52.4309C47.8727 53.7763 49.1108 54.8431 50.5698 55.5042C50.6609 55.5457 50.7382 55.6126 50.7923 55.6968C50.8465 55.781 50.8752 55.8791 50.875 55.9792V60.4167Z" fill="white"/>
<path d="M54 52.3437C53.8619 52.3437 53.7294 52.2889 53.6317 52.1912C53.534 52.0935 53.4792 51.9611 53.4792 51.8229C53.4792 51.6157 53.3969 51.417 53.2503 51.2705C53.1038 51.124 52.9051 51.0417 52.6979 51.0417C52.4907 51.0417 52.292 51.124 52.1455 51.2705C51.999 51.417 51.9167 51.6157 51.9167 51.8229C51.9167 51.9611 51.8618 52.0935 51.7641 52.1912C51.6664 52.2889 51.534 52.3437 51.3958 52.3437C51.2577 52.3437 51.1252 52.2889 51.0275 52.1912C50.9299 52.0935 50.875 51.9611 50.875 51.8229C50.875 50.8177 51.6927 50 52.6979 50C53.7031 50 54.5208 50.8177 54.5208 51.8229C54.5208 51.9611 54.466 52.0935 54.3683 52.1912C54.2706 52.2889 54.1381 52.3437 54 52.3437Z" fill="white"/>
<path d="M56.6055 52.3437C56.4673 52.3437 56.3349 52.2889 56.2372 52.1912C56.1395 52.0935 56.0846 51.9611 56.0846 51.8229C56.0846 51.6157 56.0023 51.417 55.8558 51.2705C55.7093 51.124 55.5106 51.0417 55.3034 51.0417C55.0962 51.0417 54.8975 51.124 54.751 51.2705C54.6044 51.417 54.5221 51.6157 54.5221 51.8229C54.5221 51.9611 54.4673 52.0935 54.3696 52.1912C54.2719 52.2889 54.1394 52.3437 54.0013 52.3437C53.8632 52.3437 53.7307 52.2889 53.633 52.1912C53.5353 52.0935 53.4805 51.9611 53.4805 51.8229C53.4805 50.8177 54.2982 50 55.3034 50C56.3086 50 57.1263 50.8177 57.1263 51.8229C57.1263 51.9611 57.0714 52.0935 56.9738 52.1912C56.8761 52.2889 56.7436 52.3437 56.6055 52.3437Z" fill="white"/>
</g>
</g>
<defs>
<filter id="filter0_d_340_137" x="0" y="0" width="108" height="108" filterUnits="userSpaceOnUse" color-interpolation-filters="sRGB">
<feFlood flood-opacity="0" result="BackgroundImageFix"/>
<feColorMatrix in="SourceAlpha" type="matrix" values="0 0 0 0 0 0 0 0 0 0 0 0 0 0 0 0 0 0 127 0" result="hardAlpha"/>
<feOffset dy="4"/>
<feGaussianBlur stdDeviation="2"/>
<feComposite in2="hardAlpha" operator="out"/>
<feColorMatrix type="matrix" values="0 0 0 0 0 0 0 0 0 0 0 0 0 0 0 0 0 0 0.25 0"/>
<feBlend mode="normal" in2="BackgroundImageFix" result="effect1_dropShadow_340_137"/>
<feBlend mode="normal" in="SourceGraphic" in2="effect1_dropShadow_340_137" result="shape"/>
</filter>
<clipPath id="clip0_340_137">
<rect width="50" height="50" fill="white" transform="translate(29 25)"/>
</clipPath>
</defs>
</svg>
