<svg width="29" height="34" viewBox="0 0 29 34" fill="none" xmlns="http://www.w3.org/2000/svg">
<g clip-path="url(#clip0_201_796)">
<path d="M2.75335 29.2693L0.210938 -0.668701H28.1775L25.6351 29.2693L14.1632 32.6536" fill="#0C73B8"/>
<path d="M14.2227 30.0502L23.4622 27.3818L25.6325 1.73926H14.2227" fill="#30A9DC"/>
<path d="M14.2234 12.8684H6.03807L6.34812 16.5781H14.2234V12.8684ZM14.2234 5.44897H5.41797L5.72802 9.0936H14.2234V5.44897ZM14.2234 22.4355L6.53415 20.2878L6.96822 24.1928L14.2234 26.2754V22.4355Z" fill="#ECEDEE"/>
<path d="M14.2227 16.5781H18.5014L18.0673 21.3291L14.2227 22.4355V26.2754L21.3538 24.1928L22.9661 5.44897H14.2227V9.0936H19.1835L18.8114 12.8684H14.2227V16.5781Z" fill="white"/>
</g>
<defs>
<clipPath id="clip0_201_796">
<rect width="28.0286" height="34" fill="white" transform="translate(0.210938)"/>
</clipPath>
</defs>
</svg>
