<svg width="33" height="35" viewBox="0 0 33 35" fill="none" xmlns="http://www.w3.org/2000/svg">
<g clip-path="url(#clip0_201_875)" filter="url(#filter0_d_201_875)">
<path d="M16.5001 0C7.94073 0 1 7.10609 1 15.8722C1 22.8849 5.44123 28.8345 11.5999 30.9332C12.3746 31.0802 12.659 30.5889 12.659 30.1697C12.659 29.7912 12.6445 28.5409 12.638 27.2147C8.32581 28.1747 7.41591 25.3419 7.41591 25.3419C6.71078 23.5074 5.6948 23.0194 5.6948 23.0194C4.28854 22.0344 5.80088 22.0547 5.80088 22.0547C7.3573 22.1665 8.17686 23.6903 8.17686 23.6903C9.55939 26.1167 11.803 25.4152 12.6875 25.0096C12.8266 23.9839 13.2283 23.2835 13.6716 22.8872C10.2288 22.486 6.60967 21.1249 6.60967 15.0432C6.60967 13.3103 7.21514 11.8944 8.20665 10.7828C8.04572 10.383 7.51521 8.76881 8.35681 6.58243C8.35681 6.58243 9.65845 6.15587 12.6205 8.20944C13.8569 7.85778 15.1829 7.68145 16.5001 7.67537C17.8174 7.68145 19.1444 7.85765 20.3831 8.20944C23.3416 6.156 24.6414 6.58256 24.6414 6.58256C25.485 8.76868 24.9543 10.3832 24.7933 10.7828C25.7872 11.8944 26.3885 13.3103 26.3885 15.0432C26.3885 21.1395 22.7625 22.4818 19.3109 22.8747C19.8669 23.3672 20.3623 24.3332 20.3623 25.814C20.3623 27.9376 20.3444 29.6469 20.3444 30.1697C20.3444 30.5921 20.6234 31.087 21.409 30.931C27.5643 28.8301 32 22.8826 32 15.8723C32 7.10609 25.0602 0 16.5001 0ZM6.80536 22.6102C6.77121 22.6891 6.64999 22.7128 6.53968 22.6586C6.42718 22.6069 6.36409 22.4994 6.40042 22.4202C6.43384 22.339 6.5553 22.3163 6.66743 22.3708C6.78005 22.4226 6.84423 22.5311 6.80536 22.6102ZM7.56776 23.3069C7.49389 23.377 7.34931 23.3444 7.25122 23.2336C7.14987 23.123 7.13086 22.9749 7.20581 22.9037C7.2821 22.8335 7.42221 22.8664 7.5238 22.977C7.62528 23.089 7.6449 23.2359 7.56776 23.3069ZM8.09089 24.1982C7.99583 24.2657 7.84059 24.2024 7.74456 24.0613C7.64962 23.9202 7.64962 23.7509 7.74662 23.6831C7.84289 23.6152 7.99583 23.6763 8.09307 23.8164C8.18776 23.9598 8.18776 24.1291 8.09077 24.1983L8.09089 24.1982ZM8.97536 25.2305C8.89047 25.3264 8.70943 25.3007 8.57696 25.1697C8.44145 25.0417 8.40379 24.8602 8.48904 24.7642C8.57502 24.668 8.75702 24.695 8.89047 24.825C9.02488 24.9527 9.06605 25.1356 8.97536 25.2305ZM10.1187 25.5789C10.0812 25.7033 9.90681 25.7598 9.73134 25.707C9.556 25.6526 9.44132 25.507 9.47668 25.3814C9.51313 25.2561 9.68823 25.1974 9.86503 25.2539C10.0401 25.308 10.1552 25.4524 10.1187 25.5789ZM11.4198 25.7268C11.4241 25.8577 11.2753 25.9662 11.091 25.9686C10.9057 25.9729 10.7557 25.867 10.7536 25.738C10.7536 25.6059 10.8992 25.4984 11.0846 25.4952C11.2689 25.4915 11.4198 25.5966 11.4198 25.7268ZM12.6979 25.6766C12.7199 25.8043 12.5919 25.9355 12.4088 25.9705C12.229 26.0041 12.0624 25.9252 12.0395 25.7986C12.0172 25.6677 12.1476 25.5365 12.3272 25.5027C12.5106 25.47 12.6745 25.5468 12.6979 25.6766Z" fill="#C1C1C1"/>
</g>
<defs>
<filter id="filter0_d_201_875" x="0" y="0" width="33" height="35" filterUnits="userSpaceOnUse" color-interpolation-filters="sRGB">
<feFlood flood-opacity="0" result="BackgroundImageFix"/>
<feColorMatrix in="SourceAlpha" type="matrix" values="0 0 0 0 0 0 0 0 0 0 0 0 0 0 0 0 0 0 127 0" result="hardAlpha"/>
<feOffset dy="3"/>
<feGaussianBlur stdDeviation="0.5"/>
<feColorMatrix type="matrix" values="0 0 0 0 0 0 0 0 0 0 0 0 0 0 0 0 0 0 0.2 0"/>
<feBlend mode="soft-light" in2="BackgroundImageFix" result="effect1_dropShadow_201_875"/>
<feBlend mode="normal" in="SourceGraphic" in2="effect1_dropShadow_201_875" result="shape"/>
</filter>
<clipPath id="clip0_201_875">
<rect width="31" height="31" fill="white" transform="translate(1)"/>
</clipPath>
</defs>
</svg>
