<svg width="30" height="34" viewBox="0 0 30 34" fill="none" xmlns="http://www.w3.org/2000/svg">
<g clip-path="url(#clip0_201_801)">
<path d="M2.73478 29.2703L0.101562 -0.667725H29.0669L26.4337 29.2703L14.5521 32.6546" fill="#E34F26"/>
<path d="M14.6133 30.0514L24.1828 27.383L26.4306 1.74048H14.6133" fill="#EF652A"/>
<path d="M14.6121 12.8694H9.79525L9.47412 9.09458H14.6121V5.44995H5.49219L6.45556 16.5791H14.6121V12.8694ZM14.6121 22.4365L10.5017 21.3301L10.2448 18.4014H6.64823L7.09781 24.1937L14.6121 26.2764V22.4365Z" fill="#ECEDEE"/>
<path d="M14.6133 16.5791H19.0448L18.5952 21.3301L14.6133 22.4365V26.2764L21.9991 24.1937L23.0267 12.8694H14.6133V16.5791ZM14.6133 5.44995V9.09458H23.3479L23.669 5.44995H14.6133Z" fill="white"/>
</g>
<defs>
<clipPath id="clip0_201_801">
<rect width="29.0296" height="34" fill="white" transform="translate(0.101562)"/>
</clipPath>
</defs>
</svg>
