<svg width="26" height="26" viewBox="0 0 26 26" fill="none" xmlns="http://www.w3.org/2000/svg">
<g clip-path="url(#clip0_239_74)">
<path d="M23.5625 0.609469H2.4375C1.95819 0.604591 1.49652 0.790056 1.15379 1.12517C0.81106 1.46028 0.615268 1.91767 0.609375 2.39697V23.6073C0.616334 24.0859 0.812594 24.5422 1.15521 24.8765C1.49782 25.2107 1.95888 25.3956 2.4375 25.3907H23.5625C24.0418 25.3945 24.5032 25.2084 24.8458 24.8731C25.1883 24.5378 25.3842 24.0805 25.3906 23.6012V2.39087C25.3821 1.91298 25.1852 1.45777 24.8429 1.1242C24.5006 0.790625 24.0405 0.605646 23.5625 0.609469ZM7.95641 21.7345H4.27781V9.89837H7.95641V21.7345ZM6.12828 8.28556C5.70636 8.28596 5.29381 8.16122 4.9428 7.92711C4.59179 7.69299 4.31811 7.36003 4.15637 6.97035C3.99463 6.58067 3.95211 6.15176 4.03417 5.73791C4.11624 5.32405 4.31921 4.94383 4.61741 4.64534C4.9156 4.34686 5.29563 4.14353 5.70941 4.06107C6.12319 3.97861 6.55213 4.02073 6.94197 4.18209C7.33181 4.34346 7.66503 4.61683 7.89948 4.96761C8.13392 5.31839 8.25906 5.73083 8.25906 6.15275C8.25853 6.43318 8.2027 6.71075 8.09477 6.96957C7.98684 7.2284 7.82893 7.4634 7.63007 7.66113C7.43121 7.85885 7.19531 8.01542 6.93587 8.12187C6.67644 8.22832 6.39855 8.28257 6.11812 8.2815L6.12828 8.28556ZM21.7344 21.7345H18.0558V15.9759C18.0558 14.6048 18.0314 12.8396 16.1444 12.8396C14.2573 12.8396 13.9364 14.3346 13.9364 15.8865V21.7345H10.2639V9.89837H13.7902V11.5234H13.8389C14.3305 10.5931 15.5289 9.61197 17.3184 9.61197C21.0438 9.60384 21.7344 12.0556 21.7344 15.2345V21.7345Z" fill="white"/>
</g>
<defs>
<clipPath id="clip0_239_74">
<rect width="26" height="26" fill="white"/>
</clipPath>
</defs>
</svg>
