<svg width="32" height="34" viewBox="0 0 32 34" fill="none" xmlns="http://www.w3.org/2000/svg">
<g clip-path="url(#clip0_201_872)" filter="url(#filter0_d_201_872)">
<g filter="url(#filter1_d_201_872)">
<path d="M26.5614 25.5617H22.1164V18.6004C22.1164 16.9404 22.0867 14.8035 19.8045 14.8035C17.4893 14.8035 17.1351 16.6122 17.1351 18.4796V25.5612H12.6902V11.2461H16.9573V13.2024H17.0171C17.4441 12.4722 18.0612 11.8715 18.8026 11.4643C19.5441 11.0571 20.3821 10.8586 21.2274 10.8899C25.7327 10.8899 26.5633 13.8534 26.5633 17.7086L26.5614 25.5617ZM7.67453 9.28937C6.24988 9.28961 5.09477 8.13484 5.09453 6.7102C5.0943 5.28555 6.24895 4.13043 7.67359 4.1302C9.09824 4.12984 10.2534 5.28461 10.2536 6.70926C10.2537 7.3934 9.98207 8.04958 9.4984 8.53344C9.01474 9.0173 8.35868 9.28922 7.67453 9.28937ZM9.89711 25.5618H5.44738V11.2461H9.89699V25.5617L9.89711 25.5618ZM28.7774 0.00203084H3.21379C2.00559 -0.0115629 1.01477 0.956289 1 2.16449V27.8348C1.0143 29.0436 2.005 30.0123 3.21367 29.9997H28.7774C29.9887 30.0147 30.9832 29.0459 31 27.8348V2.1625C30.9828 0.951953 29.9881 -0.0157817 28.7774 3.86495e-05" fill="#C1C1C1"/>
</g>
</g>
<defs>
<filter id="filter0_d_201_872" x="0" y="0" width="32" height="34" filterUnits="userSpaceOnUse" color-interpolation-filters="sRGB">
<feFlood flood-opacity="0" result="BackgroundImageFix"/>
<feColorMatrix in="SourceAlpha" type="matrix" values="0 0 0 0 0 0 0 0 0 0 0 0 0 0 0 0 0 0 127 0" result="hardAlpha"/>
<feOffset dy="3"/>
<feGaussianBlur stdDeviation="0.5"/>
<feColorMatrix type="matrix" values="0 0 0 0 0 0 0 0 0 0 0 0 0 0 0 0 0 0 0.2 0"/>
<feBlend mode="soft-light" in2="BackgroundImageFix" result="effect1_dropShadow_201_872"/>
<feBlend mode="normal" in="SourceGraphic" in2="effect1_dropShadow_201_872" result="shape"/>
</filter>
<filter id="filter1_d_201_872" x="0" y="-0.000152588" width="32" height="34" filterUnits="userSpaceOnUse" color-interpolation-filters="sRGB">
<feFlood flood-opacity="0" result="BackgroundImageFix"/>
<feColorMatrix in="SourceAlpha" type="matrix" values="0 0 0 0 0 0 0 0 0 0 0 0 0 0 0 0 0 0 127 0" result="hardAlpha"/>
<feOffset dy="3"/>
<feGaussianBlur stdDeviation="0.5"/>
<feComposite in2="hardAlpha" operator="out"/>
<feColorMatrix type="matrix" values="0 0 0 0 0 0 0 0 0 0 0 0 0 0 0 0 0 0 0.2 0"/>
<feBlend mode="normal" in2="BackgroundImageFix" result="effect1_dropShadow_201_872"/>
<feBlend mode="normal" in="SourceGraphic" in2="effect1_dropShadow_201_872" result="shape"/>
</filter>
<clipPath id="clip0_201_872">
<rect width="30" height="30" fill="white" transform="translate(1)"/>
</clipPath>
</defs>
</svg>
