<svg width="33" height="34" viewBox="0 0 33 34" fill="none" xmlns="http://www.w3.org/2000/svg">
<path d="M24.2784 23.5975L18.4443 29.6084C18.1891 29.8715 17.8861 30.0803 17.5526 30.2227C17.2192 30.3651 16.8617 30.4384 16.5007 30.4384C16.1397 30.4384 15.7822 30.3651 15.4487 30.2227C15.1152 30.0803 14.8123 29.8715 14.5571 29.6084L8.72163 23.5975C7.18331 22.0125 6.13572 19.9931 5.71133 17.7946C5.28693 15.5962 5.5048 13.3175 6.33738 11.2466C7.16996 9.17575 8.57986 7.40576 10.3888 6.16046C12.1977 4.91516 14.3244 4.25049 16.5 4.25049C18.6756 4.25049 20.8023 4.91516 22.6112 6.16046C24.4201 7.40576 25.83 9.17575 26.6626 11.2466C27.4952 13.3175 27.7131 15.5962 27.2887 17.7946C26.8643 19.9931 25.8167 22.0125 24.2784 23.5975Z" stroke="white" stroke-width="2" stroke-linecap="round" stroke-linejoin="round"/>
<path d="M20.625 15.5835C20.625 16.7107 20.1904 17.7917 19.4168 18.5887C18.6432 19.3857 17.594 19.8335 16.5 19.8335C15.406 19.8335 14.3568 19.3857 13.5832 18.5887C12.8096 17.7917 12.375 16.7107 12.375 15.5835C12.375 14.4563 12.8096 13.3753 13.5832 12.5783C14.3568 11.7813 15.406 11.3335 16.5 11.3335C17.594 11.3335 18.6432 11.7813 19.4168 12.5783C20.1904 13.3753 20.625 14.4563 20.625 15.5835Z" stroke="white" stroke-width="2" stroke-linecap="round" stroke-linejoin="round"/>
</svg>
