<svg width="33" height="44" viewBox="0 0 33 44" fill="none" xmlns="http://www.w3.org/2000/svg">
<g clip-path="url(#clip0_201_775)">
<path d="M16.446 42.3605C15.9486 42.3605 15.4844 42.2085 15.0533 41.9426L10.643 38.9407C9.97979 38.5227 10.3114 38.3708 10.5103 38.2948C11.4056 37.9528 11.5714 37.8768 12.4999 37.2687C12.5995 37.1927 12.7321 37.2307 12.8315 37.3067L16.2139 39.6246C16.3465 39.7006 16.5123 39.7006 16.6118 39.6246L29.8428 30.8472C29.9754 30.7712 30.0417 30.6192 30.0417 30.4293V12.9121C30.0417 12.7221 29.9754 12.5701 29.8428 12.4942L16.6118 3.75459C16.4792 3.67859 16.3134 3.67859 16.2139 3.75459L2.98291 12.4943C2.85028 12.5703 2.78396 12.7603 2.78396 12.9123V30.4293C2.78396 30.5812 2.85028 30.7712 2.98291 30.8472L6.59747 33.241C8.55397 34.3809 9.78072 33.051 9.78072 31.7211V14.432C9.78072 14.204 9.94664 13.976 10.1787 13.976H11.87C12.0689 13.976 12.2679 14.166 12.2679 14.432V31.721C12.2679 34.7228 10.8419 36.4707 8.35489 36.4707C7.59224 36.4707 6.99538 36.4707 5.30428 35.5207L1.82236 33.241C0.960228 32.6709 0.429688 31.607 0.429688 30.4671V12.9503C0.429688 11.8104 0.960228 10.7465 1.82236 10.1764L15.0533 1.39896C15.8823 0.867013 17.0097 0.867013 17.8387 1.39896L31.0697 10.1764C31.9318 10.7463 32.4623 11.8102 32.4623 12.9503V30.4672C32.4623 31.6071 31.9318 32.671 31.0697 33.241L17.8387 42.0187C17.4076 42.2467 16.9102 42.3607 16.446 42.3607V42.3605ZM20.5247 30.3151C14.7216 30.3151 13.5279 27.2754 13.5279 24.6915C13.5279 24.4636 13.6937 24.2356 13.9258 24.2356H15.6501C15.849 24.2356 16.0149 24.3876 16.0149 24.6155C16.2802 26.6293 17.0429 27.6174 20.5578 27.6174C23.3433 27.6174 24.5371 26.8955 24.5371 25.1856C24.5371 24.1976 24.2055 23.4756 19.8615 22.9816C16.2471 22.5636 13.9921 21.6517 13.9921 18.346C13.9921 15.268 16.2469 13.4442 20.0273 13.4442C24.2717 13.4442 26.3609 15.116 26.6261 18.7638C26.6261 18.8778 26.593 18.9918 26.5267 19.1058C26.4603 19.1818 26.3609 19.2578 26.2614 19.2578H24.5371C24.3712 19.2578 24.2055 19.1058 24.1723 18.9158C23.7744 16.826 22.7464 16.1421 20.0273 16.1421C16.9767 16.1421 16.6118 17.358 16.6118 18.2699C16.6118 19.3719 17.0429 19.7137 21.1547 20.3217C25.2335 20.9296 27.1567 21.8037 27.1567 25.0715C27.1235 28.4153 24.7361 30.3151 20.5247 30.3151Z" fill="#539E43"/>
</g>
<defs>
<clipPath id="clip0_201_775">
<rect width="32.0327" height="44" fill="white" transform="translate(0.429688)"/>
</clipPath>
</defs>
</svg>
