<svg width="36" height="32" viewBox="0 0 36 32" fill="none" xmlns="http://www.w3.org/2000/svg">
<g clip-path="url(#clip0_260_58)">
<path d="M28.8063 10.0931C28.4335 9.96531 28.0575 9.84692 27.6786 9.73804C27.7423 9.47828 27.8008 9.22166 27.8528 8.96955C28.7066 4.82957 28.1485 1.49431 26.2422 0.396187C24.4144 -0.656547 21.4253 0.441168 18.4065 3.06576C18.109 3.32489 17.818 3.59148 17.534 3.86529C17.3439 3.68322 17.1504 3.50468 16.9536 3.32976C13.7897 0.523472 10.6184 -0.659282 8.71418 0.441988C6.88808 1.498 6.34735 4.63337 7.11594 8.55693C7.19241 8.94552 7.27875 9.3321 7.37488 9.7163C6.92599 9.84373 6.49283 9.97935 6.07829 10.1237C2.36888 11.4157 0 13.4404 0 15.5405C0 17.7096 2.5431 19.8852 6.40661 21.2044C6.71983 21.3109 7.03566 21.4096 7.35381 21.5004C7.25048 21.9142 7.15875 22.3308 7.07872 22.7497C6.34598 26.6052 6.91818 29.6664 8.73936 30.7158C10.6203 31.7994 13.7774 30.6857 16.8514 28.0012C17.1006 27.783 17.3444 27.5585 17.5825 27.3281C17.89 27.6246 18.2059 27.9125 18.5295 28.1914C21.5073 30.751 24.4481 31.7846 26.2675 30.7324C28.1467 29.6457 28.7575 26.357 27.9645 22.356C27.9021 22.0425 27.832 21.7306 27.7544 21.4205C27.9762 21.3549 28.1938 21.2874 28.4059 21.2171C32.4224 19.8878 35.0357 17.7386 35.0357 15.5405C35.0357 13.4327 32.5903 11.3944 28.8063 10.0931ZM27.9352 19.7979C27.7436 19.8612 27.5471 19.9224 27.3467 19.9818C26.9033 18.5795 26.305 17.0885 25.5726 15.5478C26.2714 14.0439 26.8468 12.5718 27.2778 11.1786C27.6362 11.2823 27.984 11.3915 28.3193 11.5068C31.5614 12.6219 33.539 14.2703 33.539 15.5405C33.539 16.8935 31.4032 18.6499 27.9352 19.7979ZM26.4963 22.6463C26.8469 24.4155 26.8969 26.0151 26.6646 27.2657C26.4561 28.3894 26.0365 29.1384 25.5175 29.4385C24.4135 30.077 22.0522 29.2471 19.5057 27.058C19.2047 26.7987 18.9109 26.5311 18.6248 26.2554C19.6121 25.1769 20.5987 23.923 21.5616 22.5304C23.2554 22.3803 24.8555 22.1347 26.3066 21.7996C26.3781 22.0877 26.4416 22.3702 26.4963 22.6463ZM11.9444 29.3282C10.8657 29.7087 10.0065 29.7196 9.48715 29.4205C8.38202 28.7838 7.92259 26.3257 8.54926 23.0286C8.62376 22.639 8.70905 22.2515 8.80505 21.8666C10.2401 22.1838 11.8287 22.4119 13.5264 22.5494C14.4959 23.9121 15.511 25.1646 16.534 26.2613C16.3166 26.4715 16.094 26.6763 15.8665 26.8755C14.5071 28.0625 13.145 28.9046 11.9444 29.3282ZM6.89081 19.7896C5.18241 19.2062 3.77154 18.4481 2.8045 17.6208C1.93545 16.8775 1.49682 16.1394 1.49682 15.5405C1.49682 14.266 3.39874 12.6404 6.57098 11.5356C6.95596 11.4016 7.35887 11.2752 7.77697 11.1565C8.21546 12.5811 8.79054 14.0707 9.48455 15.5769C8.78151 17.1054 8.19822 18.6187 7.75548 20.0602C7.46508 19.9771 7.17677 19.8869 6.89081 19.7896ZM8.58484 8.26968C7.92642 4.90818 8.36368 2.37246 9.46416 1.73603C10.6362 1.05818 13.228 2.02464 15.9599 4.44785C16.138 4.60622 16.3133 4.7678 16.4855 4.93252C15.4676 6.02449 14.4618 7.26767 13.5009 8.62228C11.8532 8.77486 10.2759 9.01986 8.82572 9.34812C8.73637 8.99077 8.65605 8.63108 8.58484 8.26968ZM23.6977 11.9977C23.3552 11.4067 22.9999 10.8231 22.6322 10.2473C23.7501 10.3886 24.8212 10.576 25.8269 10.8051C25.525 11.772 25.1487 12.7828 24.7057 13.8191C24.3818 13.2053 24.0458 12.5981 23.6977 11.9977ZM17.5347 6.00111C18.225 6.74828 18.9164 7.5824 19.5965 8.48748C18.2169 8.42239 16.8351 8.42212 15.4555 8.48666C16.1363 7.58992 16.8336 6.75689 17.5347 6.00111ZM11.3321 12.008C10.9884 12.6035 10.6586 13.207 10.3431 13.8179C9.90731 12.7852 9.53437 11.7698 9.22986 10.7893C10.2295 10.5659 11.2955 10.3832 12.4062 10.2446C12.0344 10.8239 11.6763 11.4119 11.3321 12.008ZM12.4381 20.9428C11.2905 20.8149 10.2085 20.6416 9.20919 20.4243C9.51849 19.4262 9.89964 18.3892 10.3448 17.3344C10.6616 17.9458 10.9928 18.5496 11.338 19.1454C11.693 19.7579 12.0606 20.3578 12.4381 20.9428ZM17.576 25.1852C16.8665 24.4207 16.159 23.5748 15.468 22.6651C16.1389 22.6913 16.8228 22.7047 17.5179 22.7047C18.232 22.7047 18.9379 22.6887 19.6327 22.6578C18.9505 23.584 18.2617 24.4311 17.576 25.1852ZM24.7197 17.2805C25.1881 18.3469 25.5828 19.3785 25.8962 20.3594C24.8804 20.5911 23.7836 20.7775 22.628 20.916C22.9983 20.3296 23.3569 19.7358 23.7036 19.1351C24.056 18.5245 24.3948 17.9062 24.7197 17.2805ZM22.4071 18.3881C21.8764 19.3091 21.3159 20.2126 20.7264 21.0972C19.6585 21.1727 18.5884 21.2103 17.5179 21.2097C16.4275 21.2097 15.367 21.1758 14.3458 21.1096C13.7409 20.2271 13.1696 19.322 12.6332 18.3963C12.0994 17.4755 11.6009 16.5348 11.1385 15.5762C11.5997 14.6174 12.0968 13.6762 12.6289 12.7547L12.6287 12.7549C13.1606 11.8332 13.7272 10.9319 14.3276 10.0532C15.3695 9.97443 16.4379 9.93341 17.5177 9.93341C18.6025 9.93341 19.6724 9.97484 20.714 10.0541C21.3083 10.9316 21.8714 11.8297 22.4022 12.7468C22.936 13.6663 23.4397 14.6028 23.9126 15.555C23.4446 16.5169 22.9424 17.4619 22.4071 18.3881ZM25.4946 1.69146C26.6678 2.3674 27.1241 5.09316 26.387 8.66767C26.3399 8.89572 26.287 9.128 26.2296 9.36357C24.7759 9.02834 23.1975 8.7791 21.5449 8.6242C20.5823 7.25468 19.5847 6.00959 18.5833 4.93169C18.8457 4.67897 19.1144 4.4328 19.3891 4.19341C21.9757 1.9448 24.3932 1.05695 25.4946 1.69146ZM17.5179 12.4151C19.2457 12.4151 20.6464 13.8144 20.6464 15.5405C20.6464 17.2666 19.2457 18.6659 17.5179 18.6659C15.79 18.6659 14.3893 17.2666 14.3893 15.5405C14.3893 13.8144 15.79 12.4151 17.5179 12.4151Z" fill="#00D8FF"/>
</g>
<defs>
<clipPath id="clip0_260_58">
<rect width="35.0357" height="31.1719" fill="white"/>
</clipPath>
</defs>
</svg>
