<svg width="108" height="108" viewBox="0 0 108 108" fill="none" xmlns="http://www.w3.org/2000/svg">
<g filter="url(#filter0_d_337_51)">
<path d="M54 0C5.73611 0 4 1.73611 4 50C4 98.2639 5.73611 100 54 100C102.264 100 104 98.2639 104 50C104 1.73611 102.264 0 54 0Z" fill="#F9F9F9"/>
<g clip-path="url(#clip0_337_51)">
<path d="M30.8125 54.0629H33.7422C34.0012 54.0629 34.2496 53.9601 34.4328 53.7769C34.6159 53.5938 34.7188 53.3454 34.7188 53.0864C34.7188 52.8274 34.6159 52.579 34.4328 52.3958C34.2496 52.2127 34.0012 52.1098 33.7422 52.1098H31.7891V49.1801C31.7891 48.9211 31.6862 48.6727 31.5031 48.4895C31.3199 48.3064 31.0715 48.2035 30.8125 48.2035C30.5535 48.2035 30.3051 48.3064 30.122 48.4895C29.9388 48.6727 29.8359 48.9211 29.8359 49.1801V53.0864C29.8359 53.3454 29.9388 53.5938 30.122 53.7769C30.3051 53.9601 30.5535 54.0629 30.8125 54.0629Z" fill="#4F5D75"/>
<path d="M74.7578 54.0629H77.6875C77.9466 54.0629 78.1949 53.9601 78.3781 53.7769C78.5612 53.5938 78.6641 53.3454 78.6641 53.0864V49.1801C78.6641 48.9211 78.5612 48.6727 78.3781 48.4895C78.1949 48.3064 77.9466 48.2035 77.6875 48.2035C77.4285 48.2035 77.1801 48.3064 76.997 48.4895C76.8139 48.6727 76.711 48.9211 76.711 49.1801V52.1098H74.7578C74.4988 52.1098 74.2504 52.2127 74.0673 52.3958C73.8841 52.579 73.7812 52.8274 73.7812 53.0864C73.7812 53.3454 73.8841 53.5938 74.0673 53.7769C74.2504 53.9601 74.4988 54.0629 74.7578 54.0629Z" fill="#4F5D75"/>
<path d="M44.4844 53.5396C45.2934 53.5396 45.9493 52.8837 45.9493 52.0747C45.9493 51.2657 45.2934 50.6099 44.4844 50.6099C43.6754 50.6099 43.0195 51.2657 43.0195 52.0747C43.0195 52.8837 43.6754 53.5396 44.4844 53.5396Z" fill="#4F5D75"/>
<path d="M64.0156 53.5396C64.8247 53.5396 65.4805 52.8837 65.4805 52.0747C65.4805 51.2657 64.8247 50.6099 64.0156 50.6099C63.2066 50.6099 62.5508 51.2657 62.5508 52.0747C62.5508 52.8837 63.2066 53.5396 64.0156 53.5396Z" fill="#4F5D75"/>
<path d="M47.4141 69.6881H61.0861C61.3451 69.6881 61.5935 69.5852 61.7767 69.4021C61.9598 69.219 62.0627 68.9706 62.0627 68.7116C62.0627 68.4526 61.9598 68.2042 61.7767 68.021C61.5935 67.8379 61.3451 67.735 61.0861 67.735H47.4141C47.1551 67.735 46.9067 67.8379 46.7235 68.021C46.5404 68.2042 46.4375 68.4526 46.4375 68.7116C46.4375 68.9706 46.5404 69.219 46.7235 69.4021C46.9067 69.5852 47.1551 69.6881 47.4141 69.6881Z" fill="#4F5D75"/>
<g filter="url(#filter1_d_337_51)">
<path d="M84.5242 56.0161H83.3718C83.4812 55.7094 83.5515 55.3833 83.5515 55.0395V48.0004C83.549 47.0015 83.2412 46.0273 82.6694 45.2083C82.0976 44.3894 81.2891 43.7648 80.3523 43.4183L74.7624 41.3636V38.4651C75.5015 37.8819 76.0995 37.1394 76.5117 36.2929C76.924 35.4465 77.1399 34.5179 77.1433 33.5763V32.631L77.2858 32.3927C77.7058 31.4845 77.9167 30.5099 77.9167 29.4962C77.9167 26.8731 76.4382 24.6153 74.2897 23.4336C74.4108 23.1231 74.487 22.7989 74.487 22.4668C74.487 20.7578 72.8561 19.3652 70.8541 19.3652C68.8521 19.3652 67.2213 20.7559 67.2213 22.4668C67.2213 22.8418 67.3072 23.2032 67.4576 23.545C66.4178 24.1532 65.5548 25.0224 64.9539 26.0665C64.3531 27.1106 64.0352 28.2935 64.0318 29.4982C64.0318 30.4142 64.2173 31.3048 64.563 32.1466V33.5744C64.563 35.5608 65.5064 37.3127 66.9478 38.467V41.3616L61.3559 43.4183C60.708 43.6599 60.1197 44.0381 59.6307 44.5271C59.1417 45.016 58.7636 45.6044 58.5219 46.2523H57.1801C56.9211 46.2523 56.6727 46.3552 56.4896 46.5383C56.3064 46.7215 56.2035 46.9699 56.2035 47.2289V56.0161H52.2972V47.2269C52.2972 46.9679 52.1944 46.7195 52.0112 46.5364C51.8281 46.3532 51.5797 46.2503 51.3207 46.2503H49.9828C49.7688 45.6861 49.4522 45.1662 49.0492 44.7171C49.0277 44.6898 49.0179 44.6566 48.9945 44.6292C48.846 44.473 48.6663 44.3499 48.4964 44.2152C48.3948 44.1331 48.305 44.0394 48.1976 43.9652C47.8872 43.754 47.5536 43.579 47.2034 43.4437C47.1858 43.4358 47.1702 43.4241 47.1507 43.4163L41.5608 41.3616V38.3694C41.5608 38.3381 41.5452 38.3108 41.5432 38.2795C42.3044 37.6917 42.9212 36.9378 43.3467 36.0754C43.7722 35.2129 43.9951 34.2646 43.9983 33.3029V30.5216L45.178 26.0079C45.2633 25.5452 45.2553 25.0701 45.1543 24.6106C45.0533 24.1511 44.8615 23.7164 44.5901 23.3321C44.3205 22.9461 43.9763 22.6182 43.5777 22.3676C43.1792 22.117 42.7344 21.9488 42.2698 21.8731L36.2111 20.8653C35.7106 20.7798 35.1975 20.8055 34.7081 20.9405C34.2186 21.0755 33.7649 21.3165 33.379 21.6465C32.8029 22.1348 32.4064 22.7872 32.2364 23.5333C31.6486 23.7106 31.1278 24.0612 30.7423 24.5391C30.1602 25.2598 29.9376 26.1915 30.1602 27.2091L31.3009 30.5607V33.3029C31.3038 34.2654 31.527 35.2144 31.9532 36.0773C32.3794 36.9402 32.9974 37.6942 33.7599 38.2815C33.7579 38.3127 33.7423 38.3381 33.7423 38.3694V41.3616L28.1505 43.4183C27.2138 43.7648 26.4056 44.3895 25.8341 45.2085C25.2626 46.0275 24.9552 47.0017 24.9531 48.0004V55.0395C24.9531 55.3833 25.0235 55.7094 25.1328 56.0161H23.9766C23.7176 56.0161 23.4692 56.119 23.286 56.3021C23.1029 56.4853 23 56.7337 23 56.9927V58.9458C23 61.3033 24.6797 63.2759 26.9063 63.7291V76.5242C26.9063 76.7832 27.0092 77.0316 27.1923 77.2147C27.3755 77.3978 27.6239 77.5007 27.8829 77.5007H80.6179C80.8769 77.5007 81.1253 77.3978 81.3084 77.2147C81.4916 77.0316 81.5945 76.7832 81.5945 76.5242V63.7291C83.8211 63.2759 85.5008 61.3033 85.5008 58.9458V56.9927C85.5008 56.7337 85.3979 56.4853 85.2147 56.3021C85.0316 56.119 84.7832 56.0161 84.5242 56.0161ZM70.8522 21.3164C71.7643 21.3164 72.5319 21.8418 72.5319 22.4649C72.5319 22.5547 72.5123 22.6407 72.485 22.7207L72.4479 22.7168C71.9636 22.6095 71.4693 22.5545 70.9733 22.5528L70.9088 22.5586C70.7994 22.5586 70.694 22.586 70.5846 22.5918C70.1735 22.6116 69.765 22.6678 69.3639 22.7598C69.3228 22.7696 69.2799 22.7657 69.2389 22.7774C69.1953 22.6789 69.1727 22.5725 69.1724 22.4649C69.1724 21.8418 69.94 21.3164 70.8522 21.3164ZM69.6217 24.7149C69.7584 24.6758 69.8932 24.627 70.0299 24.6016C70.3229 24.545 70.6256 24.5118 70.9342 24.5098C71.0162 24.5098 71.0963 24.5235 71.1783 24.5274C71.4069 24.5372 71.6315 24.5567 71.8522 24.5958C71.985 24.6192 72.1178 24.6583 72.2487 24.6934C73.3105 24.9734 74.2503 25.5962 74.922 26.465C75.5937 27.3338 75.9598 28.4 75.9636 29.4982L75.9616 29.6076C75.318 29.0436 74.4911 28.7332 73.6354 28.7345C71.8784 28.7387 70.1656 28.1839 68.7447 27.1505C68.5349 26.9988 68.2734 26.9366 68.0178 26.9776C67.7621 27.0186 67.5332 27.1595 67.3814 27.3692C67.2393 27.5677 67.1779 27.8128 67.2095 28.0548C66.7782 28.2947 66.3835 28.5953 66.0376 28.9474C66.1469 27.9656 66.5462 27.0387 67.1845 26.2848C67.8229 25.531 68.6713 24.9844 69.6217 24.7149ZM66.5142 33.5744V32.5451C66.5142 31.1017 67.4674 29.8829 68.8365 29.4884C70.3133 30.2743 71.9605 30.6854 73.6334 30.6857C74.016 30.6893 74.3843 30.8313 74.6701 31.0856C74.956 31.3398 75.14 31.689 75.1881 32.0685V33.5724C75.1881 35.9651 73.2428 37.9104 70.8502 37.9104C68.4576 37.9104 66.5142 35.9651 66.5142 33.5744ZM72.8092 39.5217V41.094C72.2009 41.3931 71.5322 41.5488 70.8543 41.5491C70.1765 41.5495 69.5076 41.3944 68.899 41.096V39.5237C69.5182 39.7268 70.1666 39.8655 70.8522 39.8655C71.5187 39.856 72.1794 39.74 72.8092 39.5217ZM62.0278 45.2503L68.2037 42.9808C69.0347 43.3627 69.9385 43.5605 70.8531 43.5605C71.7677 43.5605 72.6716 43.3627 73.5026 42.9808L79.6804 45.2523C80.8288 45.6742 81.5984 46.7796 81.5984 48.0023V55.0395C81.5984 55.2985 81.4955 55.5469 81.3124 55.7301C81.1292 55.9132 80.8808 56.0161 80.6218 56.0161H71.8287V47.2269C71.8287 46.9679 71.7258 46.7195 71.5427 46.5364C71.3596 46.3532 71.1112 46.2503 70.8522 46.2503H60.7095C61.0434 45.807 61.4868 45.4495 62.0278 45.2503ZM58.1567 48.2035H69.8756V56.0161H58.1567V48.2035ZM50.3441 48.2035V56.0161H38.6252V48.2035H50.3441ZM32.5665 28.2286L32.0392 26.6895C32.0051 26.5288 32.0075 26.3624 32.0459 26.2026C32.0844 26.0428 32.1581 25.8937 32.2616 25.766C32.3651 25.6383 32.4959 25.5354 32.6442 25.4647C32.7926 25.3941 32.9549 25.3574 33.1193 25.3575C33.6583 25.3575 34.0958 24.8536 34.0958 24.3126C34.0969 23.904 34.2595 23.5124 34.5482 23.2233C34.8369 22.9342 35.2283 22.7711 35.6369 22.7696C35.722 22.769 35.807 22.7762 35.8908 22.7911L41.9514 23.8008C42.16 23.8344 42.3597 23.9096 42.5385 24.022C42.7174 24.1344 42.8718 24.2817 42.9924 24.4551C43.2405 24.8067 43.3342 25.2325 43.2737 25.5841L42.6077 28.1212L42.2893 27.672C42.1987 27.5446 42.0789 27.4407 41.9399 27.369C41.8009 27.2973 41.6468 27.2599 41.4905 27.2599H33.7423C33.5827 27.2598 33.4254 27.2989 33.2844 27.3738C33.1434 27.4488 33.023 27.5572 32.9337 27.6896L32.5665 28.2286ZM33.254 33.3029V30.6974L34.2619 29.213H40.9846L42.0432 30.7091V33.3029C42.0432 35.7268 40.0705 37.6975 37.6486 37.6975C35.2267 37.6975 33.254 35.7268 33.254 33.3029ZM39.6018 39.3108V41.096C38.3811 41.7015 36.9181 41.7015 35.6955 41.096V39.3108C36.3146 39.512 36.9631 39.6506 37.6486 39.6506C38.3342 39.6506 38.9826 39.5139 39.6018 39.3108ZM26.9063 48.0004C26.9063 46.7777 27.6778 45.6722 28.8243 45.2503L35.0001 42.9808C35.8309 43.3625 36.7344 43.5601 37.6486 43.5601C38.5629 43.5601 39.4663 43.3625 40.2971 42.9808L46.4729 45.2503C46.5062 45.262 46.5335 45.2835 46.5667 45.2972C46.7562 45.3753 46.9378 45.4652 47.1038 45.5785C47.1702 45.6234 47.2249 45.682 47.2874 45.7328C47.4769 45.8851 47.6448 46.057 47.7894 46.2503H37.6486C37.3896 46.2503 37.1412 46.3532 36.9581 46.5364C36.7749 46.7195 36.672 46.9679 36.672 47.2269V56.0161H27.8829C27.6239 56.0161 27.3755 55.9132 27.1923 55.7301C27.0092 55.5469 26.9063 55.2985 26.9063 55.0395V48.0004ZM79.6413 75.5476H28.8594V63.8287H79.6413V75.5476ZM83.5476 58.9458C83.5476 60.5611 82.2332 61.8755 80.6179 61.8755H27.8829C26.2676 61.8755 24.9531 60.5611 24.9531 58.9458V57.9692H83.5476V58.9458Z" fill="#4F5D75"/>
</g>
</g>
</g>
<defs>
<filter id="filter0_d_337_51" x="0" y="0" width="108" height="108" filterUnits="userSpaceOnUse" color-interpolation-filters="sRGB">
<feFlood flood-opacity="0" result="BackgroundImageFix"/>
<feColorMatrix in="SourceAlpha" type="matrix" values="0 0 0 0 0 0 0 0 0 0 0 0 0 0 0 0 0 0 127 0" result="hardAlpha"/>
<feOffset dy="4"/>
<feGaussianBlur stdDeviation="2"/>
<feComposite in2="hardAlpha" operator="out"/>
<feColorMatrix type="matrix" values="0 0 0 0 0 0 0 0 0 0 0 0 0 0 0 0 0 0 0.25 0"/>
<feBlend mode="normal" in2="BackgroundImageFix" result="effect1_dropShadow_337_51"/>
<feBlend mode="normal" in="SourceGraphic" in2="effect1_dropShadow_337_51" result="shape"/>
</filter>
<filter id="filter1_d_337_51" x="19" y="19.3652" width="70.5" height="66.1355" filterUnits="userSpaceOnUse" color-interpolation-filters="sRGB">
<feFlood flood-opacity="0" result="BackgroundImageFix"/>
<feColorMatrix in="SourceAlpha" type="matrix" values="0 0 0 0 0 0 0 0 0 0 0 0 0 0 0 0 0 0 127 0" result="hardAlpha"/>
<feOffset dy="4"/>
<feGaussianBlur stdDeviation="2"/>
<feComposite in2="hardAlpha" operator="out"/>
<feColorMatrix type="matrix" values="0 0 0 0 0 0 0 0 0 0 0 0 0 0 0 0 0 0 0.25 0"/>
<feBlend mode="normal" in2="BackgroundImageFix" result="effect1_dropShadow_337_51"/>
<feBlend mode="normal" in="SourceGraphic" in2="effect1_dropShadow_337_51" result="shape"/>
</filter>
<clipPath id="clip0_337_51">
<rect width="62.5008" height="62.5008" fill="white" transform="translate(23 15)"/>
</clipPath>
</defs>
</svg>
