<svg width="108" height="108" viewBox="0 0 108 108" fill="none" xmlns="http://www.w3.org/2000/svg">
<g filter="url(#filter0_d_340_129)">
<path d="M54 0C5.73611 0 4 1.73611 4 50C4 98.2639 5.73611 100 54 100C102.264 100 104 98.2639 104 50C104 1.73611 102.264 0 54 0Z" fill="white"/>
<g clip-path="url(#clip0_340_129)">
<g filter="url(#filter1_d_340_129)">
<path d="M66.0425 30.8768C66.1262 30.79 66.1921 30.6876 66.2362 30.5754C66.2804 30.4632 66.3021 30.3434 66.2999 30.2229C66.2978 30.1023 66.2719 29.9833 66.2238 29.8728C66.1757 29.7622 66.1063 29.6622 66.0195 29.5784C63.6267 27.2582 60.4228 25.9634 57.0897 25.9697C50.0009 25.9697 44.2344 31.7363 44.2344 38.8251C44.2344 45.9138 50.0009 51.6804 57.0897 51.6804C66.5751 51.8401 73.0266 41.1666 68.4712 32.8519C67.9074 31.7914 66.2923 32.6389 66.846 33.7059C67.5284 35.0102 67.9391 36.4393 68.0534 37.9068H67.1903C66.9468 37.9068 66.7132 38.0036 66.541 38.1758C66.3688 38.348 66.2721 38.5815 66.2721 38.8251C66.2721 39.0686 66.3688 39.3022 66.541 39.4744C66.7132 39.6466 66.9468 39.7433 67.1903 39.7433H68.0626C67.6182 45.0865 63.3521 49.3536 58.0079 49.798V48.9257C58.0079 48.6821 57.9112 48.4486 57.739 48.2764C57.5668 48.1042 57.3332 48.0074 57.0897 48.0074C56.8462 48.0074 56.6126 48.1042 56.4404 48.2764C56.2682 48.4486 56.1715 48.6821 56.1715 48.9257V49.798C50.8273 49.3536 46.5612 45.0865 46.1168 39.7433H46.9891C47.2326 39.7433 47.4662 39.6466 47.6384 39.4744C47.8106 39.3022 47.9073 39.0686 47.9073 38.8251C47.9073 38.5815 47.8106 38.348 47.6384 38.1758C47.4662 38.0036 47.2326 37.9068 46.9891 37.9068H46.1168C46.5612 32.5627 50.8273 28.2966 56.1715 27.8521V28.7245C56.1715 28.968 56.2682 29.2015 56.4404 29.3738C56.6126 29.546 56.8462 29.6427 57.0897 29.6427C57.3332 29.6427 57.5668 29.546 57.739 29.3738C57.9112 29.2015 58.0079 28.968 58.0079 28.7245V27.8494C60.5387 28.0545 62.9197 29.132 64.7441 30.8979C64.9192 31.0672 65.1544 31.1599 65.3979 31.1558C65.6414 31.1517 65.8732 31.051 66.0425 30.8759V30.8768Z" fill="#4F5D75"/>
</g>
<path d="M51.847 44.0655C52.0192 44.2377 52.2527 44.3344 52.4962 44.3344C52.7396 44.3344 52.9732 44.2377 53.1454 44.0655L55.9074 41.3035C59.4243 42.836 61.5564 37.6324 58.0056 36.2394V31.4793C58.0056 31.2357 57.9088 31.0022 57.7366 30.83C57.5644 30.6578 57.3309 30.561 57.0873 30.561C56.8438 30.561 56.6103 30.6578 56.4381 30.83C56.2659 31.0022 56.1691 31.2357 56.1691 31.4793V36.2394C54.6917 36.7123 53.868 38.5901 54.6081 40.0051L51.847 42.7672C51.6748 42.9393 51.5781 43.1729 51.5781 43.4163C51.5781 43.6598 51.6748 43.8933 51.847 44.0655ZM57.0873 37.9069C58.2939 37.928 58.2939 39.7223 57.0873 39.7434C55.8808 39.714 55.8826 37.9271 57.0873 37.9069Z" fill="#4F5D75"/>
<g filter="url(#filter2_d_340_129)">
<path d="M32.3125 70.8963L33.9929 71.6336C34.5438 71.8759 35.1459 71.9789 35.7461 71.9336C36.3463 71.8883 36.9261 71.696 37.4344 71.3738C46.6866 75.6573 56.0902 80.0759 66.6564 75.4875C76.476 70.7475 79.4566 59.9968 77.1362 56.704C76.0766 54.952 73.3072 53.5232 71.5506 55.2358C67.8997 52.7409 66.0503 56.4313 64.5426 59.5276C63.2323 61.9563 61.4968 64.2758 59.4005 66.4327C58.1664 66.3464 56.8184 66.0719 55.3483 65.5889C56.582 65.0661 57.7041 64.3118 58.654 63.3667C59.4345 62.6046 60.9284 61.0491 61.1185 58.7976C61.3481 57.5442 61.2213 55.4717 59.5639 55.1467C67.8859 53.9291 74.2098 46.3041 73.5753 37.6864C73.4431 36.4881 71.6718 36.6286 71.7443 37.8324C72.3476 46.2563 65.5361 53.5508 57.0865 53.5159C37.5988 52.7106 37.5997 24.9385 57.0865 24.1323C61.0092 24.1323 64.7024 25.6649 67.4837 28.4462C68.3331 29.2956 69.6296 27.9963 68.7821 27.1478C58.4933 16.7635 40.5261 24.203 40.5583 38.825C40.5371 48.1139 48.3578 55.7224 57.6558 55.3239C55.2813 56.132 53.1381 57.3982 50.4018 58.1631C48.1071 58.8297 45.6857 59.1181 43.2009 59.0565C43.2072 58.3376 43.0026 57.6326 42.6126 57.0287C42.2226 56.4247 41.6642 55.9482 41.0064 55.6581L39.3242 54.9199C37.5308 54.0907 35.2426 54.9832 34.485 56.8069L30.4246 66.0563C30.035 66.9485 30.015 67.9588 30.3688 68.8658C30.7227 69.7729 31.4216 70.5027 32.3125 70.8954V70.8963ZM66.1587 60.399C67.2422 58.5754 68.2376 55.1375 70.3706 56.6471C68.1944 60.1694 66.7234 65.4098 62.0404 66.2849C63.6703 64.4181 65.0541 62.4467 66.1587 60.399ZM42.9273 60.9059C47.3128 61.1575 52.2006 59.8132 55.8855 58.0153C57.16 57.4505 58.9065 56.6755 59.2214 56.9685C59.4638 57.2008 59.3344 58.1925 59.282 58.6993C58.6971 62.2116 54.8084 64.1913 52.342 64.5669C52.1472 64.6 51.9682 64.6952 51.8318 64.8381C51.6953 64.9811 51.6087 65.1643 51.5846 65.3604C51.5606 65.5566 51.6005 65.7553 51.6984 65.927C51.7963 66.0986 51.947 66.2342 52.128 66.3134C57.429 68.6328 61.7181 68.9294 64.8741 67.1949C67.795 65.5907 69.3624 62.4935 70.6222 60.0032C72.197 56.7582 73.388 54.8281 75.6028 57.7132C77.2418 60.2512 74.5266 69.6897 65.8814 73.8227C56.0324 78.0402 47.4983 73.9173 38.7117 69.9652C39.5537 68.2591 41.9044 62.454 42.9273 60.9059ZM32.1059 66.7945L36.1673 57.5451C36.5456 56.6342 37.6906 56.1852 38.5868 56.6021L40.2672 57.3404C40.7129 57.5364 41.0626 57.9013 41.2396 58.3549C41.4165 58.8085 41.4063 59.3138 41.2111 59.7599L40.1855 62.0959L36.0791 69.6245C36.0149 69.7487 35.9803 69.886 35.9781 70.0258C35.1397 70.3674 33.8055 69.4905 33.0508 69.2132C32.6053 69.0171 32.2558 68.6524 32.0788 68.199C31.9019 67.7456 31.9119 67.2405 32.1068 66.7945H32.1059Z" fill="#4F5D75"/>
</g>
<path d="M67.188 30.5609C67.188 30.8044 67.2847 31.038 67.4569 31.2102C67.6292 31.3824 67.8627 31.4791 68.1062 31.4791C69.625 31.4791 70.8609 33.1265 70.8609 35.1521C70.8802 36.3559 72.6772 36.3605 72.6974 35.1521C72.6974 33.1265 73.9334 31.4791 75.4521 31.4791C76.6569 31.4589 76.6605 29.6629 75.4521 29.6427C73.9334 29.6427 72.6974 27.9944 72.6974 25.9697C72.6781 24.765 70.8812 24.7604 70.8609 25.9697C70.8609 27.9944 69.625 29.6427 68.1062 29.6427C67.8627 29.6427 67.6292 29.7394 67.4569 29.9116C67.2847 30.0838 67.188 30.3174 67.188 30.5609ZM71.7792 29.2717C72.0833 29.7626 72.4683 30.1985 72.9178 30.5609C72.4798 30.9098 72.0941 31.3469 71.7792 31.8501C71.4751 31.3592 71.0901 30.9233 70.6406 30.5609C71.0786 30.212 71.4642 29.7749 71.7792 29.2717ZM34.1315 48.9256C35.6502 48.9256 36.8862 50.573 36.8862 52.5986C36.9046 53.8024 38.7025 53.8079 38.7227 52.5986C38.7227 50.573 39.9586 48.9256 41.4774 48.9256C41.7209 48.9256 41.9545 48.8289 42.1267 48.6567C42.2989 48.4845 42.3956 48.2509 42.3956 48.0074C42.3956 47.7639 42.2989 47.5303 42.1267 47.3581C41.9545 47.1859 41.7209 47.0892 41.4774 47.0892C39.9586 47.0892 38.7227 45.4409 38.7227 43.4162C38.7034 42.2115 36.9064 42.2069 36.8862 43.4162C36.8862 45.4409 35.6502 47.0892 34.1315 47.0892C32.9268 47.1084 32.9231 48.9054 34.1315 48.9256ZM37.8044 46.7182C38.1085 47.2091 38.4935 47.645 38.943 48.0074C38.505 48.3563 38.1194 48.7934 37.8044 49.2966C37.5003 48.8057 37.1154 48.3698 36.6658 48.0074C37.1038 47.6585 37.4895 47.2214 37.8044 46.7182Z" fill="#4F5D75"/>
</g>
</g>
<defs>
<filter id="filter0_d_340_129" x="0" y="0" width="108" height="108" filterUnits="userSpaceOnUse" color-interpolation-filters="sRGB">
<feFlood flood-opacity="0" result="BackgroundImageFix"/>
<feColorMatrix in="SourceAlpha" type="matrix" values="0 0 0 0 0 0 0 0 0 0 0 0 0 0 0 0 0 0 127 0" result="hardAlpha"/>
<feOffset dy="4"/>
<feGaussianBlur stdDeviation="2"/>
<feComposite in2="hardAlpha" operator="out"/>
<feColorMatrix type="matrix" values="0 0 0 0 0 0 0 0 0 0 0 0 0 0 0 0 0 0 0.25 0"/>
<feBlend mode="normal" in2="BackgroundImageFix" result="effect1_dropShadow_340_129"/>
<feBlend mode="normal" in="SourceGraphic" in2="effect1_dropShadow_340_129" result="shape"/>
</filter>
<filter id="filter1_d_340_129" x="40.2344" y="25.9697" width="33.7305" height="33.7124" filterUnits="userSpaceOnUse" color-interpolation-filters="sRGB">
<feFlood flood-opacity="0" result="BackgroundImageFix"/>
<feColorMatrix in="SourceAlpha" type="matrix" values="0 0 0 0 0 0 0 0 0 0 0 0 0 0 0 0 0 0 127 0" result="hardAlpha"/>
<feOffset dy="4"/>
<feGaussianBlur stdDeviation="2"/>
<feComposite in2="hardAlpha" operator="out"/>
<feColorMatrix type="matrix" values="0 0 0 0 0 0 0 0 0 0 0 0 0 0 0 0 0 0 0.25 0"/>
<feBlend mode="normal" in2="BackgroundImageFix" result="effect1_dropShadow_340_129"/>
<feBlend mode="normal" in="SourceGraphic" in2="effect1_dropShadow_340_129" result="shape"/>
</filter>
<filter id="filter2_d_340_129" x="26.1172" y="22.3054" width="55.7656" height="63.1265" filterUnits="userSpaceOnUse" color-interpolation-filters="sRGB">
<feFlood flood-opacity="0" result="BackgroundImageFix"/>
<feColorMatrix in="SourceAlpha" type="matrix" values="0 0 0 0 0 0 0 0 0 0 0 0 0 0 0 0 0 0 127 0" result="hardAlpha"/>
<feOffset dy="4"/>
<feGaussianBlur stdDeviation="2"/>
<feComposite in2="hardAlpha" operator="out"/>
<feColorMatrix type="matrix" values="0 0 0 0 0 0 0 0 0 0 0 0 0 0 0 0 0 0 0.25 0"/>
<feBlend mode="normal" in2="BackgroundImageFix" result="effect1_dropShadow_340_129"/>
<feBlend mode="normal" in="SourceGraphic" in2="effect1_dropShadow_340_129" result="shape"/>
</filter>
<clipPath id="clip0_340_129">
<rect width="58.7671" height="58.7671" fill="white" transform="translate(24.6172 20.4851)"/>
</clipPath>
</defs>
</svg>
