<svg width="44" height="39" viewBox="0 0 44 39" fill="none" xmlns="http://www.w3.org/2000/svg">
<path d="M44 5.51669C42.3809 6.25964 40.6412 6.76175 38.8152 6.98764C40.6792 5.83151 42.1104 4.00075 42.7843 1.81941C41.0124 2.90756 39.0737 3.67424 37.0521 4.0863C35.4054 2.27083 33.0595 1.13623 30.463 1.13623C25.4775 1.13623 21.4356 5.31891 21.4356 10.4777C21.4356 11.21 21.5155 11.9229 21.6693 12.6068C14.167 12.217 7.51541 8.49807 3.06298 2.84623C2.28611 4.22593 1.84095 5.8308 1.84095 7.54258C1.84095 10.7836 3.43475 13.6428 5.85681 15.3181C4.42329 15.2717 3.0213 14.871 1.76791 14.1496C1.76739 14.1887 1.76739 14.2278 1.76739 14.2671C1.76739 18.7933 4.87901 22.569 9.00848 23.4272C7.67918 23.8013 6.28483 23.8561 4.93195 23.5873C6.08059 27.2986 9.41445 29.9993 13.3645 30.0749C10.275 32.5803 6.38258 34.0738 2.15342 34.0738C1.42467 34.0738 0.706234 34.0295 0 33.9433C3.99489 36.5938 8.73984 38.1404 13.8377 38.1404C30.442 38.1404 39.5216 23.9056 39.5216 11.5611C39.5216 11.1559 39.513 10.753 39.4955 10.3525C41.2628 9.03039 42.7881 7.39284 44 5.51669Z" fill="#C1C1C1"/>
</svg>
